#N canvas 218 23 426 494 10;
#X declare -path pd-abs -path pd-third-party;
#X obj 161 228 hsl 100 28 0 1 0 0 style-crossfade \$0-set-style-crossfade
empty -2 -8 0 10 -33289 -228856 -1 5544 1;
#X obj 118 271 hsl 200 28 0 1 0 0 \$0-bbv \$0-bbv-set variation 68
14 1 15 -33289 -228856 -262144 0 1;
#N canvas 425 190 796 519 select 0;
#X obj 100 300 cnv 15 125 28 empty empty empty 20 12 0 14 -33289 -66577
0;
#X obj 101 302 flatgui/popup 124 25 grey90 style_B Soul Garage House
Daft_Punk Funk HipHop;
#X msg 112 215 append append-one append-two append-three;
#X msg 62 86 bgcolour #047992;
#X symbolatom 217 279 10 0 0 0 - - -, f 10;
#X text 296 278 Select by symbol name;
#X obj 39 34 loadbang;
#X msg 92 113 bgcolour grey90;
#X msg 217 381 motown;
#X msg 266 380 garagehouse;
#X msg 418 380 daftpunk2;
#X msg 482 380 funkyfresh;
#X obj 470 431 symbol;
#X obj 470 456 s style-B;
#X msg 552 380 classic_hiphop;
#X msg 39 61 name style_B;
#X msg 109 137 options Soul Garage House Daft_Punk Funk HipHop;
#X obj 217 336 select Soul Garage House Daft_Punk Funk HipHop;
#X text 279 236 Select by index;
#X msg 30 353 0;
#X msg 58 353 1;
#X msg 86 353 2;
#X msg 114 353 3;
#X msg 142 353 4;
#X msg 170 353 5;
#X obj 30 370 s \$0-drum-style-B;
#X obj 148 237 r \$0-set-drum-style-B;
#X msg 343 381 allhouse;
#X connect 1 1 17 0;
#X connect 2 0 1 0;
#X connect 3 0 1 0;
#X connect 4 0 1 1;
#X connect 6 0 15 0;
#X connect 6 0 16 0;
#X connect 7 0 1 0;
#X connect 8 0 12 0;
#X connect 9 0 12 0;
#X connect 10 0 12 0;
#X connect 11 0 12 0;
#X connect 12 0 13 0;
#X connect 14 0 12 0;
#X connect 15 0 1 0;
#X connect 16 0 1 0;
#X connect 17 0 8 0;
#X connect 17 0 19 0;
#X connect 17 1 9 0;
#X connect 17 1 20 0;
#X connect 17 2 27 0;
#X connect 17 2 21 0;
#X connect 17 3 10 0;
#X connect 17 3 22 0;
#X connect 17 4 11 0;
#X connect 17 4 23 0;
#X connect 17 5 14 0;
#X connect 17 5 24 0;
#X connect 19 0 25 0;
#X connect 20 0 25 0;
#X connect 21 0 25 0;
#X connect 22 0 25 0;
#X connect 23 0 25 0;
#X connect 24 0 25 0;
#X connect 26 0 1 0;
#X connect 27 0 12 0;
#X coords 0 -1 1 1 125 28 2 100 300;
#X restore 274 228 pd select style B;
#N canvas 375 240 796 519 select 0;
#X obj 100 300 cnv 15 125 28 empty empty empty 20 12 0 14 -33289 -66577
0;
#X obj 101 302 flatgui/popup 124 25 grey90 style_A Soul Garage House
Daft_Punk Funk HipHop;
#X floatatom 157 256 5 0 0 0 - - -, f 5;
#X msg 112 215 append append-one append-two append-three;
#X msg 62 86 bgcolour #047992;
#X symbolatom 217 279 10 0 0 0 - - -, f 10;
#X text 288 236 Select by index;
#X text 296 278 Select by symbol name;
#X obj 39 34 loadbang;
#X msg 92 113 bgcolour grey90;
#X msg 217 381 motown;
#X msg 266 380 garagehouse;
#X msg 418 380 daftpunk2;
#X msg 482 380 funkyfresh;
#X obj 470 431 symbol;
#X obj 470 450 s style-A;
#X msg 552 380 classic_hiphop;
#X msg 39 61 name style_A;
#X msg 109 139 options Soul Garage House Daft_Punk Funk HipHop;
#X obj 217 336 select Soul Garage House Daft_Punk Funk HipHop;
#X obj 157 237 r \$0-set-drum-style-A;
#X msg 39 353 0;
#X msg 67 353 1;
#X msg 95 353 2;
#X msg 123 353 3;
#X msg 151 353 4;
#X msg 179 353 5;
#X obj 39 370 s \$0-drum-style-A;
#X msg 343 381 allhouse;
#X connect 1 1 19 0;
#X connect 2 0 1 0;
#X connect 3 0 1 0;
#X connect 4 0 1 0;
#X connect 5 0 1 1;
#X connect 8 0 17 0;
#X connect 8 0 18 0;
#X connect 9 0 1 0;
#X connect 10 0 14 0;
#X connect 11 0 14 0;
#X connect 12 0 14 0;
#X connect 13 0 14 0;
#X connect 14 0 15 0;
#X connect 16 0 14 0;
#X connect 17 0 1 0;
#X connect 18 0 1 0;
#X connect 19 0 10 0;
#X connect 19 0 21 0;
#X connect 19 1 11 0;
#X connect 19 1 22 0;
#X connect 19 2 28 0;
#X connect 19 2 23 0;
#X connect 19 3 12 0;
#X connect 19 3 24 0;
#X connect 19 4 13 0;
#X connect 19 4 25 0;
#X connect 19 5 16 0;
#X connect 19 5 26 0;
#X connect 20 0 2 0;
#X connect 21 0 27 0;
#X connect 22 0 27 0;
#X connect 23 0 27 0;
#X connect 24 0 27 0;
#X connect 25 0 27 0;
#X connect 26 0 27 0;
#X connect 28 0 14 0;
#X coords 0 -1 1 1 125 28 2 100 300;
#X restore 22 228 pd select style B;
#X obj 76 271 bng 28 250 50 0 \$0-generate-seed \$0-generate-seed-set
new 1 14 1 15 -33289 -228856 -228856;
#X obj 81 20 onset16_grey hiconga;
#X obj 81 179 hradio 20 1 0 16 nos playhead empty 0 -8 0 10 -128992
-258113 -1 9;
#X obj 9 159 cnv 15 30 20 empty empty Kd 2 12 1 22 -128992 -228856
0;
#X obj 9 140 cnv 15 30 20 empty empty Sn 2 12 1 22 -128992 -228856
0;
#X obj 9 120 cnv 15 30 20 empty empty Ch 2 12 1 22 -128992 -228856
0;
#X obj 9 101 cnv 15 30 20 empty empty Oh 2 12 1 22 -128992 -228856
0;
#X obj 9 59 cnv 15 30 20 empty empty Rs 2 12 1 22 -128992 -228856 0
;
#X obj 9 80 cnv 15 30 20 empty empty Cp 2 12 1 22 -128992 -228856 0
;
#X obj 9 40 cnv 15 30 20 empty empty Lc 2 12 1 22 -128992 -228856 0
;
#X obj 9 21 cnv 15 30 20 empty empty Hc 2 12 1 22 -128992 -228856 0
;
#X obj 61 21 butt hiconga-freeze;
#X obj 343 390 bng 20 250 50 0 reset-density reset-density-set empty
17 7 0 10 -228856 -66577 -1;
#X obj 61 161 butt kick-freeze;
#X obj 61 141 butt snare-freeze;
#X obj 61 121 butt chihat-freeze;
#X obj 61 101 butt ohihat-freeze;
#X obj 61 81 butt clap-freeze;
#X obj 61 41 butt loconga-freeze;
#X obj 61 61 butt rimshot-freeze;
#X obj 23 219 bng 8 250 50 0 \$0-learn-styleA --- empty 17 7 0 10 -258113
-1 -1;
#X obj 158 219 bng 8 250 50 0 \$0-learn-crossfade --- empty 17 7 0
10 -258113 -1 -1;
#X obj 274 219 bng 8 250 50 0 \$0-learn-styleB --- empty 17 7 0 10
-258113 -1 -1;
#X obj 75 262 bng 8 250 50 0 \$0-learn-new --- empty 17 7 0 10 -258113
-1 -1;
#X obj 125 262 bng 8 250 50 0 \$0-learn-variation --- empty 17 7 0
10 -258113 -1 -1;
#X obj 316 468 bng 8 250 50 0 \$0-learn-densityhc --- empty 17 7 0
10 -258113 -1 -1;
#X obj 287 468 bng 8 250 50 0 \$0-learn-densitylc --- empty 17 7 0
10 -258113 -1 -1;
#X obj 257 467 bng 8 250 50 0 \$0-learn-densityrs --- empty 17 7 0
10 -258113 -1 -1;
#X obj 227 467 bng 8 250 50 0 \$0-learn-densitycp --- empty 17 7 0
10 -258113 -1 -1;
#X obj 197 467 bng 8 250 50 0 \$0-learn-densityoh --- empty 17 7 0
10 -258113 -1 -1;
#X obj 167 468 bng 8 250 50 0 \$0-learn-densitych --- empty 17 7 0
10 -258113 -1 -1;
#X obj 137 468 bng 8 250 50 0 \$0-learn-densitysn --- empty 17 7 0
10 -258113 -1 -1;
#X obj 106 468 bng 8 250 50 0 \$0-learn-densitykd --- empty 17 7 0
10 -258113 -1 -1;
#X obj 343 411 bng 8 250 50 0 \$0-learn-density0 --- empty 17 7 0 10
-258113 -1 -1;
#X obj 41 161 butt3 kick-mute;
#X obj 45 180 cnv 10 10 10 empty empty m 0 6 1 14 -128992 -228856 0
;
#X obj 65 180 cnv 10 5 10 empty empty a 0 6 1 14 -128992 -228856 0
;
#X obj 41 141 butt3 snare-mute;
#X obj 41 121 butt3 ch-mute;
#X obj 41 101 butt3 oh-mute;
#X obj 41 81 butt cp-mute;
#X obj 41 61 butt3 rs-mute;
#X obj 41 41 butt3 lc-mute;
#X obj 41 21 butt3 hc-mute;
#X obj 81 159 onset16_grey kick;
#X obj 81 139 onset16_grey snare;
#X obj 81 120 onset16_grey chihat;
#X obj 81 100 onset16_grey ohihat;
#X obj 81 60 onset16_grey rimshot;
#X obj 81 80 onset16_grey clap;
#X obj 81 40 onset16_grey loconga;
#N canvas 36 32 787 547 p 0;
#X obj 88 52 hradio 15 1 1 5 style-AB-order nor empty 0 -8 0 10 -262144
-1 -1 3;
#X text 85 34 order;
#X text 29 459 daniel.gomez@upf.edu;
#N canvas 483 95 549 300 pace 0;
#X obj 111 -127 f;
#X obj 155 -126 + 1;
#X obj 111 -180 t f f;
#X obj 171 -163 sel 1;
#X msg 171 -144 0;
#X obj 111 -160 metro 100;
#X obj 33 -42 s numberz16;
#X obj 33 -60 % 16;
#X obj 111 -263 r start-drumz;
#X obj 234 -251 r bpm;
#X obj 111 -103 t f f;
#X obj 316 -140 t b f;
#X obj 234 -195 + 0;
#X obj 397 -178 t f f;
#X obj 423 -144 * -1;
#X obj 316 -227 % 8;
#X obj 316 -200 moses 4;
#X obj 361 -180 - 4;
#X obj 316 -168 *;
#X obj 361 -161 *;
#X obj 111 -77 % 32;
#X obj 111 -43 s numberz32;
#X obj 230 -103 s sixteenth-time;
#N canvas 343 219 785 500 tap 0;
#X obj 244 55 timer;
#X obj 323 113 list;
#X msg 313 90 bang;
#X obj 244 113 list prepend;
#X obj 244 134 list split 1;
#X obj 278 155 route bang;
#X obj 501 315 list length;
#X obj 352 265 list split 1;
#X obj 352 305 list;
#X obj 352 285 t b f;
#X obj 433 314 +;
#X obj 335 370 f;
#X obj 433 333 /;
#X obj 458 313 f;
#X msg 448 251 0;
#X obj 335 176 t b a a b;
#X obj 244 26 t b b b b;
#X msg 320 48 stop;
#X obj 335 391 t b f;
#X msg 333 415 60000;
#X obj 344 443 /;
#X obj 244 7 inlet bang;
#X obj 347 470 outlet bpm;
#X obj 320 71 delay 2000;
#X connect 0 0 3 0;
#X connect 1 0 3 1;
#X connect 2 0 3 1;
#X connect 3 0 1 0;
#X connect 3 0 4 0;
#X connect 4 1 5 0;
#X connect 5 1 15 0;
#X connect 6 0 12 1;
#X connect 7 0 9 0;
#X connect 7 1 8 1;
#X connect 8 0 7 0;
#X connect 9 0 8 0;
#X connect 9 1 10 0;
#X connect 10 0 12 0;
#X connect 10 0 13 0;
#X connect 11 0 18 0;
#X connect 12 0 11 1;
#X connect 13 0 10 1;
#X connect 14 0 10 1;
#X connect 15 0 11 0;
#X connect 15 1 7 0;
#X connect 15 2 6 0;
#X connect 15 3 14 0;
#X connect 16 0 0 0;
#X connect 16 1 0 1;
#X connect 16 2 23 0;
#X connect 16 3 17 0;
#X connect 17 0 23 0;
#X connect 18 0 19 0;
#X connect 18 1 20 1;
#X connect 19 0 20 0;
#X connect 20 0 22 0;
#X connect 21 0 16 0;
#X connect 23 0 2 0;
#X restore 454 -212 pd tap;
#X obj 454 -193 s tap-bpm;
#X obj 454 -231 r \$0-taptempo;
#X obj 379 -240 hsl 70 15 0 5 0 0 empty empty groove 15 7 0 10 -262144
-1 -1 0 1;
#X obj 470 -151 bng 20 250 50 0 \$0-taptempo empty tap 4 9 1 10 -33289
-261234 -262144;
#X obj 234 -231 creb/bpm;
#X connect 0 0 1 0;
#X connect 0 0 10 0;
#X connect 1 0 0 1;
#X connect 2 0 5 0;
#X connect 2 1 3 0;
#X connect 3 0 4 0;
#X connect 4 0 0 1;
#X connect 5 0 0 0;
#X connect 7 0 6 0;
#X connect 8 0 2 0;
#X connect 9 0 28 0;
#X connect 10 0 7 0;
#X connect 10 0 20 0;
#X connect 10 1 15 0;
#X connect 11 0 12 0;
#X connect 11 1 12 1;
#X connect 12 0 5 1;
#X connect 12 0 22 0;
#X connect 13 0 19 1;
#X connect 13 1 14 0;
#X connect 14 0 18 1;
#X connect 15 0 16 0;
#X connect 16 0 18 0;
#X connect 16 1 17 0;
#X connect 17 0 19 0;
#X connect 18 0 11 0;
#X connect 19 0 11 0;
#X connect 20 0 21 0;
#X connect 23 0 24 0;
#X connect 25 0 23 0;
#X connect 26 0 13 0;
#X connect 28 0 12 0;
#X restore 39 51 pd pace;
#X obj 285 240 tabread \$0-random-steps;
#N canvas 619 309 450 418 list2random 0;
#X obj 75 13 inlet list;
#X obj 235 267 +;
#X obj 262 267 f;
#X msg 262 49 0;
#X obj 235 289 >=;
#X obj 149 172 list;
#X obj 149 153 t b a;
#X obj 176 219 list split 1;
#X obj 235 308 sel 1;
#X obj 235 361 symbol;
#X msg 176 200 \$2 \$1;
#X obj 75 32 t b a b b;
#X msg 109 53 2;
#X obj 92 102 list split;
#X msg 354 85 0;
#X obj 235 327 t b b;
#X obj 92 129 route bang;
#X obj 235 381 outlet;
#X obj 320 272 inlet random number;
#X connect 0 0 11 0;
#X connect 1 0 2 0;
#X connect 1 0 4 0;
#X connect 2 0 1 1;
#X connect 3 0 2 0;
#X connect 4 0 8 0;
#X connect 5 0 13 0;
#X connect 6 0 5 0;
#X connect 6 1 10 0;
#X connect 7 0 1 0;
#X connect 7 1 9 1;
#X connect 8 0 15 0;
#X connect 9 0 17 0;
#X connect 10 0 7 0;
#X connect 11 1 13 0;
#X connect 11 2 12 0;
#X connect 11 3 3 0;
#X connect 12 0 13 1;
#X connect 13 0 16 0;
#X connect 13 1 5 1;
#X connect 14 0 13 1;
#X connect 15 0 9 0;
#X connect 15 1 14 0;
#X connect 16 1 6 0;
#X connect 18 0 4 1;
#X restore 273 276 pd list2random;
#X obj 64 341 sel 0;
#X obj 37 323 t f f;
#X obj 37 397 list;
#X obj 285 221 t f f;
#X obj 279 295 pack s f;
#X msg 279 314 \$2 \$1;
#X text 293 201 this is the process;
#X obj 37 417 s \$0-index-past;
#X text 28 287 this changes continously;
#N canvas 751 123 450 350 manage-iteration 0;
#X obj 67 279 outlet step;
#X obj 67 263 nbx 5 14 0 31 0 0 nos nor empty -26 6 0 10 -262144 -1
-1 31 256;
#X obj 67 225 until;
#X msg 67 206 32;
#X obj 48 149 f;
#X obj 48 85 loadbang;
#N canvas 827 460 450 300 zexy/sum 0;
#X obj 55 15 inlet bang;
#X obj 57 89 f;
#X obj 83 89 + 1;
#X obj 61 121 outlet;
#X obj 142 21 inlet reset;
#X msg 97 56 0;
#X connect 0 0 1 0;
#X connect 1 0 2 0;
#X connect 1 0 3 0;
#X connect 2 0 1 1;
#X connect 4 0 5 0;
#X connect 5 0 1 1;
#X restore 67 244 pd zexy/sum;
#X obj 48 187 t b b b;
#X obj 48 168 change;
#X obj 64 130 r style-crossfade;
#X text 45 39 This subpatch sends 32steps at once in order to update
the pattern.;
#X obj 127 69 r sixteenth-time;
#X obj 48 105 metro;
#X obj 127 88 * 2;
#X msg 11 170 bang;
#X obj 11 11 r \$0-generate-new-pattern;
#X obj 48 300 s \$0-post-process;
#X connect 1 0 0 0;
#X connect 2 0 6 0;
#X connect 3 0 2 0;
#X connect 4 0 8 0;
#X connect 5 0 12 0;
#X connect 6 0 1 0;
#X connect 7 0 16 0;
#X connect 7 1 3 0;
#X connect 7 2 6 1;
#X connect 8 0 7 0;
#X connect 9 0 4 1;
#X connect 11 0 13 0;
#X connect 12 0 4 0;
#X connect 13 0 12 1;
#X connect 14 0 7 0;
#X connect 15 0 14 0;
#X restore 37 304 pd manage-iteration;
#X obj 273 431 s just-passed;
#X symbolatom 64 379 10 0 0 0 - - -, f 10;
#X obj 106 362 r just-passed;
#X obj 288 371 loadbang;
#X obj 273 352 list prepend;
#X msg 288 390 symbol;
#X obj 64 360 symbol;
#N canvas 217 26 917 699 event0-past 0;
#X obj 188 610 outlet step0 event;
#X obj 376 149 r style-A;
#X obj 244 168 pack f f s;
#X obj 433 171 pack f f s;
#X obj 564 150 r style-B;
#X msg 244 106 0;
#X obj 244 231 cyclone/coll firstA;
#C restore;
#X obj 433 233 cyclone/coll firstB;
#C restore;
#X obj 244 125 t f f;
#X msg 192 214 dump;
#X msg 389 216 dump;
#X msg 192 70 bang;
#X obj 433 308 cyclone/coll first-step;
#C restore;
#X msg 747 106 clear;
#N canvas 466 389 450 323 weight-and-repack 0;
#X obj 35 16 inlet args;
#X obj 158 18 inlet index;
#X obj 107 272 outlet message;
#N canvas 311 195 648 478 weight_list 0;
#X obj 50 11 inlet list;
#X obj 141 74 inlet weight;
#N canvas 826 331 450 300 drip 0;
#X obj 70 44 inlet list;
#X obj 70 63 list split 2;
#X obj 70 82 t b a;
#X obj 109 123 list;
#X obj 97 159 outlet;
#X connect 0 0 1 0;
#X connect 1 0 2 0;
#X connect 1 1 3 1;
#X connect 2 0 3 0;
#X connect 2 1 4 0;
#X connect 3 0 1 0;
#X restore 69 54 pd drip 2;
#X obj 69 74 unpack s f;
#X obj 126 93 *;
#X obj 69 110 pack s f;
#X obj 50 287 outlet;
#X obj 189 206 list;
#X obj 50 260 list;
#X obj 108 205 list prepend;
#X text 152 149 <.... here exclude an element with weight 0;
#X obj 69 129 list;
#X obj 69 167 route 0;
#X msg 69 148 \$2 \$1;
#X msg 108 186 \$2 \$1;
#X obj 50 30 t b a b b;
#X msg 356 117 bang;
#X connect 0 0 15 0;
#X connect 1 0 4 1;
#X connect 2 0 3 0;
#X connect 3 0 5 0;
#X connect 3 1 4 0;
#X connect 4 0 5 1;
#X connect 5 0 11 0;
#X connect 7 0 9 1;
#X connect 8 0 6 0;
#X connect 9 0 7 0;
#X connect 9 0 8 1;
#X connect 11 0 13 0;
#X connect 12 1 14 0;
#X connect 13 0 12 0;
#X connect 14 0 9 0;
#X connect 15 0 8 0;
#X connect 15 1 2 0;
#X connect 15 2 9 1;
#X connect 15 3 16 0;
#X connect 16 0 8 1;
#X restore 107 84 pd weight_list;
#X obj 44 64 route float;
#X obj 126 104 route order step;
#X obj 126 55 list trim;
#X obj 185 143 zexy/list2symbol;
#X msg 107 250 merge \$2 \$1;
#X obj 107 144 t s b;
#X obj 193 62 inlet crossfade;
#X obj 152 162 list;
#X obj 107 196 list append;
#X text 197 85 *******;
#X obj 31 111 route bang;
#X obj 107 124 zexy/list2symbol;
#X connect 0 0 4 0;
#X connect 1 0 6 0;
#X connect 3 0 14 0;
#X connect 4 1 3 0;
#X connect 5 2 7 0;
#X connect 6 0 5 0;
#X connect 7 0 11 1;
#X connect 8 0 2 0;
#X connect 9 0 12 0;
#X connect 9 1 11 0;
#X connect 10 0 3 1;
#X connect 11 0 12 1;
#X connect 12 0 8 0;
#X connect 14 1 15 0;
#X connect 15 0 9 0;
#X restore 433 277 pd weight-and-repack;
#X obj 558 17 r style-crossfade;
#X obj 361 239 - 1;
#X obj 361 258 abs;
#X obj 192 89 t b b b b;
#X obj 44 345 cyclone/coll first-step;
#C restore;
#X msg 44 326 length;
#X obj 155 339 tabread \$0-random-steps;
#X msg 155 320 0;
#X obj 140 362 *;
#X obj 140 400 int;
#X obj 140 381 - 0.5;
#X obj 44 303 t b b;
#X msg 44 284 bang;
#X obj 159 477 cyclone/coll first-step;
#C restore;
#X obj 159 457 until;
#X msg 224 455 end;
#X obj 140 419 + 1;
#X obj 140 438 t b f b;
#X text 127 21 compute this when: crossfade changes os styles change
or order changes;
#X text 42 262 bang to generate new;
#X obj 558 36 t b f f;
#X symbolatom 405 494 10 0 0 0 - - -, f 10;
#X obj 71 53 t b b b;
#X text 565 276 <- if an event has probability 0 then dont save it
to the cyclone/coll;
#N canvas 454 409 450 323 weight-and-repack 0;
#X obj 35 16 inlet args;
#X obj 158 18 inlet index;
#X obj 125 285 outlet message;
#N canvas 299 215 648 478 weight_list 0;
#X obj 50 11 inlet list;
#X obj 141 74 inlet weight;
#N canvas 826 331 450 300 drip 0;
#X obj 70 44 inlet list;
#X obj 70 63 list split 2;
#X obj 70 82 t b a;
#X obj 109 123 list;
#X obj 97 159 outlet;
#X connect 0 0 1 0;
#X connect 1 0 2 0;
#X connect 1 1 3 1;
#X connect 2 0 3 0;
#X connect 2 1 4 0;
#X connect 3 0 1 0;
#X restore 69 54 pd drip 2;
#X obj 69 74 unpack s f;
#X obj 126 93 *;
#X obj 69 110 pack s f;
#X obj 50 287 outlet;
#X obj 189 230 list;
#X obj 50 260 list;
#X obj 108 229 list prepend;
#X text 152 149 <.... here exclude an element with weight 0;
#X obj 69 140 list;
#X obj 69 178 route 0;
#X msg 69 159 \$2 \$1;
#X msg 108 197 \$2 \$1;
#X obj 50 30 t b a b b;
#X msg 533 104 bang;
#X connect 0 0 15 0;
#X connect 1 0 4 1;
#X connect 2 0 3 0;
#X connect 3 0 5 0;
#X connect 3 1 4 0;
#X connect 4 0 5 1;
#X connect 5 0 11 0;
#X connect 7 0 9 1;
#X connect 8 0 6 0;
#X connect 9 0 7 0;
#X connect 9 0 8 1;
#X connect 11 0 13 0;
#X connect 12 1 14 0;
#X connect 13 0 12 0;
#X connect 14 0 9 0;
#X connect 15 0 8 0;
#X connect 15 1 2 0;
#X connect 15 2 9 1;
#X connect 15 3 16 0;
#X connect 16 0 8 1;
#X restore 107 84 pd weight_list;
#X obj 35 40 route float;
#X obj 144 117 route order step;
#X obj 126 55 list trim;
#X obj 125 137 zexy/list2symbol;
#X obj 203 156 zexy/list2symbol;
#X msg 125 263 merge \$2 \$1;
#X obj 125 157 t s b;
#X obj 193 62 inlet crossfade;
#X obj 170 175 list;
#X obj 125 209 list append;
#X text 197 85 *******;
#X obj 63 109 route bang;
#X connect 0 0 4 0;
#X connect 1 0 6 0;
#X connect 3 0 15 0;
#X connect 4 1 3 0;
#X connect 5 2 8 0;
#X connect 6 0 5 0;
#X connect 7 0 10 0;
#X connect 8 0 12 1;
#X connect 9 0 2 0;
#X connect 10 0 13 0;
#X connect 10 1 12 0;
#X connect 11 0 3 1;
#X connect 12 0 13 1;
#X connect 13 0 9 0;
#X connect 15 1 7 0;
#X restore 244 279 pd weight-and-repack;
#X obj 650 61 hsl 128 15 0 1 0 0 empty empty empty -2 -8 0 10 -262144
-1 -1 0 1;
#X obj 567 359 hsl 128 15 0 1 0 0 empty empty empty -2 -8 0 10 -262144
-1 -1 0 1;
#X obj 272 149 r style-AB-order;
#X obj 461 150 r style-AB-order;
#X msg 244 187 read corpus-drums/\$3-\$2-\$1;
#X msg 433 190 read corpus-drums/\$3-\$2-\$1;
#X connect 1 0 2 2;
#X connect 2 0 44 0;
#X connect 3 0 45 0;
#X connect 4 0 3 2;
#X connect 5 0 8 0;
#X connect 6 0 39 0;
#X connect 6 1 39 1;
#X connect 7 0 14 0;
#X connect 7 1 14 1;
#X connect 8 0 2 0;
#X connect 8 1 3 0;
#X connect 9 0 6 0;
#X connect 10 0 7 0;
#X connect 11 0 18 0;
#X connect 13 0 12 0;
#X connect 14 0 12 0;
#X connect 15 0 35 0;
#X connect 16 0 17 0;
#X connect 17 0 39 2;
#X connect 18 0 9 0;
#X connect 18 1 10 0;
#X connect 18 2 5 0;
#X connect 18 3 13 0;
#X connect 19 0 23 0;
#X connect 20 0 19 0;
#X connect 21 0 23 1;
#X connect 22 0 21 0;
#X connect 23 0 25 0;
#X connect 24 0 31 0;
#X connect 25 0 24 0;
#X connect 26 0 20 0;
#X connect 26 1 22 0;
#X connect 27 0 26 0;
#X connect 28 1 36 0;
#X connect 28 1 0 0;
#X connect 29 0 28 0;
#X connect 30 0 28 0;
#X connect 31 0 32 0;
#X connect 32 1 29 0;
#X connect 32 2 30 0;
#X connect 35 0 37 0;
#X connect 35 1 16 0;
#X connect 35 2 14 2;
#X connect 37 0 27 0;
#X connect 37 2 11 0;
#X connect 39 0 12 0;
#X connect 40 0 35 0;
#X connect 41 0 16 0;
#X connect 41 0 14 2;
#X connect 42 0 2 1;
#X connect 43 0 3 1;
#X connect 44 0 6 0;
#X connect 45 0 7 0;
#X restore 100 341 pd event0-past;
#N canvas 288 106 837 650 if-zfs 0;
#X obj 63 30 inlet bang if ZFS is found;
#X obj 225 30 r \$0-index-past;
#X obj 225 50 unpack f s;
#X obj 265 233 r style-A;
#X obj 508 216 r style-B;
#X obj 208 110 f;
#X obj 208 178 t f f;
#X obj 568 27 r style-crossfade;
#X obj 628 305 f;
#X obj 568 46 t f f;
#X obj 663 273 f;
#X obj 426 236 - 1;
#X obj 426 255 abs;
#X obj 411 288 f;
#X obj 63 84 print zfs;
#X obj 208 252 pack f 0 s;
#X obj 451 235 pack f 0 s;
#X msg 84 160 bang;
#X obj 484 331 route float;
#X msg 451 271 dump;
#X obj 451 254 t b a b;
#N canvas 427 456 450 323 weightpairs 0;
#X obj 35 16 inlet args;
#X obj 116 15 inlet crossfade;
#N canvas 826 331 450 300 drip 0;
#X obj 70 44 inlet list;
#X obj 70 63 list split 2;
#X obj 70 82 t b a;
#X obj 109 123 list;
#X obj 97 159 outlet;
#X connect 0 0 1 0;
#X connect 1 0 2 0;
#X connect 1 1 3 1;
#X connect 2 0 3 0;
#X connect 2 1 4 0;
#X connect 3 0 1 0;
#X restore 92 77 pd drip 2;
#X obj 92 97 unpack s f;
#X obj 149 116 *;
#X obj 92 133 pack s f;
#X text 175 172 <.... here exclude an element with weight 0;
#X obj 92 152 list;
#X obj 92 190 route 0;
#X msg 92 171 \$2 \$1;
#X msg 131 209 \$2 \$1;
#X obj 131 256 outlet;
#X connect 0 0 2 0;
#X connect 1 0 4 1;
#X connect 2 0 3 0;
#X connect 3 0 5 0;
#X connect 3 1 4 0;
#X connect 4 0 5 1;
#X connect 5 0 7 0;
#X connect 7 0 9 0;
#X connect 8 1 10 0;
#X connect 9 0 8 0;
#X connect 10 0 11 0;
#X restore 547 351 pd weightpairs;
#X msg 732 195 clear;
#X obj 547 372 list;
#X msg 547 392 merge \$1 \$2;
#X obj 208 271 t b a b;
#X msg 208 288 dump;
#X msg 189 410 length;
#X obj 189 448 until;
#X obj 189 508 list prepend;
#X obj 189 487 zexy/sum;
#X obj 189 535 list;
#X obj 221 535 list;
#X obj 174 583 list;
#X obj 174 85 t b b b b b;
#X msg 801 188 bang;
#X obj 547 418 cyclone/coll \$0-order-zero-weighted;
#C restore;
#X obj 481 308 cyclone/coll \$0-order-zero-temp;
#C restore;
#X obj 189 429 cyclone/coll \$0-order-zero-weighted;
#C restore;
#X obj 189 467 cyclone/coll \$0-order-zero-weighted;
#C restore;
#X obj 174 603 outlet;
#X text 222 604 the output of this patch is a list of probabilities
comming from weighting the order zero of each style in this step.;
#X obj 208 149 % 32;
#X msg 278 123 0;
#X obj 208 129 + 1;
#X msg 243 288 read corpus-drums/\$3-\$2-\$1;
#X msg 484 271 read corpus-drums/\$3-\$2-\$1;
#X connect 0 0 14 0;
#X connect 0 0 34 0;
#X connect 1 0 2 0;
#X connect 2 0 5 1;
#X connect 3 0 15 2;
#X connect 4 0 16 2;
#X connect 5 0 44 0;
#X connect 6 0 15 0;
#X connect 6 1 16 0;
#X connect 7 0 9 0;
#X connect 8 0 21 1;
#X connect 9 0 11 0;
#X connect 9 1 10 1;
#X connect 10 0 8 0;
#X connect 11 0 12 0;
#X connect 12 0 13 1;
#X connect 13 0 8 0;
#X connect 15 0 25 0;
#X connect 16 0 20 0;
#X connect 17 0 34 0;
#X connect 18 1 21 0;
#X connect 19 0 37 0;
#X connect 20 0 19 0;
#X connect 20 1 46 0;
#X connect 20 2 10 0;
#X connect 21 0 23 0;
#X connect 22 0 36 0;
#X connect 22 0 37 0;
#X connect 23 0 24 0;
#X connect 24 0 36 0;
#X connect 25 0 26 0;
#X connect 25 1 45 0;
#X connect 25 2 13 0;
#X connect 26 0 37 0;
#X connect 27 0 38 0;
#X connect 28 0 39 0;
#X connect 29 0 31 0;
#X connect 30 0 29 0;
#X connect 31 0 32 0;
#X connect 31 0 33 1;
#X connect 32 0 31 1;
#X connect 33 0 40 0;
#X connect 34 0 33 0;
#X connect 34 1 27 0;
#X connect 34 2 5 0;
#X connect 34 3 22 0;
#X connect 34 4 35 0;
#X connect 35 0 31 1;
#X connect 37 0 18 0;
#X connect 38 0 28 0;
#X connect 39 0 30 0;
#X connect 39 1 29 1;
#X connect 42 0 6 0;
#X connect 43 0 5 1;
#X connect 44 0 42 0;
#X connect 45 0 37 0;
#X connect 46 0 37 0;
#X restore 192 259 pd if-zfs;
#X obj 279 333 s patt2seq;
#N canvas 414 417 450 300 bang-past-idx 0;
#X obj 72 38 t b a a;
#X obj 252 55 list split 1;
#X obj 72 119 outlet bang;
#X obj 252 119 outlet index;
#X obj 72 19 r \$0-index-past;
#X obj 144 119 outlet index past;
#X connect 0 0 2 0;
#X connect 0 1 5 0;
#X connect 0 2 1 0;
#X connect 1 0 3 0;
#X connect 4 0 0 0;
#X restore 192 202 pd bang-past-idx;
#N canvas 160 496 1054 300 set 0;
#X obj 94 182 cyclone/coll A;
#C restore;
#X obj 37 7 inlet past;
#X obj 334 29 r style-A;
#X obj 94 87 pack f f s;
#X obj 401 86 pack f f s;
#X obj 582 28 r style-B;
#X obj 401 185 cyclone/coll B;
#C restore;
#X obj 37 145 t a a;
#X obj 94 246 outlet;
#X obj 401 251 outlet;
#X obj 37 106 list trim;
#X obj 94 65 t f f;
#X msg 37 26 \$2 \$1;
#X obj 37 45 unpack s f;
#X text 79 27 past index;
#X obj 232 29 r style-AB-order;
#X obj 480 28 r style-AB-order;
#X text 237 125 --------------------------;
#X text 549 126 ------;
#X text 591 128 Read the probabilities from the appropriate style/order/step
;
#X obj 586 259 outlet;
#X obj 586 240 r style-crossfade;
#X text 696 237 receive the weight and send it to the next abstraction
;
#X text 446 185 <- select only the row that has the index of the past
;
#X msg 401 127 read corpus-drums/\$3-\$2-\$1;
#X msg 94 126 read corpus-drums/\$3-\$2-\$1;
#X connect 0 0 8 0;
#X connect 1 0 12 0;
#X connect 2 0 3 2;
#X connect 3 0 25 0;
#X connect 4 0 24 0;
#X connect 5 0 4 2;
#X connect 6 0 9 0;
#X connect 7 0 0 0;
#X connect 7 1 6 0;
#X connect 10 0 7 0;
#X connect 11 0 3 0;
#X connect 11 1 4 0;
#X connect 12 0 13 0;
#X connect 13 0 10 0;
#X connect 13 1 11 0;
#X connect 15 0 3 1;
#X connect 16 0 4 1;
#X connect 21 0 20 0;
#X connect 24 0 6 0;
#X connect 25 0 0 0;
#X restore 238 221 pd set;
#X obj 192 240 step_prob_mix3;
#N canvas 678 372 450 300 prepare-past 0;
#X obj 78 52 r \$0-index-past;
#X obj 78 71 list split 1;
#X msg 174 73 symbol;
#X obj 174 54 loadbang;
#X obj 112 90 zexy/symbol2list;
#X obj 146 128 zexy/list2symbol;
#X msg 191 111 symbol;
#X obj 191 92 loadbang;
#X obj 112 109 list split 2;
#X obj 152 190 outlet;
#X connect 0 0 1 0;
#X connect 1 1 4 0;
#X connect 2 0 4 1;
#X connect 3 0 2 0;
#X connect 4 0 8 0;
#X connect 5 0 9 0;
#X connect 6 0 5 1;
#X connect 7 0 6 0;
#X connect 8 1 5 0;
#X restore 345 333 pd prepare-past;
#N canvas 701 141 508 603 new 0;
#X msg 28 40 32;
#X obj 28 84 until;
#X obj 28 104 random 1000;
#X obj 28 125 * 0.001;
#X obj 117 163 f;
#X obj 144 164 + 1;
#X obj 28 59 t f b;
#X msg 80 76 0;
#X obj 28 146 t f b;
#N canvas 0 69 450 300 (subpatch) 0;
#X array \$0-random-steps 32 float 0;
#X coords 0 1 31 0 256 50 1 0 0;
#X restore 130 98 graph;
#X obj 28 1 inlet bang;
#X obj 68 376 iterate;
#X msg 29 340 32;
#X obj 243 412 random 100;
#X obj 243 431 * 0.01;
#X obj 68 469 clip 0 1;
#X obj 68 448 +;
#X obj 88 507 tabwrite \$0-random-steps;
#X obj 68 395 t f b f;
#X obj 88 488 pack f f;
#X obj 28 194 tabwrite \$0-random-steps-temp;
#N canvas 0 69 450 300 (subpatch) 0;
#X array \$0-random-steps-temp 32 float 0;
#X coords 0 1 31 0 256 50 1 0 0;
#X restore 130 35 graph;
#X obj 68 421 tabread \$0-random-steps-temp;
#X obj 212 323 t b f;
#X obj 239 345 * 100;
#X obj 212 226 f;
#X obj 386 225 metro 1000;
#X obj 269 169 r sixteenth-time;
#X obj 416 4 loadbang;
#X obj 48 526 s \$0-generate-new-pattern;
#X text 95 0 <- from the "new" button;
#X obj 29 357 t b b f;
#X obj 269 188 * 32;
#X obj 299 229 > 0;
#X obj 299 248 change;
#X obj 299 267 t f f;
#X obj 299 286 sel 0;
#X msg 299 306 0;
#X obj 299 188 r \$0-bbv;
#X obj 416 23 t b b;
#X obj 299 209 t f f;
#X obj 216 150 r playhead;
#X obj 216 176 sel 0;
#X obj 212 204 spigot;
#X connect 0 0 6 0;
#X connect 1 0 2 0;
#X connect 2 0 3 0;
#X connect 3 0 8 0;
#X connect 4 0 5 0;
#X connect 4 0 20 1;
#X connect 5 0 4 1;
#X connect 6 0 1 0;
#X connect 6 1 7 0;
#X connect 7 0 4 1;
#X connect 8 0 20 0;
#X connect 8 1 4 0;
#X connect 10 0 0 0;
#X connect 10 0 12 0;
#X connect 11 0 18 0;
#X connect 12 0 31 0;
#X connect 13 0 14 0;
#X connect 14 0 16 1;
#X connect 15 0 19 0;
#X connect 16 0 15 0;
#X connect 18 0 22 0;
#X connect 18 1 13 0;
#X connect 18 2 19 1;
#X connect 19 0 17 0;
#X connect 22 0 16 0;
#X connect 23 0 12 0;
#X connect 23 1 24 0;
#X connect 24 0 13 1;
#X connect 25 0 23 0;
#X connect 27 0 32 0;
#X connect 28 0 39 0;
#X connect 31 1 29 0;
#X connect 31 2 11 0;
#X connect 32 0 26 1;
#X connect 33 0 34 0;
#X connect 34 0 35 0;
#X connect 35 0 36 0;
#X connect 35 1 26 0;
#X connect 35 1 43 1;
#X connect 36 0 37 0;
#X connect 37 0 23 0;
#X connect 38 0 40 0;
#X connect 39 0 37 0;
#X connect 39 1 0 0;
#X connect 40 0 33 0;
#X connect 40 1 25 1;
#X connect 41 0 42 0;
#X connect 42 0 43 0;
#X connect 43 0 25 0;
#X restore 39 268 pd new random list;
#X text 21 443 _______________________________;
#X obj 39 249 r \$0-generate-seed;
#N canvas 0 220 1265 513 patt2sequencer 0;
#X obj 131 28 inlet;
#X obj 158 146 pack;
#X obj 307 138 pack;
#X obj 446 138 pack;
#X obj 576 138 pack;
#X obj 158 66 list split 1;
#X obj 158 102 list;
#X obj 158 121 unpack f f f f f f f f f;
#X obj 706 138 pack;
#X obj 836 138 pack;
#X obj 978 138 pack;
#X obj 1118 138 pack;
#N canvas 801 440 450 332 avoid 0;
#X obj 159 16 inlet;
#X obj 200 20 inlet;
#X obj 172 293 outlet;
#X obj 230 292 outlet;
#X obj 244 73 &;
#X obj 244 93 - 1;
#X obj 244 113 abs;
#X obj 214 44 t f f;
#X obj 157 165 spigot;
#X obj 214 165 spigot;
#X msg 244 239 0;
#X msg 271 239 1;
#X floatatom 281 160 5 0 0 0 - - -, f 5;
#X obj 244 133 t f f f;
#X obj 244 193 sel 0;
#X obj 244 213 t b b;
#X floatatom 282 74 5 0 0 0 - - -, f 5;
#X obj 157 44 t f b f;
#X obj 197 114 f;
#X connect 0 0 17 0;
#X connect 1 0 7 0;
#X connect 4 0 5 0;
#X connect 4 0 16 0;
#X connect 5 0 6 0;
#X connect 6 0 13 0;
#X connect 7 0 18 1;
#X connect 7 1 4 1;
#X connect 8 0 2 0;
#X connect 9 0 3 0;
#X connect 10 0 2 0;
#X connect 11 0 3 0;
#X connect 13 0 14 0;
#X connect 13 1 8 1;
#X connect 13 2 9 1;
#X connect 13 2 12 0;
#X connect 14 0 15 0;
#X connect 15 0 10 0;
#X connect 15 1 11 0;
#X connect 17 0 8 0;
#X connect 17 1 18 0;
#X connect 17 2 4 0;
#X connect 18 0 9 0;
#X restore 467 121 pd avoid ch&oh;
#X obj 192 85 w22l;
#X obj 158 431 table kickpattern 32;
#X obj 158 412 tabwrite kickpattern;
#X msg 158 322 \$2 \$1;
#X msg 307 338 \$2 \$1;
#X obj 307 430 table snarepattern 32;
#X obj 307 411 tabwrite snarepattern;
#X msg 446 363 \$2 \$1;
#X obj 446 404 tabwrite chpattern;
#X obj 446 422 table chpattern 32;
#X msg 576 368 \$2 \$1;
#X obj 576 405 tabwrite ohpattern;
#X obj 576 424 table ohpattern 32;
#X msg 706 371 \$2 \$1;
#X obj 706 409 tabwrite cppattern;
#X obj 706 428 table cppattern 32;
#X msg 836 372 \$2 \$1;
#X obj 836 409 tabwrite rspattern;
#X obj 836 428 table rspattern 32;
#X obj 131 489 outlet;
#X obj 131 47 t a a;
#X obj 131 451 list split 1;
#X obj 131 470 sel 31;
#X obj 164 254 s kick-allocate;
#X obj 314 254 s snare-allocate;
#X obj 582 253 s ohihat-allocate;
#X obj 452 254 s chihat-allocate;
#X obj 720 254 s clap-allocate;
#X obj 849 255 s rimshot-allocate;
#X obj 1129 255 s hiconga-allocate;
#X obj 984 255 s loconga-allocate;
#X obj 191 214 r kick-freeze;
#X obj 158 233 spigot;
#X text 22 234 freeze buttons->;
#X obj 307 233 spigot;
#X obj 340 214 r snare-freeze;
#X obj 446 233 spigot;
#X obj 479 214 r chihat-freeze;
#X obj 576 233 spigot;
#X obj 609 214 r ohihat-freeze;
#X obj 706 233 spigot;
#X obj 739 214 r clap-freeze;
#X obj 836 233 spigot;
#X obj 869 214 r rimshot-freeze;
#X obj 978 409 tabwrite lcpattern;
#X obj 978 428 table lcpattern 32;
#X obj 978 233 spigot;
#X obj 1011 214 r loconga-freeze;
#X obj 1118 409 tabwrite hcpattern;
#X obj 1118 428 table hcpattern 32;
#X obj 1118 233 spigot;
#X obj 1151 214 r hiconga-freeze;
#X msg 978 351 \$2 \$1;
#X msg 1118 337 \$2 \$1;
#X connect 0 0 33 0;
#X connect 1 0 45 0;
#X connect 2 0 47 0;
#X connect 3 0 49 0;
#X connect 4 0 51 0;
#X connect 5 0 6 0;
#X connect 5 1 13 0;
#X connect 6 0 7 0;
#X connect 7 0 1 0;
#X connect 7 0 2 0;
#X connect 7 0 3 0;
#X connect 7 0 4 0;
#X connect 7 0 8 0;
#X connect 7 0 9 0;
#X connect 7 0 10 0;
#X connect 7 0 11 0;
#X connect 7 1 1 1;
#X connect 7 2 2 1;
#X connect 7 3 12 0;
#X connect 7 4 12 1;
#X connect 7 5 8 1;
#X connect 7 6 9 1;
#X connect 7 7 10 1;
#X connect 7 8 11 1;
#X connect 8 0 53 0;
#X connect 9 0 55 0;
#X connect 10 0 59 0;
#X connect 11 0 63 0;
#X connect 12 0 3 1;
#X connect 12 1 4 1;
#X connect 13 0 6 1;
#X connect 16 0 15 0;
#X connect 17 0 19 0;
#X connect 20 0 21 0;
#X connect 23 0 24 0;
#X connect 26 0 27 0;
#X connect 29 0 30 0;
#X connect 33 0 34 0;
#X connect 33 1 5 0;
#X connect 34 0 35 0;
#X connect 35 0 32 0;
#X connect 44 0 45 1;
#X connect 45 0 36 0;
#X connect 45 0 16 0;
#X connect 47 0 37 0;
#X connect 47 0 17 0;
#X connect 48 0 47 1;
#X connect 49 0 20 0;
#X connect 49 0 39 0;
#X connect 50 0 49 1;
#X connect 51 0 23 0;
#X connect 51 0 38 0;
#X connect 52 0 51 1;
#X connect 53 0 40 0;
#X connect 53 0 26 0;
#X connect 54 0 53 1;
#X connect 55 0 41 0;
#X connect 55 0 29 0;
#X connect 56 0 55 1;
#X connect 59 0 43 0;
#X connect 59 0 65 0;
#X connect 60 0 59 1;
#X connect 63 0 42 0;
#X connect 63 0 66 0;
#X connect 64 0 63 1;
#X connect 65 0 57 0;
#X connect 66 0 61 0;
#X restore 39 148 pd patt2sequencer;
#N canvas 0 74 1280 570 agnostic-density 0;
#X obj 49 263 populate_rhythm;
#X obj 49 186 zexy/tabdump kickpattern;
#X obj 49 224 zexy/sum;
#X obj 49 244 +;
#X obj 138 2 inlet;
#X obj 138 21 t b b b b b b b b;
#X obj 49 86 * 16;
#X obj 49 167 t b f;
#X obj 49 205 t a b a;
#X obj 69 144 sel 0;
#X obj 69 125 f;
#X obj 49 105 t f f;
#X obj 188 223 zexy/sum;
#X obj 188 243 +;
#X obj 188 85 * 16;
#X obj 188 166 t b f;
#X obj 188 204 t a b a;
#X obj 208 143 sel 0;
#X obj 208 124 f;
#X obj 188 104 t f f;
#X obj 188 185 zexy/tabdump snarepattern;
#X obj 320 222 zexy/sum;
#X obj 320 242 +;
#X obj 320 84 * 16;
#X obj 320 165 t b f;
#X obj 320 203 t a b a;
#X obj 340 142 sel 0;
#X obj 340 123 f;
#X obj 320 103 t f f;
#X obj 320 184 zexy/tabdump chpattern;
#X obj 445 224 zexy/sum;
#X obj 445 244 +;
#X obj 445 86 * 16;
#X obj 445 167 t b f;
#X obj 445 205 t a b a;
#X obj 465 144 sel 0;
#X obj 465 125 f;
#X obj 445 105 t f f;
#X obj 445 186 zexy/tabdump ohpattern;
#X obj 578 225 zexy/sum;
#X obj 578 245 +;
#X obj 578 87 * 16;
#X obj 578 168 t b f;
#X obj 578 206 t a b a;
#X obj 598 145 sel 0;
#X obj 598 126 f;
#X obj 578 106 t f f;
#X obj 578 187 zexy/tabdump cppattern;
#X obj 704 224 zexy/sum;
#X obj 704 244 +;
#X obj 704 86 * 16;
#X obj 704 167 t b f;
#X obj 704 205 t a b a;
#X obj 724 144 sel 0;
#X obj 724 125 f;
#X obj 704 105 t f f;
#X obj 704 186 zexy/tabdump rspattern;
#X obj 49 46 r \$0-kickD;
#X obj 188 49 r \$0-snareD;
#X obj 320 45 r \$0-chD;
#X obj 445 24 r \$0-ohD;
#X obj 578 18 r \$0-cpD;
#X obj 704 21 r \$0-rsD;
#X obj 849 33 r \$0-lcD;
#X obj 993 32 r \$0-hcD;
#X obj 849 224 zexy/sum;
#X obj 849 244 +;
#X obj 849 86 * 16;
#X obj 849 167 t b f;
#X obj 849 205 t a b a;
#X obj 869 144 sel 0;
#X obj 869 125 f;
#X obj 849 105 t f f;
#X obj 849 186 zexy/tabdump lcpattern;
#X obj 993 224 zexy/sum;
#X obj 993 244 +;
#X obj 993 86 * 16;
#X obj 993 167 t b f;
#X obj 993 205 t a b a;
#X obj 1013 144 sel 0;
#X obj 1013 125 f;
#X obj 993 105 t f f;
#X obj 993 186 zexy/tabdump hcpattern;
#X obj 49 283 s kick-string;
#X obj 188 281 s snare-string;
#X obj 320 280 s chihat-string;
#X obj 445 282 s ohihat-string;
#X obj 578 283 s clap-string;
#X obj 704 282 s rimshot-string;
#X obj 849 282 s loconga-string;
#X obj 993 282 s hiconga-string;
#X obj 1130 222 s \$0-kickD-set;
#X msg 1130 127 0;
#X obj 1130 241 s \$0-snareD-set;
#X obj 1130 260 s \$0-chD-set;
#X obj 1130 279 s \$0-ohD-set;
#X obj 1130 146 s \$0-rsD-set;
#X obj 1130 165 s \$0-cpD-set;
#X obj 1130 184 s \$0-lcD-set;
#X obj 1130 203 s \$0-hcD-set;
#X obj 1130 105 r reset-density;
#X obj 1130 68 loadbang;
#X obj 49 65 change;
#X obj 188 66 change;
#X obj 320 64 change;
#X obj 445 46 change;
#X obj 579 50 change;
#X obj 704 51 change;
#X obj 849 57 change;
#X obj 992 58 change;
#X obj 188 262 populate_rhythm;
#X obj 320 261 populate_rhythm;
#X obj 445 263 populate_rhythm;
#X obj 578 264 populate_rhythm;
#X obj 704 263 populate_rhythm;
#X obj 849 263 populate_rhythm;
#X obj 993 263 populate_rhythm;
#X obj 813 319 r reset-density;
#X msg 813 345 0;
#X obj 865 361 oscformat d_kd;
#X obj 801 507 s to-osc-gui;
#X obj 875 381 oscformat d_sn;
#X obj 885 401 oscformat d_ch;
#X obj 895 421 oscformat d_oh;
#X obj 905 441 oscformat d_cp;
#X obj 915 461 oscformat d_rs;
#X obj 925 481 oscformat d_lc;
#X obj 935 501 oscformat d_hc;
#X connect 0 0 83 0;
#X connect 1 0 8 0;
#X connect 2 0 3 0;
#X connect 3 0 0 0;
#X connect 4 0 5 0;
#X connect 5 0 10 0;
#X connect 5 1 18 0;
#X connect 5 2 27 0;
#X connect 5 3 36 0;
#X connect 5 4 45 0;
#X connect 5 5 54 0;
#X connect 5 6 71 0;
#X connect 5 7 80 0;
#X connect 6 0 11 0;
#X connect 7 0 1 0;
#X connect 7 1 3 1;
#X connect 8 0 2 0;
#X connect 8 2 0 1;
#X connect 9 1 7 0;
#X connect 10 0 9 0;
#X connect 11 0 7 0;
#X connect 11 1 10 1;
#X connect 12 0 13 0;
#X connect 13 0 110 0;
#X connect 14 0 19 0;
#X connect 15 0 20 0;
#X connect 15 1 13 1;
#X connect 16 0 12 0;
#X connect 16 2 110 1;
#X connect 17 1 15 0;
#X connect 18 0 17 0;
#X connect 19 0 15 0;
#X connect 19 1 18 1;
#X connect 20 0 16 0;
#X connect 21 0 22 0;
#X connect 22 0 111 0;
#X connect 23 0 28 0;
#X connect 24 0 29 0;
#X connect 24 1 22 1;
#X connect 25 0 21 0;
#X connect 25 2 111 1;
#X connect 26 1 24 0;
#X connect 27 0 26 0;
#X connect 28 0 24 0;
#X connect 28 1 27 1;
#X connect 29 0 25 0;
#X connect 30 0 31 0;
#X connect 31 0 112 0;
#X connect 32 0 37 0;
#X connect 33 0 38 0;
#X connect 33 1 31 1;
#X connect 34 0 30 0;
#X connect 34 2 112 1;
#X connect 35 1 33 0;
#X connect 36 0 35 0;
#X connect 37 0 33 0;
#X connect 37 1 36 1;
#X connect 38 0 34 0;
#X connect 39 0 40 0;
#X connect 40 0 113 0;
#X connect 41 0 46 0;
#X connect 42 0 47 0;
#X connect 42 1 40 1;
#X connect 43 0 39 0;
#X connect 43 2 113 1;
#X connect 44 1 42 0;
#X connect 45 0 44 0;
#X connect 46 0 42 0;
#X connect 46 1 45 1;
#X connect 47 0 43 0;
#X connect 48 0 49 0;
#X connect 49 0 114 0;
#X connect 50 0 55 0;
#X connect 51 0 56 0;
#X connect 51 1 49 1;
#X connect 52 0 48 0;
#X connect 52 2 114 1;
#X connect 53 1 51 0;
#X connect 54 0 53 0;
#X connect 55 0 51 0;
#X connect 55 1 54 1;
#X connect 56 0 52 0;
#X connect 57 0 102 0;
#X connect 58 0 103 0;
#X connect 59 0 104 0;
#X connect 60 0 105 0;
#X connect 61 0 106 0;
#X connect 62 0 107 0;
#X connect 63 0 108 0;
#X connect 64 0 109 0;
#X connect 65 0 66 0;
#X connect 66 0 115 0;
#X connect 67 0 72 0;
#X connect 68 0 73 0;
#X connect 68 1 66 1;
#X connect 69 0 65 0;
#X connect 69 2 115 1;
#X connect 70 1 68 0;
#X connect 71 0 70 0;
#X connect 72 0 68 0;
#X connect 72 1 71 1;
#X connect 73 0 69 0;
#X connect 74 0 75 0;
#X connect 75 0 116 0;
#X connect 76 0 81 0;
#X connect 77 0 82 0;
#X connect 77 1 75 1;
#X connect 78 0 74 0;
#X connect 78 2 116 1;
#X connect 79 1 77 0;
#X connect 80 0 79 0;
#X connect 81 0 77 0;
#X connect 81 1 80 1;
#X connect 82 0 78 0;
#X connect 92 0 91 0;
#X connect 92 0 93 0;
#X connect 92 0 94 0;
#X connect 92 0 95 0;
#X connect 92 0 96 0;
#X connect 92 0 97 0;
#X connect 92 0 98 0;
#X connect 92 0 99 0;
#X connect 100 0 92 0;
#X connect 101 0 92 0;
#X connect 102 0 6 0;
#X connect 103 0 14 0;
#X connect 104 0 23 0;
#X connect 105 0 32 0;
#X connect 106 0 41 0;
#X connect 107 0 50 0;
#X connect 108 0 67 0;
#X connect 109 0 76 0;
#X connect 110 0 84 0;
#X connect 111 0 85 0;
#X connect 112 0 86 0;
#X connect 113 0 87 0;
#X connect 114 0 88 0;
#X connect 115 0 89 0;
#X connect 116 0 90 0;
#X connect 117 0 118 0;
#X connect 118 0 119 0;
#X connect 118 0 121 0;
#X connect 118 0 122 0;
#X connect 118 0 123 0;
#X connect 118 0 124 0;
#X connect 118 0 125 0;
#X connect 118 0 126 0;
#X connect 118 0 127 0;
#X connect 119 0 120 0;
#X connect 121 0 120 0;
#X connect 122 0 120 0;
#X connect 123 0 120 0;
#X connect 124 0 120 0;
#X connect 125 0 120 0;
#X connect 126 0 120 0;
#X connect 127 0 120 0;
#X restore 39 167 pd agnostic-density;
#X obj 39 128 r patt2seq;
#X obj 462 52 r save;
#X obj 510 110 tabwrite \$0-savings;
#X msg 462 71 \$2 \$1;
#X obj 606 52 table \$0-savings 16;
#N canvas 285 326 788 473 load-pattern-to-grid 0;
#X obj 11 10 inlet pattern index;
#X obj 6 293 list split 1;
#X obj 70 311 list;
#X obj 45 356 f;
#X obj 70 356 + 1;
#X msg 177 84 0;
#X obj 25 377 pack s f;
#X obj 6 312 t b a b;
#X msg 25 396 \$2 \$1;
#X obj 25 415 s patt2seq;
#X obj 38 48 route 2;
#X obj 221 163 cyclone/coll \$0-loaded-from-savings;
#C restore;
#X obj 221 104 list prepend loaded;
#X obj 221 123 list prepend store;
#X text 219 85 save what is loaded by the memory on this cyclone/coll
;
#X obj 221 142 list trim;
#X obj 38 87 cyclone/coll \$0-saved-patterns;
#C restore;
#X obj 38 165 list split 32;
#X text 48 264 pattern;
#X obj 239 260 list split 1;
#X obj 273 355 s \$0-set-drum-style-A;
#X obj 273 279 list split 1;
#X obj 307 336 s \$0-set-drum-style-B;
#X obj 239 374 s \$0-set-style-crossfade;
#X obj 307 298 list split 1;
#X obj 205 222 list split 8;
#N canvas 603 505 406 228 set 0;
#X obj 89 26 inlet;
#X obj 89 45 unpack f f f f f f f f;
#X obj 218 65 s set-hiconga-freeze;
#X obj 199 84 s set-loconga-freeze;
#X obj 181 103 s set-rimshot-freeze;
#X obj 162 122 s set-clap-freeze;
#X obj 144 141 s set-ohihat-freeze;
#X obj 125 160 s set-chihat-freeze;
#X obj 107 179 s set-snare-freeze;
#X obj 89 198 s set-kick-freeze;
#X connect 0 0 1 0;
#X connect 1 0 9 0;
#X connect 1 1 8 0;
#X connect 1 2 7 0;
#X connect 1 3 6 0;
#X connect 1 4 5 0;
#X connect 1 5 4 0;
#X connect 1 6 3 0;
#X connect 1 7 2 0;
#X restore 205 241 pd set freeze;
#N canvas 656 492 450 300 set 0;
#X obj 42 26 inlet;
#X obj 42 45 unpack f f f f f f f f;
#X obj 171 65 s \$0-hcD-set;
#X obj 152 84 s \$0-lcD-set;
#X obj 134 103 s \$0-rsD-set;
#X obj 115 123 s \$0-cpD-set;
#X obj 97 141 s \$0-ohD-set;
#X obj 78 160 s \$0-chD-set;
#X obj 42 198 s \$0-kickD-set;
#X obj 60 179 s \$0-snareD-set;
#X connect 0 0 1 0;
#X connect 1 0 8 0;
#X connect 1 1 9 0;
#X connect 1 2 7 0;
#X connect 1 3 6 0;
#X connect 1 4 5 0;
#X connect 1 5 4 0;
#X connect 1 6 3 0;
#X connect 1 7 2 0;
#X restore 468 409 pd set density;
#X text 285 202 freeze (8) crossfade stylea styleb density (8);
#X obj 99 423 s \$0-generate-new-pattern;
#X obj 11 29 t b a;
#X obj 38 185 t a b;
#X obj 17 240 list;
#X obj 555 84 s \$0-block-awhile;
#X obj 468 390 list;
#X obj 65 205 t b b b b;
#X obj 8 262 t b a;
#X obj 8 445 s \$0-unblock;
#X obj 38 67 t f b b;
#X obj 468 370 delay 10;
#X obj 74 234 delay 200;
#X connect 0 0 30 0;
#X connect 1 0 7 0;
#X connect 1 1 2 1;
#X connect 2 0 1 0;
#X connect 3 0 4 0;
#X connect 3 0 6 1;
#X connect 4 0 3 1;
#X connect 5 0 3 1;
#X connect 6 0 8 0;
#X connect 7 0 2 0;
#X connect 7 1 6 0;
#X connect 7 2 3 0;
#X connect 8 0 9 0;
#X connect 10 0 38 0;
#X connect 12 0 13 0;
#X connect 13 0 15 0;
#X connect 15 0 11 0;
#X connect 16 0 12 0;
#X connect 16 0 17 0;
#X connect 17 0 31 0;
#X connect 17 1 25 0;
#X connect 19 0 23 0;
#X connect 19 1 21 0;
#X connect 21 0 20 0;
#X connect 21 1 24 0;
#X connect 24 0 22 0;
#X connect 24 1 34 1;
#X connect 25 1 19 0;
#X connect 30 1 10 0;
#X connect 31 0 32 1;
#X connect 31 1 35 0;
#X connect 32 0 36 0;
#X connect 34 0 27 0;
#X connect 35 1 40 0;
#X connect 35 3 39 0;
#X connect 36 0 37 0;
#X connect 36 1 1 0;
#X connect 38 0 16 0;
#X connect 38 1 5 0;
#X connect 38 2 33 0;
#X connect 39 0 34 0;
#X connect 40 0 32 0;
#X restore 481 149 pd load-pattern-to-grid;
#N canvas 65 128 857 467 save-pattern 0;
#X obj 102 90 sel 1;
#X obj 102 71 unpack f f;
#X obj 102 131 t f b;
#X obj 102 180 list;
#X obj 235 337 list prepend store;
#X obj 235 356 list trim;
#X obj 102 111 f;
#X obj 75 33 inlet pair;
#X text 157 84 only save if previously empty;
#X obj 235 375 cyclone/coll \$0-saved-patterns;
#C restore;
#X obj 483 197 r \$0-drum-style-A;
#X obj 590 197 r \$0-drum-style-B;
#X text 269 148 Here we receive:;
#X text 567 180 styles;
#X text 378 181 crossfade value;
#X obj 373 197 r style-crossfade;
#X text 280 179 freeze values;
#N canvas 43 309 788 168 freezevector 0;
#X obj 665 14 r hiconga-freeze;
#X obj 564 14 r loconga-freeze;
#X obj 481 14 r clap-freeze;
#X obj 380 14 r rimshot-freeze;
#X obj 285 14 r ohihat-freeze;
#X obj 190 14 r chihat-freeze;
#X obj 101 14 r snare-freeze;
#X obj 18 14 r kick-freeze;
#X obj 18 31 pack f f f f f f f f;
#X msg 142 31 bang;
#X obj 18 130 outlet;
#X obj 31 82 loadbang;
#X msg 31 101 1 1 1 1 1 1 1 1;
#X connect 0 0 8 7;
#X connect 0 0 9 0;
#X connect 1 0 8 6;
#X connect 1 0 9 0;
#X connect 2 0 8 5;
#X connect 2 0 9 0;
#X connect 3 0 8 4;
#X connect 3 0 9 0;
#X connect 4 0 8 3;
#X connect 4 0 9 0;
#X connect 5 0 8 2;
#X connect 5 0 9 0;
#X connect 6 0 8 1;
#X connect 6 0 9 0;
#X connect 7 0 8 0;
#X connect 8 0 10 0;
#X connect 9 0 8 0;
#X connect 11 0 12 0;
#X connect 12 0 10 0;
#X restore 277 197 pd freezevector;
#N canvas 0 117 528 202 densityvector 0;
#X obj 446 18 r \$0-hcD;
#X obj 393 18 r \$0-lcD;
#X obj 340 18 r \$0-rsD;
#X obj 287 18 r \$0-cpD;
#X obj 234 18 r \$0-ohD;
#X obj 181 18 r \$0-chD;
#X obj 45 18 r \$0-kickD;
#X obj 110 18 r \$0-snareD;
#X obj 45 35 pack f f f f f f f f;
#X msg 169 35 bang;
#X obj 45 134 outlet;
#X obj 58 86 loadbang;
#X msg 58 105 0 0 0 0 0 0 0 0;
#X connect 0 0 9 0;
#X connect 0 0 8 7;
#X connect 1 0 9 0;
#X connect 1 0 8 6;
#X connect 2 0 9 0;
#X connect 2 0 8 5;
#X connect 3 0 9 0;
#X connect 3 0 8 4;
#X connect 4 0 9 0;
#X connect 4 0 8 3;
#X connect 5 0 9 0;
#X connect 5 0 8 2;
#X connect 6 0 8 0;
#X connect 7 0 9 0;
#X connect 7 0 8 1;
#X connect 8 0 10 0;
#X connect 9 0 8 0;
#X connect 11 0 12 0;
#X connect 12 0 10 0;
#X restore 697 197 pd densityvector;
#X text 700 178 density values;
#X obj 256 280 list append;
#X obj 256 299 list append;
#X obj 235 318 list;
#X obj 358 236 f 0;
#X obj 393 236 f 1;
#X obj 319 236 f 0.5;
#X obj 319 253 pack f f f;
#X obj 102 202 t a b b b;
#X obj 676 219 list;
#X obj 256 219 list;
#X obj 319 219 t b b b;
#X text 396 147 freeze (8) crossfade stylea styleb density (8);
#X obj 75 52 t b a;
#N canvas 779 335 491 437 postprocess 0;
#X obj 86 275 tabread;
#X msg 86 159 hiconga \, loconga \, rimshot \, clap \, ohihat \, chihat
\, snare \, kick;
#X obj 86 178 symbol \$1;
#X obj 86 216 t b a;
#X obj 86 247 f;
#X obj 52 91 iterate;
#X msg 33 53 32;
#X obj 158 296 list;
#X obj 67 315 list;
#X obj 86 296 list append;
#N canvas 214 156 653 404 l2w2 0;
#X obj 107 77 list split 4;
#X obj 141 124 list split 4;
#X obj 122 284 zexy/list2symbol;
#X obj 313 228 loadbang;
#X msg 313 247 symbol;
#N canvas 577 285 675 467 p42s 0;
#X obj 223 143 +;
#X obj 209 171 +;
#X obj 198 195 +;
#X obj 169 72 unpack f f f f;
#X obj 198 214 sel 0 1 2 3 4 5 6 7 8 9 10 11 12 13 14 15;
#X msg 92 284 a;
#X msg 120 284 b;
#X msg 147 285 c;
#X msg 172 286 d;
#X msg 198 286 e;
#X msg 227 285 f;
#X msg 255 284 g;
#X msg 282 284 h;
#X msg 310 283 i;
#X msg 339 284 j;
#X msg 366 284 k;
#X msg 394 285 l;
#X msg 421 285 m;
#X msg 446 286 n;
#X msg 474 286 o;
#X msg 500 286 p;
#X obj 169 54 inlet;
#X obj 430 337 symbol;
#X obj 429 367 outlet;
#X obj 169 161 * 1;
#X obj 188 138 * 2;
#X obj 206 119 * 4;
#X obj 225 100 * 8;
#X connect 0 0 1 1;
#X connect 1 0 2 1;
#X connect 2 0 4 0;
#X connect 3 0 24 0;
#X connect 3 1 25 0;
#X connect 3 2 26 0;
#X connect 3 3 27 0;
#X connect 4 0 5 0;
#X connect 4 1 6 0;
#X connect 4 2 7 0;
#X connect 4 3 8 0;
#X connect 4 4 9 0;
#X connect 4 5 10 0;
#X connect 4 6 11 0;
#X connect 4 7 12 0;
#X connect 4 8 13 0;
#X connect 4 9 14 0;
#X connect 4 10 15 0;
#X connect 4 11 16 0;
#X connect 4 12 17 0;
#X connect 4 13 18 0;
#X connect 4 14 19 0;
#X connect 4 15 20 0;
#X connect 5 0 22 0;
#X connect 6 0 22 0;
#X connect 7 0 22 0;
#X connect 8 0 22 0;
#X connect 9 0 22 0;
#X connect 10 0 22 0;
#X connect 11 0 22 0;
#X connect 12 0 22 0;
#X connect 13 0 22 0;
#X connect 14 0 22 0;
#X connect 15 0 22 0;
#X connect 16 0 22 0;
#X connect 17 0 22 0;
#X connect 18 0 22 0;
#X connect 19 0 22 0;
#X connect 20 0 22 0;
#X connect 21 0 3 0;
#X connect 22 0 23 0;
#X connect 24 0 2 0;
#X connect 25 0 1 0;
#X connect 26 0 0 0;
#X connect 27 0 0 1;
#X restore 107 99 pd p42s;
#N canvas 583 289 658 372 p42s 0;
#X obj 223 143 +;
#X obj 209 171 +;
#X obj 198 195 +;
#X obj 169 72 unpack f f f f;
#X obj 198 214 sel 0 1 2 3 4 5 6 7 8 9 10 11 12 13 14 15;
#X msg 68 251 a;
#X msg 96 251 b;
#X msg 123 252 c;
#X msg 148 253 d;
#X msg 174 253 e;
#X msg 203 252 f;
#X msg 231 251 g;
#X msg 258 251 h;
#X msg 286 250 i;
#X msg 315 251 j;
#X msg 342 251 k;
#X msg 370 252 l;
#X msg 397 252 m;
#X msg 422 253 n;
#X msg 450 253 o;
#X msg 476 253 p;
#X obj 169 54 inlet;
#X obj 406 304 symbol;
#X obj 405 334 outlet;
#X obj 169 161 * 1;
#X obj 188 138 * 2;
#X obj 206 119 * 4;
#X obj 225 100 * 8;
#X connect 0 0 1 1;
#X connect 1 0 2 1;
#X connect 2 0 4 0;
#X connect 3 0 24 0;
#X connect 3 1 25 0;
#X connect 3 2 26 0;
#X connect 3 3 27 0;
#X connect 4 0 5 0;
#X connect 4 1 6 0;
#X connect 4 2 7 0;
#X connect 4 3 8 0;
#X connect 4 4 9 0;
#X connect 4 5 10 0;
#X connect 4 6 11 0;
#X connect 4 7 12 0;
#X connect 4 8 13 0;
#X connect 4 9 14 0;
#X connect 4 10 15 0;
#X connect 4 11 16 0;
#X connect 4 12 17 0;
#X connect 4 13 18 0;
#X connect 4 14 19 0;
#X connect 4 15 20 0;
#X connect 5 0 22 0;
#X connect 6 0 22 0;
#X connect 7 0 22 0;
#X connect 8 0 22 0;
#X connect 9 0 22 0;
#X connect 10 0 22 0;
#X connect 11 0 22 0;
#X connect 12 0 22 0;
#X connect 13 0 22 0;
#X connect 14 0 22 0;
#X connect 15 0 22 0;
#X connect 16 0 22 0;
#X connect 17 0 22 0;
#X connect 18 0 22 0;
#X connect 19 0 22 0;
#X connect 20 0 22 0;
#X connect 21 0 3 0;
#X connect 22 0 23 0;
#X connect 24 0 2 0;
#X connect 25 0 1 0;
#X connect 26 0 0 0;
#X connect 27 0 0 1;
#X restore 141 149 pd p42s;
#X obj 88 14 inlet;
#X obj 122 303 outlet;
#X msg 369 130 symbol a;
#X text 273 19 convert an 8 element binary list into two letters;
#X text 252 285 the two letters are cyclone/collapsed into one single
symbol;
#X obj 88 242 pack s s s;
#X obj 88 38 t b a b;
#X obj 88 261 list split 1;
#X obj 369 55 list length;
#X connect 0 0 5 0;
#X connect 0 1 1 0;
#X connect 1 0 6 0;
#X connect 2 0 8 0;
#X connect 3 0 4 0;
#X connect 4 0 2 1;
#X connect 5 0 12 1;
#X connect 6 0 12 2;
#X connect 7 0 13 0;
#X connect 9 0 12 2;
#X connect 9 0 12 1;
#X connect 12 0 14 0;
#X connect 13 0 12 0;
#X connect 13 1 0 0;
#X connect 13 2 15 0;
#X connect 14 1 2 0;
#X connect 15 0 9 0;
#X restore 67 334 pd l2w2;
#X obj 52 110 + 1;
#X text 128 13 1 convert the pattern to a list of symbols;
#X obj 145 354 list;
#X obj 33 371 list;
#X obj 33 72 t b f b;
#X obj 67 354 list prepend;
#X text 127 28 At least we want to have a string version of the crossfaded
pattern.;
#X msg 86 197 set \$1;
#X obj 33 33 inlet;
#X obj 33 390 outlet;
#X obj 52 130 t b b b f b;
#X connect 0 0 9 0;
#X connect 1 0 2 0;
#X connect 2 0 18 0;
#X connect 3 0 4 0;
#X connect 3 1 0 0;
#X connect 4 0 0 0;
#X connect 5 0 11 0;
#X connect 6 0 15 0;
#X connect 7 0 9 1;
#X connect 8 0 10 0;
#X connect 9 0 7 0;
#X connect 9 0 8 1;
#X connect 10 0 16 0;
#X connect 11 0 21 0;
#X connect 13 0 16 1;
#X connect 14 0 20 0;
#X connect 15 0 14 0;
#X connect 15 1 5 0;
#X connect 15 2 16 1;
#X connect 16 0 13 0;
#X connect 16 0 14 1;
#X connect 18 0 3 0;
#X connect 19 0 6 0;
#X connect 21 1 8 0;
#X connect 21 2 1 0;
#X connect 21 3 4 1;
#X connect 21 4 9 1;
#X restore 129 155 pd postprocess grid;
#X msg 35 338 write ./pd-user/memory-drDrums;
#X connect 0 0 6 0;
#X connect 1 0 0 0;
#X connect 1 1 6 1;
#X connect 2 0 3 0;
#X connect 2 1 33 0;
#X connect 3 0 27 0;
#X connect 4 0 5 0;
#X connect 5 0 9 0;
#X connect 6 0 2 0;
#X connect 7 0 32 0;
#X connect 10 0 23 1;
#X connect 11 0 24 1;
#X connect 15 0 25 1;
#X connect 17 0 29 1;
#X connect 18 0 28 1;
#X connect 20 0 21 0;
#X connect 21 0 22 1;
#X connect 22 0 4 0;
#X connect 23 0 26 1;
#X connect 24 0 26 2;
#X connect 25 0 26 0;
#X connect 26 0 20 1;
#X connect 27 0 22 0;
#X connect 27 1 29 0;
#X connect 27 2 30 0;
#X connect 27 3 28 0;
#X connect 28 0 21 1;
#X connect 29 0 20 0;
#X connect 30 0 25 0;
#X connect 30 1 23 0;
#X connect 30 2 24 0;
#X connect 32 0 34 0;
#X connect 32 1 1 0;
#X connect 33 0 3 1;
#X connect 34 0 9 0;
#X restore 501 130 pd save-pattern;
#N canvas 340 387 450 349 change-highlight 0;
#X obj 33 13 inlet;
#X obj 33 34 route 2;
#X obj 33 111 until;
#X obj 33 130 f;
#X obj 62 129 + 1;
#X msg 80 109 0;
#X obj 33 149 + 1;
#X obj 33 92 t f b b;
#X msg 33 73 16;
#X obj 33 169 sel;
#X obj 33 54 t b f;
#X msg 48 266 \; save\$1 1;
#X obj 48 209 tabread \$0-savings;
#X obj 48 189 t f f;
#X obj 48 228 sel 2;
#X obj 48 247 f;
#X connect 0 0 1 0;
#X connect 1 0 10 0;
#X connect 2 0 3 0;
#X connect 3 0 4 0;
#X connect 3 0 6 0;
#X connect 4 0 3 1;
#X connect 5 0 3 1;
#X connect 6 0 9 0;
#X connect 7 0 2 0;
#X connect 7 1 5 0;
#X connect 8 0 7 0;
#X connect 9 1 13 0;
#X connect 10 0 8 0;
#X connect 10 1 9 1;
#X connect 12 0 14 0;
#X connect 13 0 12 0;
#X connect 13 1 15 1;
#X connect 14 0 15 0;
#X connect 15 0 11 0;
#X restore 462 168 pd change-highlight;
#X msg 153 324 27;
#N canvas 731 309 416 311 empty-savings 0;
#X obj 204 118 until;
#X obj 204 153 f;
#X obj 233 152 + 1;
#X msg 251 116 0;
#X obj 204 172 + 1;
#X obj 204 191 t f b;
#X msg 231 210 0;
#X obj 204 230 pack;
#X msg 204 249 \; save\$1 \$2;
#X text 240 58 reset;
#X msg 15 170 clear;
#X obj 204 27 r \$0-clear-all-savings;
#X msg 281 158 \; \$1-savings const 0;
#X obj 281 138 \$0;
#X msg 281 114 bang;
#X obj 204 82 t f b b;
#X obj 15 191 cyclone/coll \$0-saved-patterns;
#C restore;
#X msg 204 63 6;
#X connect 0 0 1 0;
#X connect 1 0 2 0;
#X connect 1 0 4 0;
#X connect 2 0 1 1;
#X connect 3 0 1 1;
#X connect 4 0 5 0;
#X connect 5 0 7 0;
#X connect 5 1 6 0;
#X connect 6 0 7 1;
#X connect 7 0 8 0;
#X connect 10 0 16 0;
#X connect 11 0 17 0;
#X connect 13 0 12 0;
#X connect 14 0 13 0;
#X connect 15 0 0 0;
#X connect 15 1 3 0;
#X connect 15 2 14 0;
#X connect 17 0 10 0;
#X connect 17 0 15 0;
#X restore 504 52 pd empty-savings;
#N canvas 656 252 535 437 postprocess 0;
#X obj 86 275 tabread;
#X msg 86 159 hiconga \, loconga \, rimshot \, clap \, ohihat \, chihat
\, snare \, kick;
#X obj 86 178 symbol \$1;
#X obj 86 216 t b a;
#X obj 86 247 f;
#X obj 52 91 iterate;
#X msg 33 53 32;
#X obj 158 296 list;
#X obj 67 315 list;
#X obj 86 296 list append;
#N canvas 214 156 653 404 l2w2 0;
#X obj 107 77 list split 4;
#X obj 141 124 list split 4;
#X obj 122 284 zexy/list2symbol;
#X obj 313 228 loadbang;
#X msg 313 247 symbol;
#N canvas 577 285 675 467 p42s 0;
#X obj 223 143 +;
#X obj 209 171 +;
#X obj 198 195 +;
#X obj 169 72 unpack f f f f;
#X obj 198 214 sel 0 1 2 3 4 5 6 7 8 9 10 11 12 13 14 15;
#X msg 92 284 a;
#X msg 120 284 b;
#X msg 147 285 c;
#X msg 172 286 d;
#X msg 198 286 e;
#X msg 227 285 f;
#X msg 255 284 g;
#X msg 282 284 h;
#X msg 310 283 i;
#X msg 339 284 j;
#X msg 366 284 k;
#X msg 394 285 l;
#X msg 421 285 m;
#X msg 446 286 n;
#X msg 474 286 o;
#X msg 500 286 p;
#X obj 169 54 inlet;
#X obj 430 337 symbol;
#X obj 429 367 outlet;
#X obj 169 161 * 1;
#X obj 188 138 * 2;
#X obj 206 119 * 4;
#X obj 225 100 * 8;
#X connect 0 0 1 1;
#X connect 1 0 2 1;
#X connect 2 0 4 0;
#X connect 3 0 24 0;
#X connect 3 1 25 0;
#X connect 3 2 26 0;
#X connect 3 3 27 0;
#X connect 4 0 5 0;
#X connect 4 1 6 0;
#X connect 4 2 7 0;
#X connect 4 3 8 0;
#X connect 4 4 9 0;
#X connect 4 5 10 0;
#X connect 4 6 11 0;
#X connect 4 7 12 0;
#X connect 4 8 13 0;
#X connect 4 9 14 0;
#X connect 4 10 15 0;
#X connect 4 11 16 0;
#X connect 4 12 17 0;
#X connect 4 13 18 0;
#X connect 4 14 19 0;
#X connect 4 15 20 0;
#X connect 5 0 22 0;
#X connect 6 0 22 0;
#X connect 7 0 22 0;
#X connect 8 0 22 0;
#X connect 9 0 22 0;
#X connect 10 0 22 0;
#X connect 11 0 22 0;
#X connect 12 0 22 0;
#X connect 13 0 22 0;
#X connect 14 0 22 0;
#X connect 15 0 22 0;
#X connect 16 0 22 0;
#X connect 17 0 22 0;
#X connect 18 0 22 0;
#X connect 19 0 22 0;
#X connect 20 0 22 0;
#X connect 21 0 3 0;
#X connect 22 0 23 0;
#X connect 24 0 2 0;
#X connect 25 0 1 0;
#X connect 26 0 0 0;
#X connect 27 0 0 1;
#X restore 107 99 pd p42s;
#N canvas 583 289 658 372 p42s 0;
#X obj 223 143 +;
#X obj 209 171 +;
#X obj 198 195 +;
#X obj 169 72 unpack f f f f;
#X obj 198 214 sel 0 1 2 3 4 5 6 7 8 9 10 11 12 13 14 15;
#X msg 68 251 a;
#X msg 96 251 b;
#X msg 123 252 c;
#X msg 148 253 d;
#X msg 174 253 e;
#X msg 203 252 f;
#X msg 231 251 g;
#X msg 258 251 h;
#X msg 286 250 i;
#X msg 315 251 j;
#X msg 342 251 k;
#X msg 370 252 l;
#X msg 397 252 m;
#X msg 422 253 n;
#X msg 450 253 o;
#X msg 476 253 p;
#X obj 169 54 inlet;
#X obj 406 304 symbol;
#X obj 405 334 outlet;
#X obj 169 161 * 1;
#X obj 188 138 * 2;
#X obj 206 119 * 4;
#X obj 225 100 * 8;
#X connect 0 0 1 1;
#X connect 1 0 2 1;
#X connect 2 0 4 0;
#X connect 3 0 24 0;
#X connect 3 1 25 0;
#X connect 3 2 26 0;
#X connect 3 3 27 0;
#X connect 4 0 5 0;
#X connect 4 1 6 0;
#X connect 4 2 7 0;
#X connect 4 3 8 0;
#X connect 4 4 9 0;
#X connect 4 5 10 0;
#X connect 4 6 11 0;
#X connect 4 7 12 0;
#X connect 4 8 13 0;
#X connect 4 9 14 0;
#X connect 4 10 15 0;
#X connect 4 11 16 0;
#X connect 4 12 17 0;
#X connect 4 13 18 0;
#X connect 4 14 19 0;
#X connect 4 15 20 0;
#X connect 5 0 22 0;
#X connect 6 0 22 0;
#X connect 7 0 22 0;
#X connect 8 0 22 0;
#X connect 9 0 22 0;
#X connect 10 0 22 0;
#X connect 11 0 22 0;
#X connect 12 0 22 0;
#X connect 13 0 22 0;
#X connect 14 0 22 0;
#X connect 15 0 22 0;
#X connect 16 0 22 0;
#X connect 17 0 22 0;
#X connect 18 0 22 0;
#X connect 19 0 22 0;
#X connect 20 0 22 0;
#X connect 21 0 3 0;
#X connect 22 0 23 0;
#X connect 24 0 2 0;
#X connect 25 0 1 0;
#X connect 26 0 0 0;
#X connect 27 0 0 1;
#X restore 141 149 pd p42s;
#X obj 88 14 inlet;
#X obj 122 303 outlet;
#X msg 369 130 symbol a;
#X text 273 19 convert an 8 element binary list into two letters;
#X text 256 285 the two letters are cyclone/collapsed into one single
symbol;
#X obj 88 242 pack s s s;
#X obj 88 38 t b a b;
#X obj 88 261 list split 1;
#X obj 369 55 list length;
#X connect 0 0 5 0;
#X connect 0 1 1 0;
#X connect 1 0 6 0;
#X connect 2 0 8 0;
#X connect 3 0 4 0;
#X connect 4 0 2 1;
#X connect 5 0 12 1;
#X connect 6 0 12 2;
#X connect 7 0 13 0;
#X connect 9 0 12 2;
#X connect 9 0 12 1;
#X connect 12 0 14 0;
#X connect 13 0 12 0;
#X connect 13 1 0 0;
#X connect 13 2 15 0;
#X connect 14 1 2 0;
#X connect 15 0 9 0;
#X restore 67 334 pd l2w2;
#X obj 52 110 + 1;
#X text 128 13 1 convert the pattern to a list of symbols;
#X obj 145 354 list;
#X obj 33 371 list;
#X obj 33 72 t b f b;
#X obj 67 354 list prepend;
#X obj 381 332 zexy/sum;
#X obj 52 130 t b b b f b f;
#X text 374 311 2 create a density profile;
#X obj 381 352 pack;
#X obj 381 371 tabwrite \$0-dp-crossfade;
#X text 198 405 The density profile of the resulting crossfaded pattern
;
#X obj 250 379 cnv 15 100 20 empty empty empty 20 12 0 14 -258113 -66577
0;
#X text 250 378 HERE--------------->;
#X text 127 28 At least we want to have a string version of the crossfaded
pattern.;
#X obj 380 390 table \$0-dp-crossfade 32;
#X msg 86 197 set \$1;
#X obj 33 33 inlet;
#X obj 33 390 outlet;
#X connect 0 0 9 0;
#X connect 1 0 2 0;
#X connect 2 0 27 0;
#X connect 3 0 4 0;
#X connect 3 1 0 0;
#X connect 4 0 0 0;
#X connect 5 0 11 0;
#X connect 6 0 15 0;
#X connect 7 0 9 1;
#X connect 8 0 10 0;
#X connect 8 0 17 0;
#X connect 9 0 7 0;
#X connect 9 0 8 1;
#X connect 10 0 16 0;
#X connect 11 0 18 0;
#X connect 13 0 16 1;
#X connect 14 0 29 0;
#X connect 15 0 14 0;
#X connect 15 1 5 0;
#X connect 15 2 16 1;
#X connect 16 0 13 0;
#X connect 16 0 14 1;
#X connect 17 0 20 0;
#X connect 18 1 8 0;
#X connect 18 2 1 0;
#X connect 18 3 4 1;
#X connect 18 4 9 1;
#X connect 18 5 20 1;
#X connect 20 0 21 0;
#X connect 27 0 3 0;
#X connect 28 0 6 0;
#X restore 462 191 pd postprocess crossfaded pattern;
#N canvas 545 134 450 375 turn 0;
#X text 59 17 Turn off the loaded pattern sign when a pattern is loaded
by the crossfader.;
#X obj 25 140 until;
#X obj 25 159 f;
#X obj 54 158 + 1;
#X msg 72 138 0;
#X obj 25 178 + 1;
#X obj 25 121 t f b b;
#X msg 25 102 16;
#X text 242 65 none playing;
#X obj 25 265 sel 2;
#X obj 25 198 t f f;
#X msg 74 310 \; save\$1 1;
#X obj 74 291 f;
#X obj 25 217 tabread \$0-savings;
#X obj 25 56 r \$0-post-process;
#X obj 25 239 sel 0;
#X obj 25 82 spigot;
#X obj 104 85 r \$0-block-awhile;
#X msg 104 104 0;
#X msg 134 142 1;
#X obj 134 104 r \$0-unblock;
#X obj 134 123 delay 200;
#X connect 1 0 2 0;
#X connect 2 0 3 0;
#X connect 2 0 5 0;
#X connect 3 0 2 1;
#X connect 4 0 2 1;
#X connect 5 0 10 0;
#X connect 6 0 1 0;
#X connect 6 1 4 0;
#X connect 7 0 6 0;
#X connect 9 0 12 0;
#X connect 10 0 13 0;
#X connect 10 1 12 1;
#X connect 12 0 11 0;
#X connect 13 0 15 0;
#X connect 14 0 16 0;
#X connect 15 1 9 0;
#X connect 16 0 7 0;
#X connect 17 0 18 0;
#X connect 18 0 16 1;
#X connect 19 0 16 1;
#X connect 20 0 21 0;
#X connect 21 0 19 0;
#X restore 504 71 pd turn off sign;
#X obj 510 90 r save-update;
#N canvas 713 296 457 329 clear 0;
#X obj 149 26 r \$0-clear-one-saving;
#X obj 149 83 until;
#X obj 149 102 f;
#X obj 178 101 + 1;
#X msg 196 81 0;
#X obj 149 121 + 1;
#X obj 149 64 t f b b;
#X obj 149 178 sel 2;
#X obj 149 140 t f f;
#X obj 149 197 f;
#X obj 149 159 tabread \$0-savings;
#X msg 149 273 \; save\$1 0;
#X text 145 6 clear active pattern;
#X obj 176 254 cyclone/coll \$0-saved-patterns;
#C restore;
#X msg 176 235 remove \$1;
#X obj 149 216 t f f;
#X msg 149 45 6;
#X connect 0 0 16 0;
#X connect 1 0 2 0;
#X connect 2 0 3 0;
#X connect 2 0 5 0;
#X connect 3 0 2 1;
#X connect 4 0 2 1;
#X connect 5 0 8 0;
#X connect 6 0 1 0;
#X connect 6 1 4 0;
#X connect 7 0 9 0;
#X connect 8 0 10 0;
#X connect 8 1 9 1;
#X connect 9 0 15 0;
#X connect 10 0 7 0;
#X connect 14 0 13 0;
#X connect 15 0 11 0;
#X connect 15 1 14 0;
#X connect 16 0 6 0;
#X restore 606 71 pd clear active pattern;
#X obj 462 90 t a a a;
#X obj 300 153 hradio 15 1 1 5 playbeats nor length 0 -12 1 20 -191407
-262144 -128992 3;
#N canvas 160 288 450 300 load-memory 0;
#X obj 65 18 loadbang;
#X obj 113 106 cyclone/coll \$0-saved-patterns;
#C restore;
#X obj 65 38 t b b;
#X msg 72 76 1;
#X obj 65 217 cyclone/coll \$0-saved-patterns;
#C restore;
#X msg 65 192 dump;
#X text 79 164 turn on buttons with patterns;
#X msg 124 238 \; save\$1 1;
#X msg 113 86 read ./pd-user/memory-drDrums;
#X connect 0 0 2 0;
#X connect 2 0 5 0;
#X connect 2 1 8 0;
#X connect 3 0 1 0;
#X connect 4 1 7 0;
#X connect 5 0 4 0;
#X connect 8 0 1 0;
#X restore 594 90 pd load-memory;
#N canvas 0 403 1280 699 allmidi 0;
#X obj 280 77 + 1;
#X obj 250 77 f 0;
#X msg 224 60 0;
#X obj 224 40 sel 0;
#X text 17 19 FROM DAW;
#N canvas 0 169 819 345 patt2midi 0;
#X obj 13 149 sel 1;
#X obj 91 149 sel 1;
#X obj 175 149 sel 1;
#X obj 265 149 sel 1;
#X obj 342 38 + 1;
#X obj 342 19 inlet;
#X obj 356 149 sel 1;
#X obj 342 57 t f f f f f f f f;
#X obj 434 149 sel 1;
#X obj 273 36 s playhead;
#X obj 13 82 tabread kick;
#X obj 91 82 tabread snare;
#X obj 175 82 tabread chihat;
#X obj 265 82 tabread ohihat;
#X obj 356 82 tabread clap;
#X obj 434 82 tabread rimshot;
#X obj 530 149 sel 1;
#X obj 626 149 sel 1;
#X obj 530 82 tabread loconga;
#X obj 626 82 tabread hiconga;
#X obj 314 283 makenote;
#X msg 314 264 \$1 127 100;
#X msg 247 233 36;
#X text 307 317 to drum machine in DAW;
#X obj 314 302 noteout 10;
#X msg 275 234 40;
#X msg 302 234 42;
#X msg 328 234 46;
#X msg 356 234 39;
#X msg 384 235 37;
#X msg 411 235 64;
#X msg 437 235 62;
#X obj 13 128 spigot;
#X obj 46 109 r kick-mute;
#X obj 91 128 spigot;
#X obj 124 109 r snare-mute;
#X obj 175 128 spigot;
#X obj 208 109 r ch-mute;
#X obj 265 128 spigot;
#X obj 298 109 r oh-mute;
#X obj 356 128 spigot;
#X obj 389 109 r cp-mute;
#X obj 434 128 spigot;
#X obj 467 109 r rs-mute;
#X obj 530 128 spigot;
#X obj 563 109 r lc-mute;
#X obj 626 128 spigot;
#X obj 659 109 r hc-mute;
#X connect 0 0 22 0;
#X connect 1 0 25 0;
#X connect 2 0 26 0;
#X connect 3 0 27 0;
#X connect 4 0 7 0;
#X connect 5 0 4 0;
#X connect 5 0 9 0;
#X connect 6 0 28 0;
#X connect 7 0 10 0;
#X connect 7 1 11 0;
#X connect 7 2 12 0;
#X connect 7 3 13 0;
#X connect 7 4 14 0;
#X connect 7 5 15 0;
#X connect 7 6 18 0;
#X connect 7 7 19 0;
#X connect 8 0 29 0;
#X connect 10 0 32 0;
#X connect 11 0 34 0;
#X connect 12 0 36 0;
#X connect 13 0 38 0;
#X connect 14 0 40 0;
#X connect 15 0 42 0;
#X connect 16 0 30 0;
#X connect 17 0 31 0;
#X connect 18 0 44 0;
#X connect 19 0 46 0;
#X connect 20 0 24 0;
#X connect 20 1 24 1;
#X connect 21 0 20 0;
#X connect 22 0 21 0;
#X connect 25 0 21 0;
#X connect 26 0 21 0;
#X connect 27 0 21 0;
#X connect 28 0 21 0;
#X connect 29 0 21 0;
#X connect 30 0 21 0;
#X connect 31 0 21 0;
#X connect 32 0 0 0;
#X connect 33 0 32 1;
#X connect 34 0 1 0;
#X connect 35 0 34 1;
#X connect 36 0 2 0;
#X connect 37 0 36 1;
#X connect 38 0 3 0;
#X connect 39 0 38 1;
#X connect 40 0 6 0;
#X connect 41 0 40 1;
#X connect 42 0 8 0;
#X connect 43 0 42 1;
#X connect 44 0 16 0;
#X connect 45 0 44 1;
#X connect 46 0 17 0;
#X connect 47 0 46 1;
#X restore 250 116 pd patt2midi;
#X text 16 52 Get the position of the reader;
#X text 15 63 from the daw and start sending;
#X text 16 76 MIDI of the 8 instruments back;
#X text 15 87 to channel 10;
#X obj 985 359 r \$0-save-state;
#X msg 1160 375 0;
#X msg 1210 392 0.5;
#X msg 1157 191 0;
#X obj 990 269 loadbang;
#X obj 990 291 delay 1000;
#X obj 1157 171 r zero-ag;
#X obj 1191 228 s ag-kick-in;
#X obj 1184 250 s ag-snare-in;
#X obj 1178 272 s ag-ch-in;
#X obj 1198 207 s ag-oh-in;
#X obj 1168 294 s ag-cp-in;
#X obj 1157 313 s ag-rs-in;
#X obj 1160 356 r zero-dws;
#X obj 1168 397 s comm;
#X obj 1160 419 s den;
#X obj 1210 415 s sync;
#X obj 1000 315 s zero-ag;
#X obj 990 335 s zero-dws;
#X msg 315 159 30 22;
#X obj 87 178 s \$0-save-state;
#X msg 314 331 34 22;
#X obj 87 350 s \$0-save-state;
#X obj 87 216 s \$0-set-drum-style-A;
#X obj 87 388 s \$0-set-drum-style-B;
#X msg 331 245 31 22;
#X obj 87 264 s \$0-save-state;
#X obj 87 302 s \$0-set-style-crossfade;
#X msg 314 415 33 22;
#X obj 87 434 s \$0-save-state;
#X text 36 196 styleA;
#X text 36 271 StyleB;
#X text 18 358 crossfade;
#X obj 87 197 r \$0-learn-styleA-set;
#X obj 87 283 r \$0-learn-crossfade-set;
#X obj 87 369 r \$0-learn-styleB-set;
#X text 54 439 new;
#X obj 87 453 r \$0-learn-new-set;
#X obj 87 472 s \$0-generate-seed-set;
#X msg 334 505 32 22;
#X obj 87 524 s \$0-save-state;
#X obj 87 543 r \$0-learn-variation-set;
#X text 20 529 variation;
#X msg 630 38 8 22;
#X obj 369 57 s \$0-save-state;
#X obj 369 76 r \$0-learn-densityhc-set;
#X obj 369 95 s \$0-hcD-set;
#X msg 630 118 7 22;
#X obj 369 137 s \$0-save-state;
#X obj 369 156 r \$0-learn-densitylc-set;
#X msg 630 198 6 22;
#X obj 369 217 s \$0-save-state;
#X obj 369 236 r \$0-learn-densityrs-set;
#X obj 369 255 s \$0-rsD-set;
#X obj 369 175 s \$0-lcD-set;
#X msg 630 278 5 22;
#X obj 369 297 s \$0-save-state;
#X obj 369 316 r \$0-learn-densitycp-set;
#X obj 369 335 s \$0-cpD-set;
#X msg 630 358 4 22;
#X obj 369 377 s \$0-save-state;
#X text 469 3 Density;
#X obj 369 396 r \$0-learn-densityoh-set;
#X obj 369 415 s \$0-ohD-set;
#X msg 630 438 3 22;
#X obj 369 457 s \$0-save-state;
#X obj 369 476 r \$0-learn-densitych-set;
#X obj 369 495 s \$0-chD-set;
#X msg 640 518 2 22;
#X obj 369 537 s \$0-save-state;
#X obj 369 575 s \$0-snareD-set;
#X msg 640 599 1 22;
#X obj 369 617 s \$0-save-state;
#X obj 369 655 s \$0-kickD-set;
#X msg 334 595 9 22;
#X obj 87 614 s \$0-save-state;
#X text 24 619 density 0;
#X obj 87 633 r \$0-learn-density0-set;
#X obj 87 652 s reset-density-set;
#X msg 944 45 100 33;
#X obj 697 64 s \$0-save-state;
#X text 859 6 memory;
#X obj 793 64 r \$0-learn-memory1-set;
#X obj 793 83 s save1;
#X msg 944 105 101 33;
#X obj 697 124 s \$0-save-state;
#X obj 793 124 r \$0-learn-memory2-set;
#X obj 793 143 s save2;
#X msg 944 165 9 22;
#X obj 697 184 s \$0-save-state;
#X obj 793 184 r \$0-learn-memory3-set;
#X obj 793 203 s save3;
#X msg 944 225;
#X obj 697 244 s \$0-save-state;
#X obj 793 263 s save4;
#X obj 793 244 r \$0-learn-memory4-set;
#X msg 944 285;
#X obj 697 304 s \$0-save-state;
#X obj 793 304 r \$0-learn-memory5-set;
#X obj 793 323 s save5;
#X msg 944 345;
#X obj 697 364 s \$0-save-state;
#X obj 793 364 r \$0-learn-memory6-set;
#X obj 87 562 s \$0-bbv-set;
#X obj 369 556 r \$0-learn-densitysn-set;
#X obj 369 636 r \$0-learn-densitykd-set;
#X obj 224 21 pdmus/midi-sync;
#X obj 256 97 sel 15;
#X msg 985 380 menusave;
#X obj 985 401 s pd-gs_drDrums_plugin.pd;
#X obj 606 62 s \$0-hcr;
#X obj 630 152 s \$0-lcr;
#X obj 630 222 s \$0-rsr;
#X obj 630 302 s \$0-cpr;
#X obj 630 392 s \$0-ohr;
#X obj 630 472 s \$0-chr;
#X obj 640 552 s \$0-snr;
#X obj 640 632 s \$0-kdr;
#X obj 630 11 loadbang;
#N canvas 206 23 342 642 vis-reset-density 0;
#X obj 52 24 r reset-density;
#X obj 220 91 r \$0-hcr;
#X obj 220 142 r \$0-lcr;
#X obj 220 192 r \$0-rsr;
#X obj 220 242 r \$0-cpr;
#X obj 220 292 r \$0-ohr;
#X obj 220 342 r \$0-chr;
#X obj 220 392 r \$0-snr;
#X obj 220 442 r \$0-kdr;
#X msg 52 45 64;
#X obj 52 68 t f f f f f f f f;
#X obj 151 114 list append;
#X obj 151 464 list append;
#X obj 151 414 list append;
#X obj 151 364 list append;
#X obj 151 314 list append;
#X obj 151 264 list append;
#X obj 151 214 list append;
#X obj 151 164 list append;
#X obj 34 534 ctlout;
#X connect 0 0 9 0;
#X connect 1 0 11 1;
#X connect 2 0 18 1;
#X connect 3 0 17 1;
#X connect 4 0 16 1;
#X connect 5 0 15 1;
#X connect 6 0 14 1;
#X connect 7 0 13 1;
#X connect 8 0 12 1;
#X connect 9 0 10 0;
#X connect 10 0 12 0;
#X connect 10 1 13 0;
#X connect 10 2 14 0;
#X connect 10 3 15 0;
#X connect 10 4 16 0;
#X connect 10 5 17 0;
#X connect 10 6 18 0;
#X connect 10 7 11 0;
#X connect 11 0 19 0;
#X connect 12 0 19 0;
#X connect 13 0 19 0;
#X connect 14 0 19 0;
#X connect 15 0 19 0;
#X connect 16 0 19 0;
#X connect 17 0 19 0;
#X connect 18 0 19 0;
#X restore 988 225 pd vis-reset-density;
#X obj 697 345 midi-learn-map \$0-learn-memory6 0 1 2;
#X obj 793 383 s save6;
#X obj 369 38 midi-learn-map \$0-learn-densityhc -1 1 0;
#X obj 87 159 midi-learn-map \$0-learn-styleA 0 5 1;
#X obj 369 118 midi-learn-map \$0-learn-densitylc -1 1 0;
#X obj 87 245 midi-learn-map \$0-learn-crossfade 0 1 0;
#X obj 87 331 midi-learn-map \$0-learn-styleB 0 5 1;
#X obj 87 415 midi-learn-map \$0-learn-new 0 1 2;
#X obj 87 505 midi-learn-map \$0-learn-variation 0 1 0;
#X obj 369 198 midi-learn-map \$0-learn-densityrs -1 1 0;
#X obj 369 278 midi-learn-map \$0-learn-densitycp -1 1 0;
#X obj 369 358 midi-learn-map \$0-learn-densityoh -1 1 0;
#X obj 369 438 midi-learn-map \$0-learn-densitych -1 1 0;
#X obj 87 595 midi-learn-map \$0-learn-density0 0 1 2;
#X obj 697 45 midi-learn-map \$0-learn-memory1 0 1 2;
#X obj 697 105 midi-learn-map \$0-learn-memory2 0 1 2;
#X obj 697 165 midi-learn-map \$0-learn-memory3 0 1 2;
#X obj 697 225 midi-learn-map \$0-learn-memory4 0 1 2;
#X obj 697 285 midi-learn-map \$0-learn-memory5 0 1 2;
#X obj 369 518 midi-learn-map \$0-learn-densitysn -1 1 0;
#X obj 369 598 midi-learn-map \$0-learn-densitykd -1 1 0;
#X connect 0 0 1 1;
#X connect 1 0 0 0;
#X connect 1 0 5 0;
#X connect 1 0 117 0;
#X connect 2 0 1 1;
#X connect 3 0 2 0;
#X connect 10 0 118 0;
#X connect 11 0 12 0;
#X connect 11 0 24 0;
#X connect 11 0 25 0;
#X connect 12 0 26 0;
#X connect 13 0 17 0;
#X connect 13 0 18 0;
#X connect 13 0 19 0;
#X connect 13 0 20 0;
#X connect 13 0 21 0;
#X connect 13 0 22 0;
#X connect 14 0 15 0;
#X connect 15 0 27 0;
#X connect 15 0 28 0;
#X connect 16 0 13 0;
#X connect 23 0 11 0;
#X connect 29 0 133 1;
#X connect 31 0 136 1;
#X connect 35 0 135 1;
#X connect 38 0 137 1;
#X connect 43 0 33 0;
#X connect 44 0 37 0;
#X connect 45 0 34 0;
#X connect 47 0 48 0;
#X connect 49 0 138 1;
#X connect 51 0 113 0;
#X connect 53 0 120 0;
#X connect 53 0 132 1;
#X connect 55 0 56 0;
#X connect 57 0 121 0;
#X connect 57 0 134 1;
#X connect 59 0 64 0;
#X connect 60 0 122 0;
#X connect 60 0 139 1;
#X connect 62 0 63 0;
#X connect 65 0 123 0;
#X connect 65 0 140 1;
#X connect 67 0 68 0;
#X connect 69 0 124 0;
#X connect 69 0 141 1;
#X connect 72 0 73 0;
#X connect 74 0 125 0;
#X connect 74 0 142 1;
#X connect 76 0 77 0;
#X connect 78 0 126 0;
#X connect 78 0 149 1;
#X connect 81 0 127 0;
#X connect 81 0 150 1;
#X connect 84 0 143 1;
#X connect 87 0 88 0;
#X connect 89 0 144 1;
#X connect 92 0 93 0;
#X connect 94 0 145 1;
#X connect 96 0 97 0;
#X connect 98 0 146 1;
#X connect 100 0 101 0;
#X connect 102 0 147 1;
#X connect 105 0 104 0;
#X connect 106 0 148 1;
#X connect 108 0 109 0;
#X connect 110 0 130 1;
#X connect 112 0 131 0;
#X connect 114 0 80 0;
#X connect 115 0 83 0;
#X connect 116 0 3 0;
#X connect 116 1 1 0;
#X connect 117 0 2 0;
#X connect 118 0 119 0;
#X connect 128 0 53 0;
#X connect 128 0 57 0;
#X connect 128 0 60 0;
#X connect 128 0 65 0;
#X connect 128 0 69 0;
#X connect 128 0 74 0;
#X connect 128 0 78 0;
#X connect 128 0 81 0;
#X connect 130 0 111 0;
#X connect 130 1 110 0;
#X connect 132 0 54 0;
#X connect 132 1 53 0;
#X connect 132 1 120 0;
#X connect 133 0 30 0;
#X connect 133 1 29 0;
#X connect 134 0 58 0;
#X connect 134 1 57 0;
#X connect 134 1 121 0;
#X connect 135 0 36 0;
#X connect 135 1 35 0;
#X connect 136 0 32 0;
#X connect 136 1 31 0;
#X connect 137 0 39 0;
#X connect 137 1 38 0;
#X connect 138 0 50 0;
#X connect 138 1 49 0;
#X connect 139 0 61 0;
#X connect 139 1 60 0;
#X connect 139 1 122 0;
#X connect 140 0 66 0;
#X connect 140 1 65 0;
#X connect 140 1 123 0;
#X connect 141 0 70 0;
#X connect 141 1 69 0;
#X connect 141 1 124 0;
#X connect 142 0 75 0;
#X connect 142 1 74 0;
#X connect 142 1 125 0;
#X connect 143 0 85 0;
#X connect 143 1 84 0;
#X connect 144 0 90 0;
#X connect 144 1 89 0;
#X connect 145 0 95 0;
#X connect 145 1 94 0;
#X connect 146 0 99 0;
#X connect 146 1 98 0;
#X connect 147 0 103 0;
#X connect 147 1 102 0;
#X connect 148 0 107 0;
#X connect 148 1 106 0;
#X connect 149 0 79 0;
#X connect 149 1 78 0;
#X connect 149 1 126 0;
#X connect 150 0 82 0;
#X connect 150 1 81 0;
#X connect 150 1 127 0;
#X restore 151 129 pd allmidi;
#X text 478 26 *****This is all related to the memory*****;
#X text 51 20 *****these are general settings*****;
#X text 72 187 *****This is the generative process*****;
#N canvas 670 430 450 300 loadbang 0;
#X obj 47 55 loadbang;
#X obj 47 74 delay 500;
#X obj 66 168 s \$0-set-drum-style-A;
#X obj 198 168 s \$0-set-drum-style-B;
#X obj 47 244 s \$0-set-style-crossfade;
#X obj 47 93 random 6;
#X obj 198 149 % 6;
#X obj 198 130 + 1;
#X obj 47 113 t b f f;
#X text 48 24 comment;
#X text 43 38 load a pattern on startup;
#X obj 47 206 random 100;
#X obj 47 225 / 100;
#X obj 47 187 delay 100;
#X connect 0 0 1 0;
#X connect 1 0 5 0;
#X connect 5 0 8 0;
#X connect 6 0 3 0;
#X connect 7 0 6 0;
#X connect 8 0 13 0;
#X connect 8 1 2 0;
#X connect 8 2 7 0;
#X connect 11 0 12 0;
#X connect 12 0 4 0;
#X connect 13 0 11 0;
#X restore 210 161 pd loadbang;
#X obj 465 309 declare -path pd-abs -path pd-third-party;
#X obj 273 412 zexy/list2symbol;
#X obj 509 347 loadbang;
#X obj 509 481 hcs/sys_gui;
#X obj 509 406 hcs/canvas_name;
#X obj 509 367 t b b;
#X obj 509 443 pack s s;
#X msg 509 462 \$1 configure -background \$2;
#X obj 546 424 symbol #808080;
#X msg 509 387 pd-gs_drDrums_plugin.pd;
#N canvas 0 22 450 300 fix_before_motreal 0;
#X obj 178 3 cnv 15 1 1 empty empty PRESETS -2 6 1 14 -128992 -228856
0;
#X obj 233 199 bng 15 250 50 0 \$0-clear-all-savings nor clear_all
-12 -5 1 10 -33289 -228856 -228856;
#X obj 183 199 bng 15 250 50 0 \$0-clear-one-saving nor clear_one -12
-5 1 10 -33289 -228856 -228856;
#X obj 176 68 bng 8 250 50 0 \$0-learn-memory1 --- empty 17 7 0 10
-258113 -1 -1;
#X obj 226 68 bng 8 250 50 0 \$0-learn-memory2 --- empty 17 7 0 10
-258113 -1 -1;
#X obj 176 118 bng 8 250 50 0 \$0-learn-memory3 --- empty 17 7 0 10
-258113 -1 -1;
#X obj 226 118 bng 8 250 50 0 \$0-learn-memory4 --- empty 17 7 0 10
-258113 -1 -1;
#X obj 176 168 bng 8 250 50 0 \$0-learn-memory5 --- empty 17 7 0 10
-258113 -1 -1;
#X obj 226 168 bng 8 250 50 0 \$0-learn-memory6 --- empty 17 7 0 10
-258113 -1 -1;
#X obj 176 129 butt2 save5;
#X obj 109 32 memslot 0 \$0;
#X text 99 207 save1;
#X text 99 227 save2;
#X text 99 246 save6;
#X obj 176 29 butt2 save1;
#X obj 226 29 butt2 save2;
#X obj 176 79 butt2 save3;
#X obj 226 129 butt2 save6;
#X obj 226 79 butt2 save4;
#X restore 588 234 pd fix_before_motreal;
#N canvas 212 23 557 707 osc 0;
#X obj 32 543 s \$0-bbv-set;
#X obj 5 22 r osc2drums;
#X obj 6 563 s \$0-set-style-crossfade;
#X obj 60 523 s \$0-generate-seed-set;
#X obj 88 503 s \$0-kickD-set;
#X obj 116 483 s \$0-snareD-set;
#X obj 143 463 s \$0-chD-set;
#X obj 171 443 s \$0-ohD-set;
#X obj 199 424 s \$0-cpD-set;
#X obj 227 405 s \$0-rsD-set;
#X obj 254 382 s \$0-lcD-set;
#X obj 282 362 s \$0-hcD-set;
#X obj 371 420 s reset-density-set;
#X obj 5 43 route d_crossfader d_variation d_new d_kd d_sn d_ch d_oh
d_cp d_rs d_lc d_hc d_reset d_style1 d_style2;
#X obj 320 316 s \$0-set-drum-style-A;
#X obj 378 276 s \$0-set-drum-style-B;
#X obj 290 80 list split 2;
#X obj 290 102 list split 1;
#X obj 289 123 list fromsymbol;
#X obj 290 153 spigot;
#X obj 290 175 - 54;
#X obj 293 206 abs;
#X obj 400 90 list split 2;
#X obj 400 112 list split 1;
#X obj 399 133 list fromsymbol;
#X obj 400 163 spigot;
#X obj 400 185 - 54;
#X obj 403 216 abs;
#X obj 420 390 sel 1;
#X obj 485 357 bng 15 250 50 0 empty empty empty 17 7 0 10 -262144
-1 -1;
#X connect 1 0 13 0;
#X connect 13 0 2 0;
#X connect 13 1 0 0;
#X connect 13 2 3 0;
#X connect 13 3 4 0;
#X connect 13 4 5 0;
#X connect 13 5 6 0;
#X connect 13 6 7 0;
#X connect 13 7 8 0;
#X connect 13 8 9 0;
#X connect 13 9 10 0;
#X connect 13 10 11 0;
#X connect 13 11 28 0;
#X connect 13 12 16 0;
#X connect 13 13 22 0;
#X connect 16 0 17 0;
#X connect 16 1 19 1;
#X connect 17 0 18 0;
#X connect 18 0 19 0;
#X connect 19 0 20 0;
#X connect 20 0 21 0;
#X connect 21 0 14 0;
#X connect 22 0 23 0;
#X connect 22 1 25 1;
#X connect 23 0 24 0;
#X connect 24 0 25 0;
#X connect 25 0 26 0;
#X connect 26 0 27 0;
#X connect 27 0 15 0;
#X connect 28 0 12 0;
#X connect 28 0 29 0;
#X restore 580 258 pd osc;
#X connect 4 0 5 1;
#X connect 5 0 10 0;
#X connect 5 0 20 0;
#X connect 6 0 22 0;
#X connect 7 0 8 0;
#X connect 7 1 6 0;
#X connect 8 0 13 0;
#X connect 9 0 4 0;
#X connect 9 1 10 1;
#X connect 10 0 11 0;
#X connect 11 0 25 0;
#X connect 15 0 7 0;
#X connect 17 0 8 1;
#X connect 18 0 17 0;
#X connect 19 0 21 0;
#X connect 20 0 58 0;
#X connect 21 0 58 1;
#X connect 22 0 17 0;
#X connect 23 0 22 1;
#X connect 24 0 5 0;
#X connect 26 0 28 0;
#X connect 26 1 27 0;
#X connect 26 2 9 0;
#X connect 27 0 28 1;
#X connect 27 1 28 2;
#X connect 27 2 28 3;
#X connect 28 0 24 0;
#X connect 28 1 5 0;
#X connect 29 0 20 1;
#X connect 32 0 30 0;
#X connect 33 0 34 0;
#X connect 35 0 33 0;
#X connect 36 0 38 0;
#X connect 38 0 49 0;
#X connect 43 0 7 0;
#X connect 47 0 37 0;
#X connect 49 0 42 0;
#X connect 49 1 40 0;
#X connect 49 2 41 0;
#X connect 58 0 16 0;
#X connect 59 0 62 0;
#X connect 61 0 63 0;
#X connect 62 0 66 0;
#X connect 62 1 65 0;
#X connect 63 0 64 0;
#X connect 64 0 60 0;
#X connect 65 0 63 1;
#X connect 66 0 61 0;
#X restore 374 203 pd p;
#X obj 316 336 vsl 20 128 -1 1 0 0 \$0-hcD \$0-hcD-set empty 0 -9 1
20 -162280 -262144 -262144 6350 1;
#X obj 286 336 vsl 20 128 -1 1 0 0 \$0-lcD \$0-lcD-set empty 0 -9 1
20 -162280 -262144 -262144 6350 1;
#X obj 256 336 vsl 20 128 -1 1 0 0 \$0-rsD \$0-rsD-set empty 0 -9 1
20 -162280 -262144 -262144 6350 1;
#X obj 226 336 vsl 20 128 -1 1 0 0 \$0-cpD \$0-cpD-set empty 0 -9 1
20 -162280 -262144 -262144 6350 1;
#X obj 196 336 vsl 20 128 -1 1 0 0 \$0-ohD \$0-ohD-set empty 0 -9 1
20 -162280 -262144 -262144 6350 1;
#X obj 166 336 vsl 20 128 -1 1 0 0 \$0-chD \$0-chD-set empty 0 -9 1
20 -162280 -262144 -262144 6350 1;
#X obj 136 336 vsl 20 128 -1 1 0 0 \$0-snareD \$0-snareD-set empty
0 -9 1 20 -162280 -262144 -262144 6350 1;
#X obj 106 336 vsl 20 128 -1 1 0 0 \$0-kickD \$0-kickD-set DENSITY
0 -9 1 14 -162280 -262144 -262144 6350 1;
#X text 39 39 comment;
