#N struct 1003-line float pos float color;
#N struct 1003-chord0 float x float y symbol name;
#N struct 1003-chord1 float x float y symbol name;
#N struct 1003-chord2 float x float y symbol name;
#N struct 1003-chord3 float x float y symbol name;
#N struct 1003-chord4 float x float y symbol name;
#N struct 1003-chord5 float x float y symbol name;
#N struct 1003-chord6 float x float y symbol name;
#N struct 1003-chord7 float x float y symbol name;
#N struct 1003-mchord0 float x float dur;
#N struct 1003-mchord1 float x float dur;
#N struct 1003-mchord2 float x float dur;
#N struct 1003-mchord3 float x float dur;
#N struct 1003-mchord4 float x float dur;
#N struct 1003-mchord5 float x float dur;
#N struct 1003-mchord6 float x float dur;
#N struct 1003-mchord7 float x float dur;
#N struct 1003-mchord8 float x float dur;
#N struct 1003-mchord9 float x float dur;
#N struct 1003-mchord10 float x float dur;
#N struct 1003-mchord11 float x float dur;
#N struct 1003-mchord12 float x float dur;
#N struct 1003-mchord13 float x float dur;
#N struct 1003-mchord14 float x float dur;
#N struct 1003-mchord15 float x float dur;
#N struct 1003-mchord16 float x float dur;
#N struct 1003-mchord17 float x float dur;
#N struct 1003-mchord18 float x float dur;
#N struct 1003-mchord19 float x float dur;
#N struct 1003-mchord20 float x float dur;
#N struct 1003-mchord21 float x float dur;
#N struct 1003-mchord22 float x float dur;
#N struct 1003-mchord23 float x float dur;
#N struct 1003-mchord24 float x float dur;
#N struct 1003-mchord25 float x float dur;
#N struct 1003-mchord26 float x float dur;
#N struct 1003-mchord27 float x float dur;
#N struct 1003-mchord28 float x float dur;
#N struct 1003-mchord29 float x float dur;
#N struct 1003-mchord30 float x float dur;
#N struct 1003-mchord31 float x float dur;
#N struct 1003-mchord32 float x float dur;
#N struct 1003-mchord33 float x float dur;
#N struct 1003-mchord34 float x float dur;
#N struct 1003-mchord35 float x float dur;
#N struct 1003-mchord36 float x float dur;
#N struct 1003-mchord37 float x float dur;
#N struct 1003-mchord38 float x float dur;
#N struct 1003-mchord39 float x float dur;
#N struct 1003-mchord40 float x float dur;
#N struct 1003-mchord41 float x float dur;
#N struct 1003-mchord42 float x float dur;
#N struct 1003-mchord43 float x float dur;
#N struct 1003-mchord44 float x float dur;
#N struct 1003-mchord45 float x float dur;
#N struct 1003-mchord46 float x float dur;
#N struct 1003-mchord47 float x float dur;
#N struct 1003-mchord48 float x float dur;
#N struct 1003-mchord49 float x float dur;
#N struct 1003-mchord50 float x float dur;
#N struct 1003-mchord51 float x float dur;
#N struct 1003-mchord52 float x float dur;
#N struct 1003-mchord53 float x float dur;
#N struct 1003-mchord54 float x float dur;
#N struct 1003-mchord55 float x float dur;
#N struct 1003-mchord56 float x float dur;
#N struct 1003-mchord57 float x float dur;
#N struct 1003-mchord58 float x float dur;
#N struct 1003-mchord59 float x float dur;
#N struct 1003-mchord60 float x float dur;
#N struct 1003-mchord61 float x float dur;
#N struct 1003-mchord62 float x float dur;
#N struct 1003-mchord63 float x float dur;
#N struct 1003-schord0 float x float dur;
#N struct 1003-schord1 float x float dur;
#N struct 1003-schord2 float x float dur;
#N struct 1003-schord3 float x float dur;
#N struct 1003-schord4 float x float dur;
#N struct 1003-schord5 float x float dur;
#N struct 1003-schord6 float x float dur;
#N struct 1003-schord7 float x float dur;
#N struct 1003-schord8 float x float dur;
#N struct 1003-schord9 float x float dur;
#N struct 1003-schord10 float x float dur;
#N struct 1003-schord11 float x float dur;
#N struct 1003-schord12 float x float dur;
#N struct 1003-schord13 float x float dur;
#N struct 1003-schord14 float x float dur;
#N struct 1003-schord15 float x float dur;
#N struct 1003-schord16 float x float dur;
#N struct 1003-schord17 float x float dur;
#N struct 1003-schord18 float x float dur;
#N struct 1003-schord19 float x float dur;
#N struct 1003-schord20 float x float dur;
#N struct 1003-schord21 float x float dur;
#N struct 1003-schord22 float x float dur;
#N struct 1003-schord23 float x float dur;
#N struct 1003-schord24 float x float dur;
#N struct 1003-schord25 float x float dur;
#N struct 1003-schord26 float x float dur;
#N struct 1003-schord27 float x float dur;
#N struct 1003-schord28 float x float dur;
#N struct 1003-schord29 float x float dur;
#N struct 1003-schord30 float x float dur;
#N struct 1003-schord31 float x float dur;
#N struct 1003-schord32 float x float dur;
#N struct 1003-schord33 float x float dur;
#N struct 1003-schord34 float x float dur;
#N struct 1003-schord35 float x float dur;
#N struct 1003-schord36 float x float dur;
#N struct 1003-schord37 float x float dur;
#N struct 1003-schord38 float x float dur;
#N struct 1003-schord39 float x float dur;
#N struct 1003-schord40 float x float dur;
#N struct 1003-schord41 float x float dur;
#N struct 1003-schord42 float x float dur;
#N struct 1003-schord43 float x float dur;
#N struct 1003-schord44 float x float dur;
#N struct 1003-schord45 float x float dur;
#N struct 1003-schord46 float x float dur;
#N struct 1003-schord47 float x float dur;
#N struct 1003-schord48 float x float dur;
#N struct 1003-schord49 float x float dur;
#N struct 1003-schord50 float x float dur;
#N struct 1003-schord51 float x float dur;
#N struct 1003-schord52 float x float dur;
#N struct 1003-schord53 float x float dur;
#N struct 1003-schord54 float x float dur;
#N struct 1003-schord55 float x float dur;
#N struct 1003-schord56 float x float dur;
#N struct 1003-schord57 float x float dur;
#N struct 1003-schord58 float x float dur;
#N struct 1003-schord59 float x float dur;
#N struct 1003-schord60 float x float dur;
#N struct 1003-schord61 float x float dur;
#N struct 1003-schord62 float x float dur;
#N struct 1003-schord63 float x float dur;
#N struct 1003-beat float x;
#N struct 1003-point float x float y float c float t;
#N struct 1003-ysis float x float y float heigth float vis;
#N struct 1003-xsis float x float y float length;
#N struct 1003-area float x float y float size;
#N struct 1296-line float pos;
#N canvas 580 74 629 514 8;
#X declare -path pd-abs -path pd-third-party;
#N canvas 131 23 569 447 patch 0;
#N canvas 11 89 743 988 adt 0;
#X obj 340 155 s \$0-onsets-bass;
#X obj 127 9 r \$0-load-rhythm;
#X obj 127 137 t l l l, f 36;
#X obj 127 157 vabs/list-sum;
#X obj 238 80 min 1;
#X obj 238 62 vabs/list-dripv;
#X obj 238 98 vabs/add2list prepend;
#X obj 127 117 list, f 19;
#X obj 97 1287 s, f 15;
#X obj 185 1268 makefilename \$0-slave-chord-fill-%d;
#X obj 70 1075 vabs/list-dripv;
#X obj 70 1153 sel 0;
#X obj 185 1211 f 0;
#X obj 215 1211 + 1;
#X msg 97 1268 \$2 \$1;
#X obj 200 1075 \$0;
#X msg 200 1094 0 \; \$1-slave-chord-show 64;
#X obj 212 1249 s \$0-slave-chord-show;
#X obj 70 1053 t l b l, f 44;
#X obj 331 1073 array set \$0-new-pattern;
#X obj 142 1152 f 0;
#X obj 170 1152 + 1;
#X obj 70 1096 t f b;
#X obj 97 1171 pack 0 0;
#X obj 97 1191 t a b, f 15;
#X obj 185 1231 t f f;
#X obj 14 125 r \$0-density;
#X text 207 1152 step number;
#X text 244 1211 number of onsets;
#X obj 154 216 s set-\$0-density;
#X obj 14 214 int 4;
#X obj 127 176 t f f;
#X obj 127 27 array get \$0-master-pattern;
#X obj 127 44 t b l b b, f 56;
#X obj 251 293 array set \$0-density-pattern, f 19;
#X msg 151 299 64;
#X obj 151 342 vabs/forloop 0;
#X obj 151 380 sel 63;
#X obj 230 382 tabread \$0-density-pattern, f 18;
#X obj 176 595 tabwrite \$0-density-pattern;
#X obj 230 434 f, f 7;
#X obj 230 414 sel 1;
#X msg 346 429 clear;
#X obj 151 323 t f b, f 33;
#X obj 230 465 vabs/add2list prepend;
#X obj 151 490 list;
#X obj 151 401 t b b, f 8;
#X obj 151 509 vabs/list-dripr;
#X msg 197 420 64;
#X obj 176 557 - 64;
#X obj 176 576 abs;
#X obj 151 361 t f f f, f 27;
#X obj 196 838 f, f 7;
#X obj 196 775 sel 0, f 13;
#X obj 235 798 - 1;
#X msg 151 683 64;
#X obj 235 818 max 0;
#X obj 151 701 vabs/forloop 0;
#X obj 151 720 t f f f, f 30;
#X obj 151 743 sel 63;
#X obj 196 743 tabread \$0-density-pattern, f 18;
#X obj 271 859 tabwrite \$0-density-pattern, f 10;
#X obj 151 870 array get \$0-density-pattern, f 18;
#X obj 181 645 + 1;
#X obj 151 645 f 1;
#X obj 151 528 t b f f f;
#X msg 386 613 1;
#X obj 71 273 t l b l b, f 53;
#X obj 510 247 f, f 7;
#X obj 510 184 sel 0, f 13;
#X obj 549 207 - 1;
#X msg 465 92 64;
#X obj 549 227 max 0;
#X obj 465 110 vabs/forloop 0;
#X obj 465 129 t f f f, f 30;
#X obj 465 152 sel 63;
#X obj 465 279 array get \$0-master-pattern, f 18;
#X obj 585 268 tabwrite \$0-master-pattern, f 10;
#X obj 510 153 tabread \$0-master-pattern, f 18;
#X msg 154 197 mark \$1;
#X obj 14 253 route bang;
#X obj 70 1014 vabs/listv;
#X obj 165 964 t b b f;
#X obj 151 992 vabs/listv;
#X obj 208 645 int 4;
#X obj 151 664 sel 4, f 10;
#X obj 208 618 r \$0-density;
#X obj 14 235 populate-rhythm64, f 38;
#X obj 151 1014 vabs/list-scale 1;
#X obj 230 906 r \$0-legato;
#X obj 165 944 / 100;
#X obj 70 1034 vabs/list-prod;
#X text 382 61 conectaríamos aquí para elaborar el legato en relación
al master pattern, f 36;
#X obj 14 167 play-update 32 \$0;
#X obj 230 946 play-update 32 \$0;
#X obj 230 927 vabs/delgate 200;
#X obj 14 146 vabs/delgate 200;
#X connect 1 0 32 0;
#X connect 2 0 3 0;
#X connect 2 1 87 1;
#X connect 2 2 0 0;
#X connect 3 0 31 0;
#X connect 4 0 6 0;
#X connect 5 0 4 0;
#X connect 6 0 7 1;
#X connect 7 0 2 0;
#X connect 9 0 8 1;
#X connect 10 0 22 0;
#X connect 11 1 23 0;
#X connect 12 0 13 0;
#X connect 12 0 25 0;
#X connect 13 0 12 1;
#X connect 14 0 8 0;
#X connect 15 0 16 0;
#X connect 16 0 12 1;
#X connect 16 0 20 1;
#X connect 18 0 10 0;
#X connect 18 1 15 0;
#X connect 18 2 19 0;
#X connect 20 0 21 0;
#X connect 20 0 23 1;
#X connect 21 0 20 1;
#X connect 22 0 11 0;
#X connect 22 1 20 0;
#X connect 23 0 24 0;
#X connect 24 0 14 0;
#X connect 24 1 12 0;
#X connect 25 0 9 0;
#X connect 25 1 17 0;
#X connect 26 0 96 0;
#X connect 30 0 87 0;
#X connect 31 0 30 1;
#X connect 31 1 79 0;
#X connect 32 0 33 0;
#X connect 33 0 7 0;
#X connect 33 1 5 0;
#X connect 33 2 6 1;
#X connect 35 0 43 0;
#X connect 36 0 51 0;
#X connect 37 0 46 0;
#X connect 38 0 41 0;
#X connect 40 0 44 0;
#X connect 41 0 40 0;
#X connect 42 0 44 0;
#X connect 43 0 36 0;
#X connect 43 1 42 0;
#X connect 44 0 45 1;
#X connect 45 0 47 0;
#X connect 46 0 45 0;
#X connect 46 1 48 0;
#X connect 47 0 65 0;
#X connect 48 0 49 1;
#X connect 49 0 50 0;
#X connect 50 0 39 0;
#X connect 51 0 37 0;
#X connect 51 1 38 0;
#X connect 51 2 40 1;
#X connect 52 0 54 0;
#X connect 52 0 61 0;
#X connect 53 0 52 0;
#X connect 53 1 54 0;
#X connect 53 1 61 0;
#X connect 54 0 56 0;
#X connect 55 0 57 0;
#X connect 56 0 52 1;
#X connect 57 0 58 0;
#X connect 58 0 59 0;
#X connect 58 1 60 0;
#X connect 58 2 61 1;
#X connect 59 0 62 0;
#X connect 60 0 53 0;
#X connect 62 0 83 0;
#X connect 63 0 64 1;
#X connect 64 0 63 0;
#X connect 64 0 85 0;
#X connect 65 0 64 0;
#X connect 65 1 49 1;
#X connect 65 2 49 0;
#X connect 65 3 39 1;
#X connect 66 0 64 1;
#X connect 67 0 81 0;
#X connect 67 1 35 0;
#X connect 67 2 34 0;
#X connect 67 3 66 0;
#X connect 68 0 70 0;
#X connect 68 0 77 0;
#X connect 69 0 68 0;
#X connect 69 1 70 0;
#X connect 69 1 77 0;
#X connect 70 0 72 0;
#X connect 71 0 73 0;
#X connect 72 0 68 1;
#X connect 73 0 74 0;
#X connect 74 0 75 0;
#X connect 74 1 78 0;
#X connect 74 2 77 1;
#X connect 75 0 76 0;
#X connect 78 0 69 0;
#X connect 79 0 29 0;
#X connect 80 1 67 0;
#X connect 81 0 91 0;
#X connect 82 0 81 0;
#X connect 82 1 83 0;
#X connect 82 2 88 1;
#X connect 83 0 88 0;
#X connect 84 0 85 1;
#X connect 85 0 55 0;
#X connect 86 0 84 0;
#X connect 87 0 80 0;
#X connect 88 0 91 1;
#X connect 89 0 95 0;
#X connect 90 0 82 0;
#X connect 91 0 18 0;
#X connect 93 0 30 0;
#X connect 94 0 90 0;
#X connect 95 0 94 0;
#X connect 96 0 93 0;
#X restore 346 97 pd adt;
#N canvas 76 55 1060 655 load-midi-loop 1;
#X msg 394 171 flush;
#X obj 508 296 / 4;
#X obj 508 273 unpack 0 0 0 0 0;
#X msg 308 604 read \$1;
#X obj 394 218 pdmus/midi-player;
#X obj 647 461 t b b, f 19;
#X obj 427 594 outlet;
#X obj 427 573 pdmus/midi-sort-events, f 56;
#X obj 547 464 * 8;
#X obj 427 530 + 0, f 18;
#X obj 394 129 t b a b, f 33;
#X msg 589 148 0;
#X obj 493 318 f;
#X obj 427 508 unpack 0 0 0;
#X obj 427 551 pack 0 0 0, f 12;
#X obj 493 383 f 0;
#X obj 523 383 + 1;
#X obj 532 486 f;
#X obj 493 406 sel 0 1, f 23;
#X obj 493 338 sel 2 4, f 52;
#X obj 493 441 t b b, f 7;
#X msg 493 463 flush;
#X obj 589 166 s \$0-reset-count;
#X obj 647 483 s \$0-end-analysis;
#X obj 577 294 s \$0-ticks/4;
#X obj 547 442 r \$0-ticks/4;
#X obj 508 361 r \$0-reset-count;
#X obj 875 215 s \$0-reset-chords;
#X obj 540 507 r \$0-reset-count;
#X obj 394 193 t a b b, f 79;
#X text 774 465 here we could send a bang when the midifile analysis
is done., f 31;
#X obj 3 299 hcs/folder_list;
#X obj 13 112 openpanel;
#X obj 13 133 jasch_lib/strtok /;
#X obj 13 153 t a a, f 10;
#X obj 70 173 list length;
#X obj 13 214 list split;
#X obj 70 194 - 1;
#X obj 13 236 zexy/list2symbol /;
#X obj 204 342 + 1;
#X obj 13 257 makefilename /%s/*.mid;
#X obj 13 68 r \$0-load-folder;
#X obj 174 365 s \$0-files-in-folder;
#X obj 3 320 t s b, f 29;
#X obj 3 278 trigger symbol bang, f 24;
#X obj 3 365 list prepend, f 26;
#X obj 13 90 t b b b, f 45;
#X obj 3 578 cyclone/coll;
#C restore;
#X msg 280 390 clear;
#X obj 15 394 r \$0-file-index;
#X msg 190 320 0;
#X obj 174 342 f 0;
#X obj 865 235 \$0;
#X obj 865 319 pack 0 \$0;
#X obj 3 8 r \$0-load-corpus;
#X msg 865 255 8 \; \$1-bassseq const -1 \; \$1-set-spread 0 \;;
#X obj 865 298 vabs/forloop;
#X obj 12 28 bng 15 250 50 0 empty empty empty 17 7 0 10 -262144 -1
-1;
#X obj 508 253 vabs/oncev;
#X obj 647 440 vabs/oncev;
#X obj 15 437 t f b b;
#X obj 15 415 play-update2 63 \$0;
#X obj 34 539 pdmus/midi-panic-ch 1;
#X obj 54 478 pdmus/midi-panic-ch 2;
#X obj 69 438 r \$0-ch-bass;
#X obj 34 519 f 1;
#X obj 54 458 f 2;
#X obj 49 499 r \$0-ch-chords;
#X msg 865 340 \; \$2-showchordname-\$1 0 \;;
#X msg 3 48 symbol ./corpus-harmony/*.mid;
#X connect 0 0 29 0;
#X connect 1 0 12 1;
#X connect 2 0 1 0;
#X connect 2 3 24 0;
#X connect 3 0 10 0;
#X connect 4 1 13 0;
#X connect 4 2 58 0;
#X connect 4 3 12 0;
#X connect 5 1 7 1;
#X connect 7 0 6 0;
#X connect 8 0 17 1;
#X connect 9 0 14 0;
#X connect 10 0 0 0;
#X connect 10 1 4 0;
#X connect 10 2 11 0;
#X connect 11 0 22 0;
#X connect 12 0 19 0;
#X connect 13 0 9 0;
#X connect 13 1 14 1;
#X connect 13 2 14 2;
#X connect 14 0 7 0;
#X connect 15 0 16 0;
#X connect 15 0 18 0;
#X connect 16 0 15 1;
#X connect 17 0 9 1;
#X connect 18 0 20 0;
#X connect 18 1 59 0;
#X connect 19 0 15 0;
#X connect 19 1 59 0;
#X connect 20 0 21 0;
#X connect 20 1 17 0;
#X connect 21 0 4 0;
#X connect 25 0 8 0;
#X connect 26 0 15 1;
#X connect 28 0 9 1;
#X connect 29 0 4 0;
#X connect 29 1 58 1;
#X connect 29 1 59 1;
#X connect 29 2 27 0;
#X connect 29 2 52 0;
#X connect 31 0 43 0;
#X connect 32 0 33 0;
#X connect 33 0 34 0;
#X connect 34 0 36 0;
#X connect 34 1 35 0;
#X connect 35 0 37 0;
#X connect 36 0 38 0;
#X connect 37 0 36 1;
#X connect 38 0 40 0;
#X connect 39 0 51 1;
#X connect 40 0 44 0;
#X connect 41 0 46 0;
#X connect 43 0 45 0;
#X connect 43 1 51 0;
#X connect 44 0 31 0;
#X connect 45 0 47 0;
#X connect 46 0 32 0;
#X connect 46 1 50 0;
#X connect 46 2 48 0;
#X connect 47 0 3 0;
#X connect 48 0 47 0;
#X connect 49 0 61 0;
#X connect 50 0 51 1;
#X connect 51 0 39 0;
#X connect 51 0 42 0;
#X connect 51 0 45 1;
#X connect 52 0 55 0;
#X connect 53 0 68 0;
#X connect 54 0 69 0;
#X connect 55 0 56 0;
#X connect 56 0 53 0;
#X connect 57 0 69 0;
#X connect 58 0 2 0;
#X connect 59 0 5 0;
#X connect 60 0 47 0;
#X connect 60 1 65 0;
#X connect 60 2 66 0;
#X connect 61 0 60 0;
#X connect 64 0 66 1;
#X connect 65 0 62 0;
#X connect 66 0 63 0;
#X connect 67 0 65 1;
#X connect 69 0 44 0;
#X restore 346 116 pd load-midi-loop;
#N canvas 0 89 450 300 (subpatch) 0;
#X array \$0-density-pattern 64 float 0;
#X coords 0 64 63 0 100 100 1 0 0;
#X restore 114 21 graph;
#X text 10 134 TO DO's:;
#X text 9 155 add colors to chord height... (brigthness) and range.
, f 54;
#N canvas 582 55 221 480 loadbangs 0;
#X obj 14 125 f \$0;
#X obj 14 106 t b a, f 11;
#X obj 14 87 zexy/list2symbol;
#X obj 14 144 list append;
#X obj 21 28 s \$0-create-visuals;
#X msg 14 68 HOUSE HARMONIC FILLER;
#X obj 14 375 delay;
#X obj 14 394 \$0;
#X msg 14 415 \; \$1-set-chord-pattern 2 \;;
#X obj 14 7 loadbang;
#X obj 14 48 del 200;
#X msg 14 167 300 \; \$1-title label \$2 \; \$1-title label_pos 10
18 \; \$1-title label_font 3 16 \; \$1-title vis_size 620 510 \; \$1-title
color 11 10 \; \$1-set-ch-chords 1 \; \$1-set-chords-volume 80 \; \$1-set-chords-octave
3 \; \$1-set-register set 0 \; \$1-set-tempo 125 \; \$1-set-clock-mode
1 \; \$1-set-keyfifths set 6 \; \$1-init-plot bang \; \$1-preset-density
4 \; \$1-set-legato set 100 \; \$1-init bang \; \$1-load-corpus bang
\; \$1-init-mem bang;
#X connect 0 0 3 0;
#X connect 1 0 0 0;
#X connect 1 1 3 1;
#X connect 2 0 1 0;
#X connect 3 0 11 0;
#X connect 3 0 11 0;
#X connect 5 0 2 0;
#X connect 6 0 7 0;
#X connect 7 0 8 0;
#X connect 9 0 4 0;
#X connect 9 0 10 0;
#X connect 10 0 5 0;
#X connect 11 0 6 0;
#X restore 345 40 pd loadbangs;
#N canvas 210 50 522 653 get-chord-progression 0;
#X obj 11 5 inlet;
#X obj 380 47 unpack 0 0 0 0;
#X obj 380 88 /;
#X obj 434 89 != 0;
#X obj 380 108 * 4;
#X obj 380 128 pack, f 9;
#X obj 11 26 t l l, f 62;
#X msg 380 169 \$2 \$1;
#X obj 11 593 outlet;
#X obj 380 593 outlet;
#X obj 11 48 pdmus/chord-make;
#X obj 38 92 pdmus/chord-estimate;
#X obj 77 250 list prepend;
#X obj 77 296 list2symbol, f 15;
#X obj 155 112 t f f;
#X obj 155 175 -, f 5;
#X obj 155 207 mod 12;
#X obj 11 69 t l l;
#X obj 239 175 * -1;
#X text 287 593 onset position;
#X msg 164 275 symbol;
#X obj 11 405 t l l, f 21;
#X obj 134 551 * -12;
#X obj 11 571 pdmus/chord-transpose;
#X msg 52 72 bang;
#X obj 134 446 t l l, f 16;
#X obj 227 467 list length;
#X obj 134 488 /, f 16;
#X obj 134 510 int;
#X obj 134 530 div 12;
#X obj 249 288 pack, f 19;
#X obj 249 214 - 5;
#X obj 249 236 mod 12;
#X obj 395 68 r \$0-ticks/4;
#X obj 249 309 tabwrite \$0-bassseq;
#X obj 77 340 pack s f, f 49;
#X text 57 593 basic chord structure;
#N canvas 479 168 329 231 display-chord-names 0;
#X obj 50 13 inlet;
#X obj 77 58 f 0;
#X obj 107 58 + 1;
#X obj 50 123 s, f 5;
#X obj 77 101 makefilename \$0-chordname-%d;
#X obj 77 79 mod 8;
#X text 95 124 chord \, step;
#X obj 50 34 t a b;
#X text 46 170 quantize to quaver;
#X connect 0 0 7 0;
#X connect 1 0 2 0;
#X connect 1 0 5 0;
#X connect 2 0 1 1;
#X connect 4 0 3 1;
#X connect 5 0 4 0;
#X connect 7 0 3 0;
#X connect 7 1 1 0;
#X restore 77 361 pd display-chord-names;
#X obj 380 189 route 1;
#X obj 239 112 r \$0-reset-chords;
#X obj 380 148 vabs/change-any;
#X obj 77 317 vabs/change-symbol;
#X text 197 317 ????;
#X obj 134 426 vabs/add2list prepend;
#X obj 134 467 vabs/list-sum;
#N canvas 435 144 673 589 pc2names 0;
#X obj 9 10 inlet;
#X obj 199 320 sel 0 1 2 3 4 5 6 7 8 9 10 11, f 64;
#X msg 199 353 I;
#X msg 230 353 bII;
#X msg 262 353 II;
#X msg 290 353 bIII;
#X msg 326 353 III;
#X msg 357 353 IV;
#X msg 421 353 V;
#X msg 453 353 bVI;
#X msg 484 353 VI;
#X msg 516 353 bVII;
#X msg 389 353 #IV;
#X obj 199 437 symbol;
#X msg 558 353 VII;
#X obj 214 40 inlet;
#X obj 169 64 pack f f;
#X obj 169 113 route 0 1 2 3 4 5 6 7 8 9 10 11, f 81;
#X msg 169 86 \$2 \$1;
#N canvas 0 50 450 300 C 0;
#X obj 9 31 sel 0 1 2 3 4 5 6 7 8 9 10 11, f 64;
#X msg 9 64 I;
#X msg 40 64 bII;
#X msg 72 64 II;
#X msg 100 64 bIII;
#X msg 136 64 III;
#X msg 167 64 IV;
#X msg 231 64 V;
#X msg 263 64 bVI;
#X msg 294 64 VI;
#X msg 326 64 bVII;
#X msg 199 64 #IV;
#X msg 368 64 VII;
#X obj 9 8 inlet;
#X obj 9 148 outlet;
#X connect 0 0 1 0;
#X connect 0 1 2 0;
#X connect 0 2 3 0;
#X connect 0 3 4 0;
#X connect 0 4 5 0;
#X connect 0 5 6 0;
#X connect 0 6 11 0;
#X connect 0 7 7 0;
#X connect 0 8 8 0;
#X connect 0 9 9 0;
#X connect 0 10 10 0;
#X connect 0 11 12 0;
#X connect 1 0 14 0;
#X connect 2 0 14 0;
#X connect 3 0 14 0;
#X connect 4 0 14 0;
#X connect 5 0 14 0;
#X connect 6 0 14 0;
#X connect 7 0 14 0;
#X connect 8 0 14 0;
#X connect 9 0 14 0;
#X connect 10 0 14 0;
#X connect 11 0 14 0;
#X connect 12 0 14 0;
#X connect 13 0 0 0;
#X restore 169 167 pd C;
#N canvas 0 50 450 300 Db 0;
#X obj 9 31 sel 0 1 2 3 4 5 6 7 8 9 10 11, f 64;
#X msg 9 64 I;
#X msg 40 64 bII;
#X msg 72 64 II;
#X msg 100 64 bIII;
#X msg 136 64 III;
#X msg 167 64 IV;
#X msg 231 64 V;
#X msg 263 64 bVI;
#X msg 294 64 VI;
#X msg 326 64 bVII;
#X msg 199 64 #IV;
#X msg 368 64 VII;
#X obj 9 8 inlet;
#X obj 9 148 outlet;
#X connect 0 0 1 0;
#X connect 0 1 2 0;
#X connect 0 2 3 0;
#X connect 0 3 4 0;
#X connect 0 4 5 0;
#X connect 0 5 6 0;
#X connect 0 6 11 0;
#X connect 0 7 7 0;
#X connect 0 8 8 0;
#X connect 0 9 9 0;
#X connect 0 10 10 0;
#X connect 0 11 12 0;
#X connect 1 0 14 0;
#X connect 2 0 14 0;
#X connect 3 0 14 0;
#X connect 4 0 14 0;
#X connect 5 0 14 0;
#X connect 6 0 14 0;
#X connect 7 0 14 0;
#X connect 8 0 14 0;
#X connect 9 0 14 0;
#X connect 10 0 14 0;
#X connect 11 0 14 0;
#X connect 12 0 14 0;
#X connect 13 0 0 0;
#X restore 209 167 pd Db;
#N canvas 0 50 450 300 D 0;
#X obj 9 31 sel 0 1 2 3 4 5 6 7 8 9 10 11, f 64;
#X msg 9 64 I;
#X msg 40 64 bII;
#X msg 72 64 II;
#X msg 100 64 bIII;
#X msg 136 64 III;
#X msg 167 64 IV;
#X msg 231 64 V;
#X msg 263 64 bVI;
#X msg 294 64 VI;
#X msg 326 64 bVII;
#X msg 199 64 #IV;
#X msg 368 64 VII;
#X obj 9 8 inlet;
#X obj 9 148 outlet;
#X connect 0 0 1 0;
#X connect 0 1 2 0;
#X connect 0 2 3 0;
#X connect 0 3 4 0;
#X connect 0 4 5 0;
#X connect 0 5 6 0;
#X connect 0 6 11 0;
#X connect 0 7 7 0;
#X connect 0 8 8 0;
#X connect 0 9 9 0;
#X connect 0 10 10 0;
#X connect 0 11 12 0;
#X connect 1 0 14 0;
#X connect 2 0 14 0;
#X connect 3 0 14 0;
#X connect 4 0 14 0;
#X connect 5 0 14 0;
#X connect 6 0 14 0;
#X connect 7 0 14 0;
#X connect 8 0 14 0;
#X connect 9 0 14 0;
#X connect 10 0 14 0;
#X connect 11 0 14 0;
#X connect 12 0 14 0;
#X connect 13 0 0 0;
#X restore 249 167 pd D;
#N canvas 0 50 450 300 Eb 0;
#X obj 9 31 sel 0 1 2 3 4 5 6 7 8 9 10 11, f 64;
#X msg 9 64 I;
#X msg 40 64 bII;
#X msg 72 64 II;
#X msg 100 64 bIII;
#X msg 136 64 III;
#X msg 167 64 IV;
#X msg 231 64 V;
#X msg 263 64 bVI;
#X msg 294 64 VI;
#X msg 326 64 bVII;
#X msg 199 64 #IV;
#X msg 368 64 VII;
#X obj 9 8 inlet;
#X obj 9 148 outlet;
#X connect 0 0 1 0;
#X connect 0 1 2 0;
#X connect 0 2 3 0;
#X connect 0 3 4 0;
#X connect 0 4 5 0;
#X connect 0 5 6 0;
#X connect 0 6 11 0;
#X connect 0 7 7 0;
#X connect 0 8 8 0;
#X connect 0 9 9 0;
#X connect 0 10 10 0;
#X connect 0 11 12 0;
#X connect 1 0 14 0;
#X connect 2 0 14 0;
#X connect 3 0 14 0;
#X connect 4 0 14 0;
#X connect 5 0 14 0;
#X connect 6 0 14 0;
#X connect 7 0 14 0;
#X connect 8 0 14 0;
#X connect 9 0 14 0;
#X connect 10 0 14 0;
#X connect 11 0 14 0;
#X connect 12 0 14 0;
#X connect 13 0 0 0;
#X restore 289 167 pd Eb;
#N canvas 0 50 450 300 E 0;
#X obj 9 31 sel 0 1 2 3 4 5 6 7 8 9 10 11, f 64;
#X msg 9 64 I;
#X msg 40 64 bII;
#X msg 72 64 II;
#X msg 100 64 bIII;
#X msg 136 64 III;
#X msg 167 64 IV;
#X msg 231 64 V;
#X msg 263 64 bVI;
#X msg 294 64 VI;
#X msg 326 64 bVII;
#X msg 199 64 #IV;
#X msg 368 64 VII;
#X obj 9 8 inlet;
#X obj 9 148 outlet;
#X connect 0 0 1 0;
#X connect 0 1 2 0;
#X connect 0 2 3 0;
#X connect 0 3 4 0;
#X connect 0 4 5 0;
#X connect 0 5 6 0;
#X connect 0 6 11 0;
#X connect 0 7 7 0;
#X connect 0 8 8 0;
#X connect 0 9 9 0;
#X connect 0 10 10 0;
#X connect 0 11 12 0;
#X connect 1 0 14 0;
#X connect 2 0 14 0;
#X connect 3 0 14 0;
#X connect 4 0 14 0;
#X connect 5 0 14 0;
#X connect 6 0 14 0;
#X connect 7 0 14 0;
#X connect 8 0 14 0;
#X connect 9 0 14 0;
#X connect 10 0 14 0;
#X connect 11 0 14 0;
#X connect 12 0 14 0;
#X connect 13 0 0 0;
#X restore 330 167 pd E;
#N canvas 0 50 450 300 F 0;
#X obj 9 31 sel 0 1 2 3 4 5 6 7 8 9 10 11, f 64;
#X msg 9 64 I;
#X msg 40 64 bII;
#X msg 72 64 II;
#X msg 100 64 bIII;
#X msg 136 64 III;
#X msg 167 64 IV;
#X msg 231 64 V;
#X msg 263 64 bVI;
#X msg 294 64 VI;
#X msg 326 64 bVII;
#X msg 199 64 #IV;
#X msg 368 64 VII;
#X obj 9 8 inlet;
#X obj 9 148 outlet;
#X connect 0 0 1 0;
#X connect 0 1 2 0;
#X connect 0 2 3 0;
#X connect 0 3 4 0;
#X connect 0 4 5 0;
#X connect 0 5 6 0;
#X connect 0 6 11 0;
#X connect 0 7 7 0;
#X connect 0 8 8 0;
#X connect 0 9 9 0;
#X connect 0 10 10 0;
#X connect 0 11 12 0;
#X connect 1 0 14 0;
#X connect 2 0 14 0;
#X connect 3 0 14 0;
#X connect 4 0 14 0;
#X connect 5 0 14 0;
#X connect 6 0 14 0;
#X connect 7 0 14 0;
#X connect 8 0 14 0;
#X connect 9 0 14 0;
#X connect 10 0 14 0;
#X connect 11 0 14 0;
#X connect 12 0 14 0;
#X connect 13 0 0 0;
#X restore 370 167 pd F;
#N canvas 0 50 450 300 F# 0;
#X obj 9 31 sel 0 1 2 3 4 5 6 7 8 9 10 11, f 64;
#X msg 9 64 I;
#X msg 40 64 bII;
#X msg 72 64 II;
#X msg 100 64 bIII;
#X msg 136 64 III;
#X msg 167 64 IV;
#X msg 231 64 V;
#X msg 263 64 bVI;
#X msg 294 64 VI;
#X msg 326 64 bVII;
#X msg 199 64 #IV;
#X msg 368 64 VII;
#X obj 9 8 inlet;
#X obj 9 148 outlet;
#X connect 0 0 1 0;
#X connect 0 1 2 0;
#X connect 0 2 3 0;
#X connect 0 3 4 0;
#X connect 0 4 5 0;
#X connect 0 5 6 0;
#X connect 0 6 11 0;
#X connect 0 7 7 0;
#X connect 0 8 8 0;
#X connect 0 9 9 0;
#X connect 0 10 10 0;
#X connect 0 11 12 0;
#X connect 1 0 14 0;
#X connect 2 0 14 0;
#X connect 3 0 14 0;
#X connect 4 0 14 0;
#X connect 5 0 14 0;
#X connect 6 0 14 0;
#X connect 7 0 14 0;
#X connect 8 0 14 0;
#X connect 9 0 14 0;
#X connect 10 0 14 0;
#X connect 11 0 14 0;
#X connect 12 0 14 0;
#X connect 13 0 0 0;
#X restore 410 167 pd F#;
#N canvas 0 50 450 300 G 0;
#X obj 9 31 sel 0 1 2 3 4 5 6 7 8 9 10 11, f 64;
#X msg 9 64 I;
#X msg 40 64 bII;
#X msg 72 64 II;
#X msg 100 64 bIII;
#X msg 136 64 III;
#X msg 167 64 IV;
#X msg 231 64 V;
#X msg 263 64 bVI;
#X msg 294 64 VI;
#X msg 326 64 bVII;
#X msg 199 64 #IV;
#X msg 368 64 VII;
#X obj 9 8 inlet;
#X obj 9 148 outlet;
#X connect 0 0 1 0;
#X connect 0 1 2 0;
#X connect 0 2 3 0;
#X connect 0 3 4 0;
#X connect 0 4 5 0;
#X connect 0 5 6 0;
#X connect 0 6 11 0;
#X connect 0 7 7 0;
#X connect 0 8 8 0;
#X connect 0 9 9 0;
#X connect 0 10 10 0;
#X connect 0 11 12 0;
#X connect 1 0 14 0;
#X connect 2 0 14 0;
#X connect 3 0 14 0;
#X connect 4 0 14 0;
#X connect 5 0 14 0;
#X connect 6 0 14 0;
#X connect 7 0 14 0;
#X connect 8 0 14 0;
#X connect 9 0 14 0;
#X connect 10 0 14 0;
#X connect 11 0 14 0;
#X connect 12 0 14 0;
#X connect 13 0 0 0;
#X restore 450 167 pd G;
#N canvas 0 50 450 300 Ab 0;
#X obj 9 31 sel 0 1 2 3 4 5 6 7 8 9 10 11, f 64;
#X msg 9 64 I;
#X msg 40 64 bII;
#X msg 72 64 II;
#X msg 100 64 bIII;
#X msg 136 64 III;
#X msg 167 64 IV;
#X msg 231 64 V;
#X msg 263 64 bVI;
#X msg 294 64 VI;
#X msg 326 64 bVII;
#X msg 199 64 #IV;
#X msg 368 64 VII;
#X obj 9 8 inlet;
#X obj 9 148 outlet;
#X connect 0 0 1 0;
#X connect 0 1 2 0;
#X connect 0 2 3 0;
#X connect 0 3 4 0;
#X connect 0 4 5 0;
#X connect 0 5 6 0;
#X connect 0 6 11 0;
#X connect 0 7 7 0;
#X connect 0 8 8 0;
#X connect 0 9 9 0;
#X connect 0 10 10 0;
#X connect 0 11 12 0;
#X connect 1 0 14 0;
#X connect 2 0 14 0;
#X connect 3 0 14 0;
#X connect 4 0 14 0;
#X connect 5 0 14 0;
#X connect 6 0 14 0;
#X connect 7 0 14 0;
#X connect 8 0 14 0;
#X connect 9 0 14 0;
#X connect 10 0 14 0;
#X connect 11 0 14 0;
#X connect 12 0 14 0;
#X connect 13 0 0 0;
#X restore 491 167 pd Ab;
#N canvas 0 50 450 300 A 0;
#X obj 9 31 sel 0 1 2 3 4 5 6 7 8 9 10 11, f 64;
#X msg 9 64 I;
#X msg 40 64 bII;
#X msg 72 64 II;
#X msg 100 64 bIII;
#X msg 136 64 III;
#X msg 167 64 IV;
#X msg 231 64 V;
#X msg 263 64 bVI;
#X msg 294 64 VI;
#X msg 326 64 bVII;
#X msg 199 64 #IV;
#X msg 368 64 VII;
#X obj 9 8 inlet;
#X obj 9 148 outlet;
#X connect 0 0 1 0;
#X connect 0 1 2 0;
#X connect 0 2 3 0;
#X connect 0 3 4 0;
#X connect 0 4 5 0;
#X connect 0 5 6 0;
#X connect 0 6 11 0;
#X connect 0 7 7 0;
#X connect 0 8 8 0;
#X connect 0 9 9 0;
#X connect 0 10 10 0;
#X connect 0 11 12 0;
#X connect 1 0 14 0;
#X connect 2 0 14 0;
#X connect 3 0 14 0;
#X connect 4 0 14 0;
#X connect 5 0 14 0;
#X connect 6 0 14 0;
#X connect 7 0 14 0;
#X connect 8 0 14 0;
#X connect 9 0 14 0;
#X connect 10 0 14 0;
#X connect 11 0 14 0;
#X connect 12 0 14 0;
#X connect 13 0 0 0;
#X restore 531 167 pd A;
#N canvas 0 50 450 300 Bb 0;
#X obj 9 31 sel 0 1 2 3 4 5 6 7 8 9 10 11, f 64;
#X msg 9 64 I;
#X msg 40 64 bII;
#X msg 72 64 II;
#X msg 100 64 bIII;
#X msg 136 64 III;
#X msg 167 64 IV;
#X msg 231 64 V;
#X msg 263 64 bVI;
#X msg 294 64 VI;
#X msg 326 64 bVII;
#X msg 199 64 #IV;
#X msg 368 64 VII;
#X obj 9 8 inlet;
#X obj 9 148 outlet;
#X connect 0 0 1 0;
#X connect 0 1 2 0;
#X connect 0 2 3 0;
#X connect 0 3 4 0;
#X connect 0 4 5 0;
#X connect 0 5 6 0;
#X connect 0 6 11 0;
#X connect 0 7 7 0;
#X connect 0 8 8 0;
#X connect 0 9 9 0;
#X connect 0 10 10 0;
#X connect 0 11 12 0;
#X connect 1 0 14 0;
#X connect 2 0 14 0;
#X connect 3 0 14 0;
#X connect 4 0 14 0;
#X connect 5 0 14 0;
#X connect 6 0 14 0;
#X connect 7 0 14 0;
#X connect 8 0 14 0;
#X connect 9 0 14 0;
#X connect 10 0 14 0;
#X connect 11 0 14 0;
#X connect 12 0 14 0;
#X connect 13 0 0 0;
#X restore 571 167 pd Bb;
#N canvas 0 50 450 300 B 0;
#X obj 9 31 sel 0 1 2 3 4 5 6 7 8 9 10 11, f 64;
#X msg 9 64 I;
#X msg 40 64 bII;
#X msg 72 64 II;
#X msg 100 64 bIII;
#X msg 136 64 III;
#X msg 167 64 IV;
#X msg 231 64 V;
#X msg 263 64 bVI;
#X msg 294 64 VI;
#X msg 326 64 bVII;
#X msg 199 64 #IV;
#X msg 368 64 VII;
#X obj 9 8 inlet;
#X obj 9 148 outlet;
#X connect 0 0 1 0;
#X connect 0 1 2 0;
#X connect 0 2 3 0;
#X connect 0 3 4 0;
#X connect 0 4 5 0;
#X connect 0 5 6 0;
#X connect 0 6 11 0;
#X connect 0 7 7 0;
#X connect 0 8 8 0;
#X connect 0 9 9 0;
#X connect 0 10 10 0;
#X connect 0 11 12 0;
#X connect 1 0 14 0;
#X connect 2 0 14 0;
#X connect 3 0 14 0;
#X connect 4 0 14 0;
#X connect 5 0 14 0;
#X connect 6 0 14 0;
#X connect 7 0 14 0;
#X connect 8 0 14 0;
#X connect 9 0 14 0;
#X connect 10 0 14 0;
#X connect 11 0 14 0;
#X connect 12 0 14 0;
#X connect 13 0 0 0;
#X restore 611 167 pd B;
#X obj 202 471 outlet;
#X connect 0 0 16 0;
#X connect 0 0 1 0;
#X connect 1 0 2 0;
#X connect 1 1 3 0;
#X connect 1 2 4 0;
#X connect 1 3 5 0;
#X connect 1 4 6 0;
#X connect 1 5 7 0;
#X connect 1 6 12 0;
#X connect 1 7 8 0;
#X connect 1 8 9 0;
#X connect 1 9 10 0;
#X connect 1 10 11 0;
#X connect 1 11 14 0;
#X connect 2 0 13 0;
#X connect 3 0 13 0;
#X connect 4 0 13 0;
#X connect 5 0 13 0;
#X connect 6 0 13 0;
#X connect 7 0 13 0;
#X connect 8 0 13 0;
#X connect 9 0 13 0;
#X connect 10 0 13 0;
#X connect 11 0 13 0;
#X connect 12 0 13 0;
#X connect 13 0 31 0;
#X connect 14 0 13 0;
#X connect 15 0 16 1;
#X connect 16 0 18 0;
#X connect 17 0 19 0;
#X connect 17 1 20 0;
#X connect 17 2 21 0;
#X connect 17 3 22 0;
#X connect 17 4 23 0;
#X connect 17 5 24 0;
#X connect 17 6 25 0;
#X connect 17 7 26 0;
#X connect 17 8 27 0;
#X connect 17 9 28 0;
#X connect 17 10 29 0;
#X connect 17 11 30 0;
#X connect 18 0 17 0;
#X restore 155 229 pd pc2names;
#X obj 182 154 t f f, f 10;
#X obj 407 230 mod 2;
#X obj 380 210 t f f;
#X obj 380 250 - 1, f 5;
#X obj 182 133 vabs/oncev;
#X obj 164 255 r \$0-init;
#X obj 11 383 pdmus/chord-transpose, f 38;
#X connect 0 0 6 0;
#X connect 1 0 2 0;
#X connect 1 2 3 0;
#X connect 2 0 4 0;
#X connect 3 0 5 1;
#X connect 4 0 5 0;
#X connect 5 0 40 0;
#X connect 6 0 10 0;
#X connect 6 1 1 0;
#X connect 7 0 38 0;
#X connect 10 0 17 0;
#X connect 11 1 12 0;
#X connect 11 3 14 0;
#X connect 12 0 13 0;
#X connect 13 0 41 0;
#X connect 14 0 15 0;
#X connect 14 1 50 0;
#X connect 15 0 16 0;
#X connect 15 0 31 0;
#X connect 16 0 45 0;
#X connect 17 0 52 0;
#X connect 17 1 11 0;
#X connect 18 0 52 1;
#X connect 20 0 13 1;
#X connect 21 0 23 0;
#X connect 21 1 43 0;
#X connect 22 0 23 1;
#X connect 23 0 8 0;
#X connect 24 0 11 0;
#X connect 25 0 44 0;
#X connect 25 1 26 0;
#X connect 26 0 27 1;
#X connect 27 0 28 0;
#X connect 28 0 29 0;
#X connect 29 0 22 0;
#X connect 30 0 34 0;
#X connect 31 0 32 0;
#X connect 32 0 30 0;
#X connect 33 0 2 1;
#X connect 35 0 37 0;
#X connect 38 0 48 0;
#X connect 39 0 50 1;
#X connect 40 0 7 0;
#X connect 41 0 35 0;
#X connect 43 0 25 0;
#X connect 44 0 27 0;
#X connect 45 0 12 1;
#X connect 46 0 15 1;
#X connect 46 1 18 0;
#X connect 47 0 49 1;
#X connect 48 0 49 0;
#X connect 48 1 47 0;
#X connect 49 0 30 1;
#X connect 49 0 35 1;
#X connect 49 0 9 0;
#X connect 50 0 46 0;
#X connect 51 0 20 0;
#X connect 52 0 21 0;
#X restore 346 135 pd get-chord-progression;
#X obj 9 183 r \$0-save-state;
#N canvas 0 115 982 523 gui-transport 0;
#X msg 741 47 9 18;
#X obj 633 68 != 0;
#X msg 741 242 10 18;
#X obj 633 262 != 0;
#X obj 633 111 sel 1;
#X obj 633 304 sel 1;
#X obj 606 6 r \$0-learn-scrollup;
#X obj 633 132 s \$0-set-scroll-up;
#X obj 606 199 r \$0-learn-scrolldown;
#X obj 633 326 s \$0-set-scroll-down;
#X obj 209 335 r \$0-learn-play;
#X obj 236 457 s \$0-set-play;
#X obj 606 220 t b f;
#X obj 606 348 s \$0-save-state;
#X obj 606 27 t b f;
#X obj 606 155 s \$0-save-state;
#X obj 209 356 t b f;
#X obj 209 478 s \$0-save-state;
#X msg 342 47 0 0;
#X obj 235 68 != 0;
#X obj 235 108 tgl 15 0 empty empty empty 17 7 0 10 -262144 -1 -1 0
1;
#X obj 235 88 sel 1;
#X obj 208 27 t b f;
#X obj 208 147 s \$0-save-state;
#X obj 235 126 s \$0-set-clock-mode;
#X obj 208 6 r \$0-learn-sync;
#X msg 547 49 23 18;
#X obj 414 7 r \$0-learn-key5;
#X obj 441 157 s \$0-set-keyfifths;
#X obj 414 28 t b f;
#X obj 414 180 s \$0-save-state;
#X obj 441 92 int;
#X obj 441 136 + 0.5;
#X msg 343 377 26 17;
#X msg 341 221 48 1;
#X obj 208 178 r \$0-learn-tempo;
#X obj 235 283 s \$0-set-tempo;
#X obj 235 241 + 40;
#X obj 208 200 t b f;
#X obj 208 306 s \$0-save-state;
#X msg 809 152 1;
#X msg 839 152 -1;
#X obj 809 208 + 0, f 7;
#X obj 809 271 mod 25;
#X obj 809 108 r \$0-scroll-down;
#X obj 839 131 r \$0-scroll-up;
#X obj 842 230 r \$0-files-in-folder;
#X obj 236 398 != 0;
#X obj 236 438 tgl 15 0 empty empty empty 17 7 0 10 -262144 -1 -1 0
1;
#X obj 236 418 sel 1;
#X obj 633 47 pdmus/midi-learn;
#X obj 633 242 pdmus/midi-learn;
#X obj 235 47 pdmus/midi-learn;
#X obj 441 49 pdmus/midi-learn;
#X obj 235 221 pdmus/midi-learn;
#X obj 236 377 pdmus/midi-learn;
#X msg 140 50 7 28;
#X obj 7 29 t b f;
#X obj 7 158 s \$0-save-state;
#X obj 34 93 int;
#X obj 34 50 pdmus/midi-learn;
#X obj 7 8 r \$0-learn-rhythm;
#X obj 34 135 s \$0-set-chord-pattern;
#X obj 842 251 + 1;
#X obj 809 294 s \$0-file-index;
#X obj 848 187 r \$0-file-index;
#X obj 34 114 change -1;
#X obj 235 261 change -1;
#X obj 441 113 change -1;
#X obj 633 89 change -1;
#X obj 633 283 change -1;
#X obj 441 71 vabs/vscale 0 127 0 12;
#X obj 34 71 vabs/vscale 0 127 0 27;
#X connect 0 0 50 1;
#X connect 1 0 69 0;
#X connect 2 0 51 1;
#X connect 3 0 70 0;
#X connect 4 0 7 0;
#X connect 5 0 9 0;
#X connect 6 0 14 0;
#X connect 8 0 12 0;
#X connect 10 0 16 0;
#X connect 12 0 13 0;
#X connect 12 1 51 0;
#X connect 14 0 15 0;
#X connect 14 1 50 0;
#X connect 16 0 17 0;
#X connect 16 1 55 0;
#X connect 18 0 52 1;
#X connect 19 0 21 0;
#X connect 20 0 24 0;
#X connect 21 0 20 0;
#X connect 22 0 23 0;
#X connect 22 1 52 0;
#X connect 25 0 22 0;
#X connect 26 0 53 1;
#X connect 27 0 29 0;
#X connect 29 0 30 0;
#X connect 29 1 53 0;
#X connect 31 0 68 0;
#X connect 32 0 28 0;
#X connect 33 0 55 1;
#X connect 34 0 54 1;
#X connect 35 0 38 0;
#X connect 37 0 67 0;
#X connect 38 0 39 0;
#X connect 38 1 54 0;
#X connect 40 0 42 0;
#X connect 41 0 42 0;
#X connect 42 0 43 0;
#X connect 43 0 64 0;
#X connect 44 0 40 0;
#X connect 45 0 41 0;
#X connect 46 0 63 0;
#X connect 47 0 49 0;
#X connect 48 0 11 0;
#X connect 49 0 48 0;
#X connect 50 0 1 0;
#X connect 50 1 0 0;
#X connect 51 0 3 0;
#X connect 51 1 2 0;
#X connect 52 0 19 0;
#X connect 52 1 18 0;
#X connect 53 0 71 0;
#X connect 53 1 26 0;
#X connect 54 0 37 0;
#X connect 54 1 34 0;
#X connect 55 0 47 0;
#X connect 55 1 33 0;
#X connect 56 0 60 1;
#X connect 57 0 58 0;
#X connect 57 1 60 0;
#X connect 59 0 66 0;
#X connect 60 0 72 0;
#X connect 60 1 56 0;
#X connect 61 0 57 0;
#X connect 63 0 43 1;
#X connect 65 0 42 1;
#X connect 66 0 62 0;
#X connect 67 0 36 0;
#X connect 68 0 32 0;
#X connect 69 0 4 0;
#X connect 70 0 5 0;
#X connect 71 0 31 0;
#X connect 72 0 59 0;
#X restore 346 191 pd gui-transport;
#N canvas 57 50 810 733 gui-chords 0;
#X msg 143 42 1 28;
#X msg 144 155 2 28;
#X msg 144 431 4 28;
#X obj 38 469 int;
#X obj 443 4 r \$0-learn-register;
#X obj 10 5 r \$0-learn-density;
#X obj 11 117 r \$0-learn-legato;
#X obj 10 23 t b f;
#X obj 10 81 s \$0-save-state;
#X obj 11 136 t b f;
#X obj 11 195 s \$0-save-state;
#X msg 144 270 3 28;
#X obj 11 249 t b f;
#X obj 11 366 s \$0-save-state;
#X obj 11 231 r \$0-learn-chords-octave;
#X obj 38 346 s \$0-set-chords-octave;
#X obj 38 309 int;
#X obj 444 302 == 0, f 10;
#X obj 444 323 sel 1;
#X obj 444 343 f, f 12;
#X obj 444 230 t f f f, f 20;
#X obj 444 386 line 0;
#X msg 454 257 clear;
#X msg 444 443 set \$1;
#X obj 444 191 r \$0-raw-register;
#X obj 561 462 s \$0-register;
#X obj 444 463 s \$0-set-register;
#X obj 11 410 t b f;
#X obj 11 526 s \$0-save-state;
#X msg 636 40 5 28;
#X obj 470 78 int;
#X obj 470 119 s \$0-set-register;
#X obj 443 22 t b f;
#X obj 443 139 s \$0-save-state;
#X obj 37 42 pdmus/midi-learn;
#X obj 38 155 pdmus/midi-learn;
#X obj 38 431 pdmus/midi-learn;
#X obj 38 270 pdmus/midi-learn;
#X obj 470 40 pdmus/midi-learn, f 25;
#X obj 650 442 ctlout;
#X obj 650 376 t b b;
#X msg 650 400 64;
#X obj 650 420 list append;
#X msg 713 398 5 28;
#X obj 38 327 change -1;
#X obj 38 488 change -1;
#X obj 444 282 pipe 300;
#X msg 444 365 \$1 \, 0 400;
#X obj 444 210 int;
#X obj 470 99 change -1;
#X obj 452 407 int;
#X obj 561 442 change -1;
#X obj 37 62 s set-\$0-density;
#X obj 11 391 r \$0-learn-spread;
#X obj 38 507 s \$0-set-spread;
#X msg 144 592 16 28;
#X obj 38 611 / 64;
#X obj 38 629 int;
#X obj 11 573 t b f;
#X obj 11 687 s \$0-save-state;
#X obj 38 592 pdmus/midi-learn;
#X obj 38 647 change -1;
#X obj 11 554 r \$0-learn-mute-chords;
#X obj 38 666 s \$0-set-mute-chords;
#X obj 202 67 int;
#X obj 265 98 s set-\$0-density;
#X obj 202 7 r \$0-preset-density;
#X obj 202 27 route float;
#X obj 38 290 vabs/vscale 0 127 0 6;
#X obj 38 450 vabs/vscale 0 127 0 4;
#X obj 470 59 vabs/vscale 0 127 -2 2;
#X obj 202 49 vabs/vscale 0 64 0 127;
#X obj 38 176 s \$0-set-legato;
#X msg 379 587 50 28;
#X obj 246 568 t b f;
#X obj 246 627 s \$0-save-state;
#X obj 273 587 pdmus/midi-learn;
#X obj 246 549 r \$0-learn-chords-volume;
#X obj 273 608 s \$0-set-chords-volume;
#X connect 0 0 34 1;
#X connect 1 0 35 1;
#X connect 2 0 36 1;
#X connect 3 0 45 0;
#X connect 4 0 32 0;
#X connect 5 0 7 0;
#X connect 6 0 9 0;
#X connect 7 0 8 0;
#X connect 7 1 34 0;
#X connect 9 0 10 0;
#X connect 9 1 35 0;
#X connect 11 0 37 1;
#X connect 12 0 13 0;
#X connect 12 1 37 0;
#X connect 14 0 12 0;
#X connect 16 0 44 0;
#X connect 17 0 18 0;
#X connect 18 0 19 0;
#X connect 18 0 40 0;
#X connect 19 0 47 0;
#X connect 20 0 46 0;
#X connect 20 1 17 1;
#X connect 20 1 22 0;
#X connect 20 2 19 1;
#X connect 20 2 51 0;
#X connect 21 0 23 0;
#X connect 21 0 50 0;
#X connect 22 0 46 0;
#X connect 23 0 26 0;
#X connect 24 0 48 0;
#X connect 27 0 28 0;
#X connect 27 1 36 0;
#X connect 29 0 38 1;
#X connect 30 0 49 0;
#X connect 32 0 33 0;
#X connect 32 1 38 0;
#X connect 34 0 52 0;
#X connect 34 1 0 0;
#X connect 35 0 72 0;
#X connect 35 1 1 0;
#X connect 36 0 69 0;
#X connect 36 1 2 0;
#X connect 37 0 68 0;
#X connect 37 1 11 0;
#X connect 38 0 70 0;
#X connect 38 1 29 0;
#X connect 38 1 43 0;
#X connect 40 0 41 0;
#X connect 40 1 43 0;
#X connect 41 0 42 0;
#X connect 42 0 39 0;
#X connect 43 0 42 1;
#X connect 44 0 15 0;
#X connect 45 0 54 0;
#X connect 46 0 17 0;
#X connect 47 0 21 0;
#X connect 48 0 20 0;
#X connect 49 0 31 0;
#X connect 50 0 51 0;
#X connect 51 0 25 0;
#X connect 53 0 27 0;
#X connect 55 0 60 1;
#X connect 56 0 57 0;
#X connect 57 0 61 0;
#X connect 58 0 59 0;
#X connect 58 1 60 0;
#X connect 60 0 56 0;
#X connect 60 1 55 0;
#X connect 61 0 63 0;
#X connect 62 0 58 0;
#X connect 64 0 65 0;
#X connect 66 0 67 0;
#X connect 67 0 71 0;
#X connect 67 1 65 0;
#X connect 68 0 16 0;
#X connect 69 0 3 0;
#X connect 70 0 30 0;
#X connect 71 0 64 0;
#X connect 73 0 76 1;
#X connect 74 0 75 0;
#X connect 74 1 76 0;
#X connect 76 0 78 0;
#X connect 76 1 73 0;
#X connect 77 0 74 0;
#X restore 346 211 pd gui-chords;
#N canvas 3 50 542 376 harmonic-rhythm 0;
#X obj 166 138 zexy/repack 2;
#X obj 220 200 f 0;
#X obj 250 200 + 1;
#X obj 220 276 makefilename \$0-master-chord-fill-%d;
#X obj 193 295 s, f 5;
#X obj 193 179 t a b;
#X obj 6 106 s \$0-load-rhythm;
#X msg 166 315 \$2 \$1;
#X obj 357 106 \$0;
#X obj 166 157 t l l;
#X obj 166 335 tabwrite \$0-master-pattern;
#X obj 6 86 t b f b, f 59;
#X obj 220 238 t f f;
#X obj 247 257 s \$0-master-chord-show;
#X msg 357 125 0 \; \$1-master-pattern const 0 \; \$1-master-chord-show
64;
#X obj 220 219 mod 64;
#X obj 6 47 int;
#X obj 6 7 r \$0-chord-pattern;
#X obj 6 28 vabs/delgate 500;
#X obj 6 66 play-update 64 \$0;
#X obj 166 107 cyclone/coll ./pd-user/rhythm.txt;
#C restore;
#X connect 0 0 9 0;
#X connect 1 0 2 0;
#X connect 1 0 15 0;
#X connect 2 0 1 1;
#X connect 3 0 4 1;
#X connect 5 0 4 0;
#X connect 5 1 1 0;
#X connect 7 0 10 0;
#X connect 8 0 14 0;
#X connect 9 0 7 0;
#X connect 9 1 5 0;
#X connect 11 0 6 0;
#X connect 11 1 20 0;
#X connect 11 2 8 0;
#X connect 12 0 3 0;
#X connect 12 1 13 0;
#X connect 14 0 1 1;
#X connect 15 0 12 0;
#X connect 16 0 19 0;
#X connect 17 0 18 0;
#X connect 18 0 16 0;
#X connect 19 0 11 0;
#X connect 20 0 0 0;
#X restore 346 78 pd harmonic-rhythm;
#N canvas 0 89 993 388 scattered-plot 0;
#N canvas 531 148 461 310 area 0;
#X obj 14 15 struct \$0-area float x float y float size;
#X obj 14 41 drawpolygon -x 1 2 0 0 size 0 size size 0 size 0 0;
#X restore 8 10 pd area;
#N canvas 525 174 461 310 xsis 0;
#X obj 16 41 drawpolygon -x 1 1 0 0 length 0;
#X obj 14 15 struct \$0-xsis float x float y float length;
#X restore 8 30 pd xsis;
#N canvas 531 148 461 310 ysis 0;
#X obj 16 41 drawpolygon -x 1 1 0 0 0 heigth;
#X obj 14 15 struct \$0-ysis float x float y float heigth float vis
;
#X restore 8 50 pd ysis;
#N canvas 499 50 461 310 point 0;
#X obj 14 40 outlet;
#X obj 14 15 struct \$0-point float x float y float c float t;
#X obj 57 40 filledcurve c c 1 0 0 t 0 t t 0 t 0 0;
#X connect 1 0 0 0;
#X restore 487 10 pd point;
#X obj 334 340 r \$0-load;
#X obj 487 31 route click;
#X obj 87 197 + 10;
#X obj 201 226 + 10;
#X obj 8 71 bng 15 250 50 0 empty empty empty 17 7 0 10 -262144 -1
-1;
#X obj 448 321 pointer;
#X obj 487 256 t p b p, f 18;
#X obj 421 300 t b b;
#X msg 539 282 900;
#X obj 157 363 append \$0-point x y t c, f 30;
#X obj 539 324 set \$0-point c;
#X obj 421 370 set \$0-point c;
#X msg 421 345 222;
#X msg 289 338 222, f 4;
#X msg 117 56 dump;
#X obj 316 106 v \$0-gridsize;
#X obj 117 74 t a b, f 22;
#X obj 87 128 unpack, f 8;
#X obj 87 176 *;
#X obj 201 205 *;
#X obj 13 237 int;
#X obj 46 237 int;
#X obj 13 257 pack, f 6;
#X obj 13 341 tabwrite \$0-lookup;
#X obj 13 320 swap, f 18;
#X obj 14 363 table \$0-lookup 210210;
#X obj 166 161 - 12;
#X obj 167 186 abs;
#X obj 216 162 / 13;
#X obj 102 155 / 19;
#X msg 245 339 5;
#X obj 546 115 pack f f, f 16;
#X obj 639 93 int;
#X obj 546 93 int;
#X obj 487 52 t p p, f 10;
#X text 26 71 << reset;
#X obj 573 182 tabread \$0-lookup;
#X floatatom 581 202 5 0 0 0 - - -, f 5;
#X obj 487 234 spigot 0;
#X obj 534 182 t f f;
#X obj 546 157 t f f;
#X obj 532 212 !=;
#X msg 789 254 next;
#X obj 789 321 t b p;
#X obj 789 235 until;
#X obj 789 214 t b f, f 7;
#X obj 735 342 set \$0-point c;
#X obj 789 193 \$0;
#X obj 789 282 pointer \$0-point;
#X msg 828 254 traverse pd-\$1-plot;
#X msg 739 321 900;
#X msg 690 340 0;
#X obj 690 126 r \$0-init-plot;
#X obj 690 149 delay 500;
#X obj 690 171 t b b b, f 17;
#X msg 637 304 222;
#X floatatom 596 162 6 0 0 0 - - -, f 6;
#N canvas 0 50 373 458 make-grid 0;
#X obj 37 191 pointer;
#X obj 37 212 s \$0-load;
#X obj 285 280 r \$0-load;
#X msg 135 279 10 10 \$1;
#X obj 18 315 * 0.5;
#X obj 18 335 + 10;
#X msg 18 355 10 \$1;
#X obj 18 53 t b b;
#X obj 18 376 t l l;
#X obj 18 258 t f f f, f 20;
#X obj 25 33 inlet;
#X msg 45 74 200;
#X obj 45 94 value \$0-gridsize;
#X obj 18 74 \$0;
#X obj 18 235 v \$0-gridsize;
#X obj 18 113 t b f f;
#X obj 135 302 append \$0-area x y size;
#X obj 45 400 append \$0-xsis x y length, f 37;
#X obj 18 423 append \$0-ysis y x heigth, f 45;
#X msg 37 135 traverse pd-\$1-plot \, bang;
#X msg 57 157 \; pd-\$1-plot clear;
#X obj 18 13 r \$0-create-visuals;
#X connect 0 0 1 0;
#X connect 2 0 16 3;
#X connect 2 0 17 3;
#X connect 2 0 18 3;
#X connect 3 0 16 0;
#X connect 4 0 5 0;
#X connect 5 0 6 0;
#X connect 6 0 8 0;
#X connect 7 0 13 0;
#X connect 7 1 11 0;
#X connect 8 0 18 0;
#X connect 8 1 17 0;
#X connect 9 0 4 0;
#X connect 9 1 17 2;
#X connect 9 1 18 2;
#X connect 9 2 3 0;
#X connect 10 0 7 0;
#X connect 11 0 12 0;
#X connect 13 0 15 0;
#X connect 14 0 9 0;
#X connect 15 0 14 0;
#X connect 15 1 19 0;
#X connect 15 2 20 0;
#X connect 19 0 0 0;
#X connect 20 0 0 0;
#X connect 21 0 7 0;
#X restore 8 90 pd make-grid;
#X obj 690 363 s \$0-file-index;
#X obj 573 219 s \$0-file-index;
#X obj 117 20 r \$0-create-visuals;
#X obj 117 38 delay 500;
#N canvas 0 102 412 643 manipoint 0;
#X obj 84 58 until, f 21;
#X obj 84 203 sel 0;
#X obj 154 108 + 1;
#X obj 84 80 f 0;
#X obj 84 129 int;
#X obj 84 107 mod 210210;
#X obj 84 150 tabread \$0-lookup;
#X msg 186 472 next;
#X obj 210 449 until;
#X obj 210 391 t b f, f 7;
#X obj 156 576 set \$0-point c;
#X obj 210 370 \$0;
#X obj 210 496 pointer \$0-point;
#X msg 249 468 traverse pd-\$1-plot;
#X msg 105 438 900;
#X obj 210 520 t b b p;
#X floatatom 196 218 5 0 0 0 - - -, f 5;
#X obj 127 20 bng 15 250 50 0 empty empty empty 17 7 0 10 -262144 -1
-1;
#X floatatom 12 115 5 0 0 0 - - -, f 5;
#X obj 196 243 s \$0-file-index;
#X floatatom 103 172 5 0 0 0 - - -, f 5;
#X obj 111 272 t f b;
#X obj 143 299 t b b, f 17;
#X obj 113 350 sel;
#X obj 125 327 - 1;
#X obj 212 25 t b b;
#X floatatom 66 373 5 0 0 0 - - -, f 5;
#X floatatom 144 359 5 0 0 0 - - -, f 5;
#X obj 111 224 t f b f;
#X msg 209 552 222;
#X obj 77 550 set \$0-point c;
#X floatatom 218 110 5 0 0 0 - - -, f 5;
#X obj 111 250 vabs/forloop;
#X obj 210 344 vabs/oncev;
#X connect 0 0 3 0;
#X connect 1 1 28 0;
#X connect 2 0 3 1;
#X connect 3 0 5 0;
#X connect 4 0 6 0;
#X connect 5 0 2 0;
#X connect 5 0 4 0;
#X connect 5 0 18 0;
#X connect 5 0 31 0;
#X connect 6 0 1 0;
#X connect 6 0 20 0;
#X connect 7 0 12 0;
#X connect 8 0 7 0;
#X connect 9 0 8 0;
#X connect 9 1 13 0;
#X connect 11 0 9 0;
#X connect 12 0 15 0;
#X connect 13 0 12 0;
#X connect 14 0 30 0;
#X connect 15 0 29 0;
#X connect 15 1 8 1;
#X connect 15 2 10 1;
#X connect 15 2 30 1;
#X connect 16 0 19 0;
#X connect 17 0 25 0;
#X connect 21 0 23 0;
#X connect 21 0 26 0;
#X connect 21 1 22 0;
#X connect 22 0 7 0;
#X connect 22 1 33 0;
#X connect 23 0 14 0;
#X connect 24 0 23 1;
#X connect 24 0 27 0;
#X connect 25 0 0 0;
#X connect 25 1 33 1;
#X connect 28 0 32 0;
#X connect 28 1 0 1;
#X connect 28 2 24 0;
#X connect 29 0 10 0;
#X connect 32 0 21 0;
#X connect 33 0 11 0;
#X restore 692 39 pd manipoint;
#X obj 546 73 get \$0-point y x;
#X msg 13 277 \$2 \$1;
#X obj 637 283 vabs/oncev;
#X obj 13 299 pdmus/list2int;
#X obj 546 136 pdmus/list2int;
#X obj 117 105 cyclone/coll ./pd-user/harmony.txt;
#C restore;
#X connect 3 0 5 0;
#X connect 4 0 13 4;
#X connect 5 0 38 0;
#X connect 6 0 13 0;
#X connect 6 0 24 0;
#X connect 7 0 13 1;
#X connect 7 0 25 0;
#X connect 8 0 61 0;
#X connect 9 0 15 1;
#X connect 10 0 9 1;
#X connect 10 1 12 0;
#X connect 10 1 11 0;
#X connect 10 1 69 0;
#X connect 10 2 14 1;
#X connect 11 0 16 0;
#X connect 11 1 9 0;
#X connect 12 0 14 0;
#X connect 16 0 15 0;
#X connect 17 0 13 3;
#X connect 18 0 20 0;
#X connect 19 0 32 0;
#X connect 19 0 33 0;
#X connect 20 0 72 0;
#X connect 20 1 19 0;
#X connect 20 1 17 0;
#X connect 20 1 34 0;
#X connect 21 0 22 0;
#X connect 21 1 30 0;
#X connect 22 0 6 0;
#X connect 23 0 7 0;
#X connect 24 0 26 0;
#X connect 25 0 26 1;
#X connect 26 0 68 0;
#X connect 28 0 27 0;
#X connect 28 1 27 1;
#X connect 30 0 31 0;
#X connect 31 0 23 0;
#X connect 32 0 23 1;
#X connect 33 0 22 1;
#X connect 34 0 13 2;
#X connect 35 0 71 0;
#X connect 36 0 35 1;
#X connect 37 0 35 0;
#X connect 38 0 42 0;
#X connect 38 1 67 0;
#X connect 40 0 41 0;
#X connect 40 0 63 0;
#X connect 42 0 10 0;
#X connect 43 0 45 1;
#X connect 43 1 45 0;
#X connect 44 0 43 0;
#X connect 44 1 40 0;
#X connect 44 1 60 0;
#X connect 45 0 42 1;
#X connect 46 0 52 0;
#X connect 47 0 48 1;
#X connect 47 1 50 1;
#X connect 48 0 46 0;
#X connect 49 0 48 0;
#X connect 49 1 53 0;
#X connect 51 0 49 0;
#X connect 52 0 47 0;
#X connect 53 0 52 0;
#X connect 54 0 50 0;
#X connect 55 0 62 0;
#X connect 56 0 57 0;
#X connect 57 0 58 0;
#X connect 58 0 55 0;
#X connect 58 1 54 0;
#X connect 58 2 51 0;
#X connect 59 0 50 0;
#X connect 64 0 65 0;
#X connect 65 0 18 0;
#X connect 67 0 37 0;
#X connect 67 1 36 0;
#X connect 68 0 70 0;
#X connect 69 0 59 0;
#X connect 70 0 28 0;
#X connect 71 0 44 0;
#X connect 72 0 21 0;
#X connect 72 1 28 1;
#X restore 346 230 pd scattered-plot;
#N canvas 196 153 964 679 struct-definitions 0;
#N canvas 42 50 277 84 \$0-line 0;
#X obj 12 11 struct \$0-line float pos float color;
#X obj 12 34 drawpolygon color 1 pos 20 pos 100;
#X restore 412 454 pd \$0-line;
#N canvas 831 269 334 157 \$0-beat 0;
#X obj 7 35 drawpolygon 222 2 0 20 100 20;
#X obj 7 55 drawpolygon 222 2 0 100 100 100;
#X obj 6 11 struct \$0-beat float x;
#X restore 412 474 pd \$0-beat;
#X obj 582 15 slave-chord-structure 0 \$0;
#X obj 15 455 master-chord-structure 60 \$0;
#X obj 582 525 slave-chord-structure 25 \$0;
#X obj 582 215 slave-chord-structure 10 \$0;
#X obj 582 345 slave-chord-structure 16 \$0;
#X obj 582 55 slave-chord-structure 2 \$0;
#X obj 582 485 slave-chord-structure 23 \$0;
#X obj 582 645 slave-chord-structure 31 \$0;
#X obj 772 625 slave-chord-structure 62 \$0;
#X obj 582 585 slave-chord-structure 28 \$0;
#X obj 582 605 slave-chord-structure 29 \$0;
#X obj 582 175 slave-chord-structure 8 \$0;
#X obj 772 175 slave-chord-structure 40 \$0;
#X obj 772 15 slave-chord-structure 32 \$0;
#X obj 582 155 slave-chord-structure 7 \$0;
#X obj 582 35 slave-chord-structure 1 \$0;
#X obj 582 75 slave-chord-structure 3 \$0;
#X obj 582 95 slave-chord-structure 4 \$0;
#X obj 582 115 slave-chord-structure 5 \$0;
#X obj 582 135 slave-chord-structure 6 \$0;
#X obj 582 195 slave-chord-structure 9 \$0;
#X obj 582 255 slave-chord-structure 12 \$0;
#X obj 582 235 slave-chord-structure 11 \$0;
#X obj 582 275 slave-chord-structure 13 \$0;
#X obj 582 295 slave-chord-structure 14 \$0;
#X obj 582 315 slave-chord-structure 15 \$0;
#X obj 582 365 slave-chord-structure 17 \$0;
#X obj 582 385 slave-chord-structure 18 \$0;
#X obj 582 405 slave-chord-structure 19 \$0;
#X obj 582 425 slave-chord-structure 20 \$0;
#X obj 582 445 slave-chord-structure 21 \$0;
#X obj 582 465 slave-chord-structure 22 \$0;
#X obj 582 505 slave-chord-structure 24 \$0;
#X obj 582 545 slave-chord-structure 26 \$0;
#X obj 582 565 slave-chord-structure 27 \$0;
#X obj 582 625 slave-chord-structure 30 \$0;
#X obj 772 35 slave-chord-structure 33 \$0;
#X obj 772 55 slave-chord-structure 34 \$0;
#X obj 772 75 slave-chord-structure 35 \$0;
#X obj 772 95 slave-chord-structure 36 \$0;
#X obj 772 115 slave-chord-structure 37 \$0;
#X obj 772 135 slave-chord-structure 38 \$0;
#X obj 772 155 slave-chord-structure 39 \$0;
#X obj 772 195 slave-chord-structure 41 \$0;
#X obj 772 215 slave-chord-structure 42 \$0;
#X obj 772 235 slave-chord-structure 43 \$0;
#X obj 772 255 slave-chord-structure 44 \$0;
#X obj 772 275 slave-chord-structure 45 \$0;
#X obj 772 295 slave-chord-structure 46 \$0;
#X obj 772 315 slave-chord-structure 47 \$0;
#X obj 772 345 slave-chord-structure 48 \$0;
#X obj 772 365 slave-chord-structure 49 \$0;
#X obj 772 385 slave-chord-structure 50 \$0;
#X obj 772 405 slave-chord-structure 51 \$0;
#X obj 772 425 slave-chord-structure 52 \$0;
#X obj 772 445 slave-chord-structure 53 \$0;
#X obj 772 465 slave-chord-structure 54 \$0;
#X obj 772 485 slave-chord-structure 55 \$0;
#X obj 772 505 slave-chord-structure 56 \$0;
#X obj 772 525 slave-chord-structure 57 \$0;
#X obj 772 545 slave-chord-structure 58 \$0;
#X obj 772 565 slave-chord-structure 59 \$0;
#X obj 772 585 slave-chord-structure 60 \$0;
#X obj 772 605 slave-chord-structure 61 \$0;
#X obj 772 645 slave-chord-structure 63 \$0;
#X obj 198 15 master-chord-structure 10 \$0;
#X obj 198 415 master-chord-structure 49 \$0;
#X obj 385 195 master-chord-structure 29 \$0;
#X obj 385 415 master-chord-structure 59 \$0;
#X obj 385 235 master-chord-structure 50 \$0;
#X obj 15 15 master-chord-structure 0 \$0;
#X obj 15 155 master-chord-structure 7 \$0;
#X obj 385 15 master-chord-structure 20 \$0;
#X obj 198 75 master-chord-structure 13 \$0;
#X obj 198 355 master-chord-structure 46 \$0;
#X obj 15 35 master-chord-structure 1 \$0;
#X obj 15 235 master-chord-structure 30 \$0;
#X obj 15 195 master-chord-structure 9 \$0;
#X obj 15 515 master-chord-structure 63 \$0;
#X obj 15 55 master-chord-structure 2 \$0;
#X obj 15 75 master-chord-structure 3 \$0;
#X obj 15 115 master-chord-structure 5 \$0;
#X obj 15 95 master-chord-structure 4 \$0;
#X obj 15 135 master-chord-structure 6 \$0;
#X obj 15 175 master-chord-structure 8 \$0;
#X obj 15 255 master-chord-structure 31 \$0;
#X obj 15 275 master-chord-structure 32 \$0;
#X obj 15 295 master-chord-structure 33 \$0;
#X obj 15 315 master-chord-structure 34 \$0;
#X obj 15 335 master-chord-structure 35 \$0;
#X obj 15 355 master-chord-structure 36 \$0;
#X obj 15 375 master-chord-structure 37 \$0;
#X obj 15 395 master-chord-structure 38 \$0;
#X obj 15 415 master-chord-structure 39 \$0;
#X obj 15 475 master-chord-structure 61 \$0;
#X obj 15 495 master-chord-structure 62 \$0;
#X obj 198 395 master-chord-structure 48 \$0;
#X obj 198 375 master-chord-structure 47 \$0;
#X obj 198 315 master-chord-structure 44 \$0;
#X obj 198 295 master-chord-structure 43 \$0;
#X obj 198 275 master-chord-structure 42 \$0;
#X obj 198 235 master-chord-structure 40 \$0;
#X obj 198 195 master-chord-structure 19 \$0;
#X obj 198 175 master-chord-structure 18 \$0;
#X obj 198 35 master-chord-structure 11 \$0;
#X obj 198 55 master-chord-structure 12 \$0;
#X obj 198 95 master-chord-structure 14 \$0;
#X obj 198 115 master-chord-structure 15 \$0;
#X obj 198 135 master-chord-structure 16 \$0;
#X obj 198 155 master-chord-structure 17 \$0;
#X obj 198 255 master-chord-structure 41 \$0;
#X obj 198 335 master-chord-structure 45 \$0;
#X obj 385 55 master-chord-structure 22 \$0;
#X obj 385 35 master-chord-structure 21 \$0;
#X obj 385 75 master-chord-structure 23 \$0;
#X obj 385 115 master-chord-structure 25 \$0;
#X obj 385 95 master-chord-structure 24 \$0;
#X obj 385 155 master-chord-structure 27 \$0;
#X obj 385 135 master-chord-structure 26 \$0;
#X obj 385 175 master-chord-structure 28 \$0;
#X obj 385 255 master-chord-structure 51 \$0;
#X obj 385 275 master-chord-structure 52 \$0;
#X obj 385 295 master-chord-structure 53 \$0;
#X obj 385 315 master-chord-structure 54 \$0;
#X obj 385 335 master-chord-structure 55 \$0;
#X obj 385 375 master-chord-structure 57 \$0;
#X obj 385 395 master-chord-structure 58 \$0;
#X obj 385 355 master-chord-structure 56 \$0;
#X obj 312 454 chord-name 4 \$0;
#X obj 212 454 chord-name 0 \$0;
#X obj 212 514 chord-name 3 \$0;
#X obj 212 474 chord-name 1 \$0;
#X obj 212 494 chord-name 2 \$0;
#X obj 312 474 chord-name 5 \$0;
#X obj 312 494 chord-name 6 \$0;
#X obj 312 514 chord-name 7 \$0;
#X restore 346 250 pd struct-definitions;
#N canvas 0 50 450 278 (subpatch) 0;
#X array \$0-master-pattern 64 float 1;
#A 0 16 0 0 0 0 0 0 0 0 0 0 0 0 0 0 0 16 0 0 0 0 0 0 0 0 0 0 0 0 0
0 0 16 0 0 0 0 0 0 0 0 0 0 0 0 0 0 0 16 0 0 0 0 0 0 0 0 0 0 0 0 0 0
0;
#X coords 0 64 63 0 100 100 1 0 0;
#X restore 4 21 graph;
#N canvas 626 50 711 699 make-gui-sequence 0;
#X obj 10 33 div 4;
#X obj 10 52 change;
#X obj 52 114 until;
#X msg 52 137 next;
#X obj 52 190 t b p, f 6;
#X obj 263 131 pointer;
#X obj 228 173 t b b, f 6;
#X obj 10 211 set \$0-beat x;
#X obj 52 169 pointer \$0-beat;
#X obj 193 33 \$0;
#X obj 263 152 s \$0-loadpointer;
#X obj 527 176 r \$0-loadpointer;
#X obj 315 377 append \$0-mchord0 x, f 31;
#X obj 315 275 pack 0 \$0;
#X obj 52 93 t b f, f 7;
#X obj 261 213 append \$0-beat x, f 30;
#X obj 10 14 r \$0-current-step;
#X msg 263 75 traverse pd-\$1-data \, bang;
#X msg 299 97 \; pd-\$1-data clear;
#X msg 91 139 traverse pd-\$1-data;
#X obj 280 421 pack 0 \$0;
#X obj 280 461 append \$0-chord0 x, f 38;
#X msg 261 193 26;
#X obj 10 71 * 104;
#X obj 10 92 + 28;
#X obj 315 294 t l l;
#X obj 342 334 append \$0-schord\$1 x, f 24;
#X obj 193 13 r \$0-create-visuals;
#X msg 228 213 65;
#X obj 228 256 sel 64, f 15;
#X obj 172 14 bng 15 250 50 0 empty empty empty 17 7 0 10 -262144 -1
-1;
#X msg 342 313 set \$2-schord\$1 x \, 100;
#X msg 315 356 set \$2-mchord\$1 x \, -100;
#X obj 228 360 vabs/forloop;
#X obj 228 236 vabs/forloop;
#X obj 321 529 mod 4;
#X obj 321 550 sel 0, f 6;
#X obj 354 570 t b;
#X obj 286 617 append \$0-line pos color;
#X obj 274 548 + 26;
#X msg 228 466 17;
#X obj 274 529 * 104;
#X msg 321 570 900;
#X obj 228 508 t f f f, f 16;
#X obj 228 487 vabs/forloop 0;
#X obj 193 53 t f b f f, f 18;
#X msg 228 336 9;
#X obj 228 381 sel 8, f 8;
#X msg 355 589 666;
#X msg 280 441 set \$2-chord\$1 x \, 3;
#X connect 0 0 1 0;
#X connect 1 0 23 0;
#X connect 2 0 3 0;
#X connect 3 0 8 0;
#X connect 4 0 2 1;
#X connect 4 1 7 1;
#X connect 5 0 10 0;
#X connect 6 0 28 0;
#X connect 6 1 22 0;
#X connect 8 0 4 0;
#X connect 9 0 45 0;
#X connect 11 0 12 1;
#X connect 11 0 15 1;
#X connect 11 0 21 1;
#X connect 11 0 26 1;
#X connect 11 0 38 2;
#X connect 13 0 25 0;
#X connect 14 0 2 0;
#X connect 14 1 19 0;
#X connect 16 0 0 0;
#X connect 17 0 5 0;
#X connect 18 0 5 0;
#X connect 19 0 8 0;
#X connect 20 0 49 0;
#X connect 22 0 15 0;
#X connect 23 0 24 0;
#X connect 24 0 7 0;
#X connect 25 0 32 0;
#X connect 25 1 31 0;
#X connect 27 0 9 0;
#X connect 28 0 34 0;
#X connect 29 0 46 0;
#X connect 29 1 13 0;
#X connect 30 0 9 0;
#X connect 31 0 26 0;
#X connect 32 0 12 0;
#X connect 33 0 47 0;
#X connect 34 0 29 0;
#X connect 35 0 36 0;
#X connect 36 0 42 0;
#X connect 36 1 37 0;
#X connect 37 0 48 0;
#X connect 39 0 38 0;
#X connect 40 0 44 0;
#X connect 41 0 39 0;
#X connect 42 0 38 1;
#X connect 43 1 41 0;
#X connect 43 2 35 0;
#X connect 44 0 43 0;
#X connect 45 0 14 0;
#X connect 45 1 6 0;
#X connect 45 2 17 0;
#X connect 45 3 18 0;
#X connect 46 0 33 0;
#X connect 47 0 40 0;
#X connect 47 1 20 0;
#X connect 48 0 38 1;
#X connect 49 0 21 0;
#X restore 346 270 pd make-gui-sequence;
#X msg 9 202 menusave;
#X obj 9 221 s pd-house-harmonic-filler.pd;
#N canvas 363 50 652 605 clock 0;
#X obj 204 309 + 1;
#X obj 174 309 f 0;
#X obj 19 235 sel 0;
#X obj 19 119 f;
#X obj 228 224 spigot 0;
#X obj 19 141 spigot;
#X obj 25 56 - 1;
#X obj 25 76 abs;
#X obj 25 97 t b f;
#X obj 67 141 sel 1;
#X msg 189 288 0;
#X obj 134 192 pdmus/midi-sync, f 32;
#X obj 65 235 sel 0;
#X obj 189 332 sel 63;
#X obj 444 246 \$0;
#X obj 416 224 select 0 1;
#X obj 416 246 \$0;
#X obj 25 35 r \$0-clock-mode;
#X obj 19 15 r \$0-play;
#X obj 145 100 r \$0-tempo;
#X obj 134 224 s \$0-set-play;
#X obj 368 191 r \$0-clock-mode;
#X obj 323 245 s \$0-set-tempo;
#X obj 174 354 s \$0-current-step;
#X msg 444 269 \; \$1-set-play color 11 11 1 \; \$1-set-tempo color
11 13 1;
#X msg 416 313 \; \$1-set-play color 2 13 10 \; \$1-set-tempo color
2 13 10;
#X obj 323 224 spigot 1;
#X obj 175 441 s \$0-panic-chords;
#X obj 80 353 r \$0-int-synth;
#X obj 65 376 f 1;
#X obj 19 374 f 1;
#X obj 156 419 sel 0 1;
#X obj 19 418 sel 0 1;
#X obj 38 440 s \$0-panic-bass;
#X obj 145 137 /;
#X msg 145 119 15000 \$1;
#X obj 94 169 metro 125;
#X obj 156 480 f 1;
#X obj 34 459 r \$0-ch-bass;
#X obj 171 460 r \$0-ch-chords;
#X obj 19 480 f 2;
#X obj 19 500 pdmus/midi-panic-ch 2;
#X obj 156 499 pdmus/midi-panic-ch 1;
#X connect 0 0 1 1;
#X connect 1 0 0 0;
#X connect 1 0 13 0;
#X connect 1 0 23 0;
#X connect 2 0 10 0;
#X connect 2 0 30 0;
#X connect 3 0 5 0;
#X connect 4 0 1 0;
#X connect 5 0 2 0;
#X connect 5 0 36 0;
#X connect 6 0 7 0;
#X connect 7 0 8 0;
#X connect 8 0 3 0;
#X connect 8 1 5 1;
#X connect 8 1 9 0;
#X connect 9 1 36 0;
#X connect 10 0 1 1;
#X connect 11 0 12 0;
#X connect 11 0 20 0;
#X connect 11 1 4 0;
#X connect 11 2 26 0;
#X connect 12 0 10 0;
#X connect 12 0 29 0;
#X connect 13 0 10 0;
#X connect 14 0 24 0;
#X connect 15 0 16 0;
#X connect 15 1 14 0;
#X connect 16 0 25 0;
#X connect 17 0 6 0;
#X connect 18 0 3 0;
#X connect 19 0 35 0;
#X connect 21 0 4 1;
#X connect 21 0 15 0;
#X connect 21 0 26 1;
#X connect 26 0 22 0;
#X connect 28 0 29 1;
#X connect 28 0 30 1;
#X connect 29 0 31 0;
#X connect 29 0 32 0;
#X connect 30 0 31 0;
#X connect 30 0 32 0;
#X connect 31 0 37 0;
#X connect 31 1 27 0;
#X connect 32 0 40 0;
#X connect 32 1 33 0;
#X connect 34 0 36 1;
#X connect 35 0 34 0;
#X connect 36 0 1 0;
#X connect 37 0 42 0;
#X connect 38 0 40 1;
#X connect 39 0 37 1;
#X connect 40 0 41 0;
#X restore 346 59 pd clock;
#N canvas 317 50 683 749 make-chord-variations 0;
#X msg 320 177 clear;
#X obj 309 116 inlet;
#X obj 378 116 inlet;
#X obj 309 136 list prepend;
#X obj 30 412 list, f 53;
#X obj 375 432 list split 1;
#X obj 348 390 t l l;
#X obj 375 411 zexy/sort;
#X text 395 137 listas con onset-step y notas del acorde;
#X obj 489 323 * 12;
#X obj 525 325 t b f, f 10;
#X obj 489 349 +, f 16;
#X text 306 95 chord;
#X text 375 96 onset position.;
#X obj 309 321 pdmus/chord-foldover;
#X obj 3 102 t f f f, f 47;
#X obj 309 282 f;
#X obj 309 243 t b l, f 20;
#X obj 213 365 list prepend;
#X obj 309 341 t l l, f 7;
#X obj 3 7 r \$0-current-step;
#X obj 325 199 r \$0-chord-variations;
#X obj 324 262 r \$0-register;
#X obj 489 240 r \$0-chords-octave;
#X obj 213 387 s \$0-chord-variations;
#X obj 375 453 s \$0-bass;
#X obj 525 261 r \$0-key;
#X obj 320 157 r \$0-reset-chords;
#X obj 30 432 vabs/list-dripv;
#X obj 111 453 r \$0-int-synth;
#X obj 30 472 list prepend 1;
#X obj 30 494 route 0 1, f 85;
#X obj 283 651 s \$0-chord-synth;
#X obj 309 301 clip -2 2;
#X obj 72 139 r \$0-tempo;
#X obj 72 177 /;
#X obj 57 234 delay;
#X obj 3 139 sel 0;
#X msg 72 158 15000 \$1;
#X obj 57 196 *;
#X msg 57 253 0, f 2;
#X obj 30 389 t b f;
#X obj 3 120 tabread \$0-new-pattern;
#X obj 489 262 + 1;
#X obj 48 27 r \$0-mute-chords;
#X obj 48 45 - 1;
#X obj 48 64 abs;
#X obj 3 83 spigot 1;
#X obj 69 347 r \$0-chords-volume;
#X obj 30 158 t b f;
#X obj 30 368 int 80, f 7;
#X obj 340 535 t f f, f 12;
#X obj 211 615 del 20;
#X obj 57 215 - 20;
#X obj 87 535 t f f, f 8;
#X obj 132 555 != 0;
#X obj 132 573 t f f;
#X obj 136 595 -;
#X obj 136 635 sel 0;
#X obj 488 613 del 20;
#X obj 409 553 != 0;
#X obj 409 571 t f f;
#X obj 413 593 -;
#X obj 413 633 sel 0;
#X obj 413 652 s \$0-panic-chords;
#X obj 136 614 vabs/oncev;
#X obj 413 612 vabs/oncev;
#X obj 348 369 pdmus/chord-transpose 60;
#X obj 30 693 noteout 1, f 10;
#X obj 309 223 cyclone/coll \$0-chords;
#C restore;
#X obj 136 696 f 1;
#X obj 151 656 r \$0-ch-chords;
#X obj 136 715 pdmus/midi-panic-ch 1;
#X obj 30 559 pipe 1 2 1, f 11;
#X obj 30 515 unpack f f;
#X obj 30 452 pack 0 0;
#X obj 283 516 unpack f f;
#X obj 283 609 pipe 1 2 1;
#X obj 283 631 pack f f, f 10;
#X obj 525 282 vabs/delgate 300;
#X obj 525 303 play-update 64 \$0;
#X connect 0 0 69 0;
#X connect 1 0 3 0;
#X connect 2 0 3 1;
#X connect 3 0 69 0;
#X connect 4 0 28 0;
#X connect 5 0 25 0;
#X connect 6 0 4 1;
#X connect 6 1 7 0;
#X connect 7 0 5 0;
#X connect 9 0 11 0;
#X connect 10 0 11 0;
#X connect 10 1 11 1;
#X connect 11 0 67 1;
#X connect 14 0 19 0;
#X connect 15 0 42 0;
#X connect 15 1 69 0;
#X connect 15 2 18 1;
#X connect 16 0 33 0;
#X connect 17 0 16 0;
#X connect 17 1 14 1;
#X connect 18 0 24 0;
#X connect 19 0 18 0;
#X connect 19 1 67 0;
#X connect 20 0 47 0;
#X connect 21 0 69 0;
#X connect 22 0 16 1;
#X connect 23 0 43 0;
#X connect 26 0 79 0;
#X connect 27 0 0 0;
#X connect 28 0 75 0;
#X connect 29 0 30 1;
#X connect 30 0 31 0;
#X connect 31 0 74 0;
#X connect 31 1 76 0;
#X connect 33 0 14 0;
#X connect 34 0 38 0;
#X connect 35 0 39 1;
#X connect 36 0 40 0;
#X connect 37 1 49 0;
#X connect 38 0 35 0;
#X connect 39 0 53 0;
#X connect 40 0 41 0;
#X connect 41 0 4 0;
#X connect 41 1 75 1;
#X connect 42 0 37 0;
#X connect 43 0 9 0;
#X connect 44 0 45 0;
#X connect 45 0 46 0;
#X connect 46 0 47 1;
#X connect 47 0 15 0;
#X connect 48 0 50 1;
#X connect 49 0 50 0;
#X connect 49 1 39 0;
#X connect 50 0 41 0;
#X connect 51 0 77 1;
#X connect 51 1 60 0;
#X connect 52 0 65 1;
#X connect 53 0 36 0;
#X connect 54 0 73 1;
#X connect 54 1 55 0;
#X connect 55 0 56 0;
#X connect 56 0 57 1;
#X connect 56 1 57 0;
#X connect 57 0 65 0;
#X connect 58 0 70 0;
#X connect 59 0 66 1;
#X connect 60 0 61 0;
#X connect 61 0 62 1;
#X connect 61 1 62 0;
#X connect 62 0 66 0;
#X connect 63 0 64 0;
#X connect 65 0 52 0;
#X connect 65 0 58 0;
#X connect 66 0 59 0;
#X connect 66 0 63 0;
#X connect 67 0 6 0;
#X connect 69 0 17 0;
#X connect 70 0 72 0;
#X connect 71 0 70 1;
#X connect 71 0 68 2;
#X connect 73 0 68 0;
#X connect 73 1 68 1;
#X connect 74 0 73 0;
#X connect 74 1 54 0;
#X connect 75 0 30 0;
#X connect 76 0 77 0;
#X connect 76 1 51 0;
#X connect 77 0 78 0;
#X connect 77 1 78 1;
#X connect 78 0 32 0;
#X connect 79 0 80 0;
#X connect 80 0 10 0;
#X restore 346 154 pd make-chord-variations;
#N canvas 0 156 259 433 spread 0;
#X msg 67 178 dump;
#X obj 67 222 t b l;
#X obj 35 295 list prepend, f 13;
#X obj 34 102 -;
#X obj 19 73 t f f f;
#X obj 19 124 *;
#X obj 19 145 t b f;
#X obj 31 247 f;
#X text 19 343 sumar restar 12 a cada cambio;
#X text 19 363 en vez de calcular la distancia;
#X text 19 384 de octava;
#X obj 31 272 chord-range;
#X obj 35 316 s \$0-chord-variations;
#X obj 19 31 int;
#X obj 19 52 change -1;
#X obj 19 9 r \$0-spread;
#X obj 72 76 r \$0-set-spread;
#X obj 67 200 cyclone/coll \$0-chords;
#C restore;
#X connect 0 0 17 0;
#X connect 1 0 7 0;
#X connect 1 1 11 1;
#X connect 2 0 12 0;
#X connect 3 0 5 1;
#X connect 4 0 5 0;
#X connect 4 1 3 1;
#X connect 4 2 3 0;
#X connect 5 0 6 0;
#X connect 6 0 0 0;
#X connect 6 1 7 1;
#X connect 7 0 11 0;
#X connect 11 0 2 0;
#X connect 13 0 14 0;
#X connect 14 0 4 0;
#X connect 15 0 13 0;
#X connect 16 0 3 1;
#X connect 17 0 1 0;
#X connect 17 1 2 1;
#X restore 346 171 pd spread;
#N canvas 536 50 547 679 memories 0;
#X obj 186 19 r \$0-chord-pattern;
#X obj 200 37 r \$0-file-index;
#X obj 211 443 r \$0-recall;
#X obj 8 266 r \$0-store;
#X obj 201 531 textfile;
#X obj 211 482 t b a, f 6;
#X obj 211 501 until, f 11;
#X obj 201 553 list split 1;
#X obj 201 574 makefilename \$0%s;
#X obj 201 636 s, f 5;
#X obj 201 595 t b s;
#X obj 172 322 pack 0 0 0 0 0 0 0 0 0 0 0 0 0 0 0 0 0;
#X obj 8 286 t f b;
#X obj 201 615 f, f 8;
#X obj 228 74 r \$0-density;
#X obj 242 93 r \$0-legato;
#X obj 256 112 r \$0-octave;
#X obj 270 131 r \$0-spread;
#X obj 284 150 r \$0-register;
#X obj 298 169 r \$0-mute-chords;
#X obj 312 188 r \$0-chords-volume;
#X obj 326 207 r \$0-bass-density;
#X obj 340 226 r \$0-bass-duration;
#X obj 354 245 r \$0-bass-velocity;
#X obj 368 264 r \$0-bass-octave;
#X obj 382 283 r \$0-mute-bass;
#X obj 397 302 r \$0-bass-volume;
#X msg 172 345 clear \, add -set-chord-pattern \$2 \, add -file-index
\$3 \, add -set-keyfifths \$4 \, add -preset-density \$5 \, add -preset-legato
\$6 \, add -set-octave \$7 \, add -set-spread \$8 \, add -set-register
\$9 \, add -set-mute-chords \$10 \, add -set-chords-volume \$11 \,
add -set-bass-density \$12 \, add -set-bass-duration \$13 \, add -set-bass-velocity
\$14 \, add -set-bass-octave \$15 \, add -set-mute-bass \$16 \, add
-set-bass-volume \$17;
#X obj 214 55 r \$0-key-fifths;
#X msg 8 347 write ./user/memory\$1.txt;
#X msg 211 463 read ./pd-user/memory\$1.txt \, rewind;
#X connect 0 0 11 1;
#X connect 1 0 11 2;
#X connect 2 0 30 0;
#X connect 3 0 12 0;
#X connect 4 0 7 0;
#X connect 4 1 6 1;
#X connect 5 0 6 0;
#X connect 5 1 4 0;
#X connect 6 0 4 0;
#X connect 7 0 8 0;
#X connect 7 1 13 1;
#X connect 8 0 10 0;
#X connect 10 0 13 0;
#X connect 10 1 9 1;
#X connect 11 0 27 0;
#X connect 12 0 29 0;
#X connect 12 1 11 0;
#X connect 13 0 9 0;
#X connect 14 0 11 4;
#X connect 15 0 11 5;
#X connect 16 0 11 6;
#X connect 17 0 11 7;
#X connect 18 0 11 8;
#X connect 19 0 11 9;
#X connect 20 0 11 10;
#X connect 21 0 11 11;
#X connect 22 0 11 12;
#X connect 23 0 11 13;
#X connect 24 0 11 14;
#X connect 25 0 11 15;
#X connect 26 0 11 16;
#X connect 27 0 4 0;
#X connect 28 0 11 3;
#X connect 29 0 4 0;
#X connect 30 0 5 0;
#X restore 346 311 pd memories;
#N canvas 0 89 450 300 (subpatch) 0;
#X array \$0-new-pattern 64 float 0;
#X coords 0 64 63 0 100 100 1 0 0;
#X restore 224 21 graph;
#N canvas 0 89 450 300 (unused) 0;
#X obj 127 191 bng 24 250 50 0 \$0-load-folder \$0-set-load-folder
folder -3 -10 1 12 -66577 -258113 -228856;
#X obj 25 12 tgl 15 0 \$0-bass-lock \$0-set-bass-lock lock 18 11 1
11 -66577 -258113 -228856 0 1;
#X obj 15 12 bng 8 250 50 0 \$0-learn-lock-bass --- empty 17 7 0 10
-258113 -1 -1;
#X obj 25 35 vradio 15 1 0 4 lock-instrument \$0-set-lock-instrument
empty 0 -8 0 10 -128992 -128992 -166441 0;
#X obj 44 45 cnv 15 30 20 empty empty snare 0 12 1 11 -128992 -228856
0;
#X obj 44 61 cnv 15 30 20 empty empty cl-hat 0 12 1 11 -128992 -228856
0;
#X obj 15 35 bng 8 250 50 0 \$0-learn-lock --- empty 17 7 0 10 -258113
-1 -1;
#X obj 45 77 cnv 15 30 10 empty empty o-hat 0 12 1 11 -128992 -228856
0;
#X obj 44 30 cnv 15 30 20 empty empty kick 0 12 1 11 -128992 -228856
0;
#X obj 290 46 tgl 15 0 \$0-clock-mode \$0-set-clock-mode save-tempo
18 11 1 11 -66577 -258113 -228856 1 1;
#X obj 280 46 bng 8 250 50 0 \$0-learn-sync --- empty 17 7 0 10 -258113
-1 -1;
#X obj 234 182 bng 15 250 50 0 \$0-scroll-up \$0-set-scroll-up next
18 11 1 11 -66577 -258113 -228856;
#X obj 224 182 bng 8 250 50 0 \$0-learn-scrollup --- empty 17 7 0 10
-258113 -1 -1;
#X obj 234 207 bng 15 250 50 0 \$0-scroll-down \$0-set-scroll-down
prev. 18 11 1 11 -66577 -258113 -228856;
#X obj 224 207 bng 8 250 50 0 \$0-learn-scrolldown --- empty 17 7 0
10 -258113 -1 -1;
#X restore 346 291 pd (unused);
#X obj 74 245 loadbang;
#X obj 56 402 hcs/sys_gui;
#X obj 56 319 hcs/canvas_name;
#X obj 74 266 t b b;
#X obj 56 363 pack s s;
#X msg 56 382 \$1 configure -background \$2;
#X msg 56 293 pd-house-harmonic-filler.pd;
#X obj 101 344 symbol #808080;
#X obj 345 21 declare -path pd-abs -path pd-third-party;
#X connect 1 0 6 0;
#X connect 6 0 18 0;
#X connect 6 1 18 1;
#X connect 7 0 15 0;
#X connect 15 0 16 0;
#X connect 23 0 26 0;
#X connect 25 0 27 0;
#X connect 26 0 29 0;
#X connect 26 1 30 0;
#X connect 27 0 28 0;
#X connect 28 0 24 0;
#X connect 29 0 25 0;
#X connect 30 0 27 1;
#X restore 569 1 pd patch;
#X obj 1 1 cnv 15 620 510 empty \$0-title HOUSE HARMONIC FILLER 10
18 0 16 -128992 -66577 0;
#X obj 268 252 hsl 100 15 -2 2 0 0 \$0-raw-register \$0-set-register
register 106 11 1 11 -66577 -258113 -228856 4950 0;
#X obj 268 227 hsl 100 15 0 3.9 0 0 \$0-spread \$0-set-spread spread
106 11 1 11 -66577 -258113 -228856 0 0;
#X obj 255 227 bng 8 250 50 0 \$0-learn-spread --- empty 17 7 0 10
-258113 -1 -1;
#X obj 255 252 bng 8 250 50 0 \$0-learn-register --- empty 17 7 0 10
-258113 -1 -1;
#X obj 530 433 tgl 15 0 \$0-clock-mode \$0-set-clock-mode ext-sync
18 11 1 11 -66577 -258113 -228856 1 1;
#X obj 435 124 cnv 15 100 20 empty empty RHYTHM 5 12 0 16 -128992 -228856
0;
#X obj 446 407 nbx 3 15 20 999.9 0 0 \$0-tempo \$0-set-tempo bpm 38
11 1 11 -128992 -258699 -166441 125 256;
#X obj 436 407 bng 8 250 50 0 \$0-learn-tempo --- empty 17 7 0 10 -258113
-1 -1;
#X obj 520 433 bng 8 250 50 0 \$0-learn-sync --- empty 17 7 0 10 -258113
-1 -1;
#N canvas 725 163 370 393 fifths 0;
#X obj 33 29 flatgui/knob 65 65 0 12 0 0 \$0-key-fifths \$0-set-keyfifths
key -20 -5 1 11 5.88087e+07 1 5.88052e+07 3200 1;
#X text 58 14 C;
#X text 77 18 G;
#X text 92 31 D;
#X text 42 20 F;
#X text 22 33 Bb;
#X text 16 50 Eb;
#X text 19 69 Ab;
#X text 34 86 Db;
#X text 51 94 Gb;
#X text 67 94 F#;
#X text 100 49 A;
#X text 98 67 E;
#X text 89 83 B;
#X obj 10 230 change;
#N canvas 0 102 450 218 fifhts2secs 0;
#X obj 30 15 inlet;
#X obj 30 170 outlet;
#X msg 30 77 -6;
#X msg 60 77 1;
#X msg 120 77 3;
#X msg 150 77 -2;
#X msg 180 77 5;
#X msg 90 77 -4;
#X obj 30 40 sel 0 1 2 3 4 5 6 7 8 9 10 11 12, f 51;
#X msg 390 77 6;
#X msg 360 77 -1;
#X msg 330 77 4;
#X msg 300 77 -3;
#X msg 270 77 2;
#X msg 240 77 -5;
#X msg 210 77 0;
#X connect 0 0 8 0;
#X connect 2 0 1 0;
#X connect 3 0 1 0;
#X connect 4 0 1 0;
#X connect 5 0 1 0;
#X connect 6 0 1 0;
#X connect 7 0 1 0;
#X connect 8 0 2 0;
#X connect 8 1 3 0;
#X connect 8 2 7 0;
#X connect 8 3 4 0;
#X connect 8 4 5 0;
#X connect 8 5 6 0;
#X connect 8 6 15 0;
#X connect 8 7 14 0;
#X connect 8 8 13 0;
#X connect 8 9 12 0;
#X connect 8 10 11 0;
#X connect 8 11 10 0;
#X connect 8 12 9 0;
#X connect 9 0 1 0;
#X connect 10 0 1 0;
#X connect 11 0 1 0;
#X connect 12 0 1 0;
#X connect 13 0 1 0;
#X connect 14 0 1 0;
#X connect 15 0 1 0;
#X restore 10 251 pd fifhts2secs;
#X obj 10 158 r \$0-key-fifths;
#X obj 10 272 s \$0-key;
#X obj 13 104 bng 8 250 50 0 \$0-learn-key5 --- empty 17 7 0 10 -258113
-1 -1;
#X obj 10 200 int;
#X obj 135 275 s \$0-set-keyfifths;
#X msg 135 255 set \$1;
#X obj 135 234 vabs/delgate 200;
#X obj 10 179 + 0.5;
#X connect 14 0 15 0;
#X connect 15 0 17 0;
#X connect 16 0 23 0;
#X connect 19 0 22 0;
#X connect 19 0 14 0;
#X connect 21 0 20 0;
#X connect 22 0 21 0;
#X connect 23 0 19 0;
#X coords 0 -1 1 1 105 105 2 10 10;
#X restore 14 152 pd fifths;
#X obj 445 433 tgl 50 0 \$0-play \$0-set-play play 55 47 1 11 -128992
-128992 -166441 0 1;
#X obj 435 433 bng 8 250 50 0 \$0-learn-play --- empty 17 7 0 10 -258113
-1 -1;
#N canvas 0 50 959 334 \$0-data 0;
#X scalar 1003-line 26 900 \;;
#X scalar 1003-line 130 666 \;;
#X scalar 1003-line 234 666 \;;
#X scalar 1003-line 338 666 \;;
#X scalar 1003-line 442 900 \;;
#X scalar 1003-line 546 666 \;;
#X scalar 1003-line 650 666 \;;
#X scalar 1003-line 754 666 \;;
#X scalar 1003-line 858 900 \;;
#X scalar 1003-line 962 666 \;;
#X scalar 1003-line 1066 666 \;;
#X scalar 1003-line 1170 666 \;;
#X scalar 1003-line 1274 900 \;;
#X scalar 1003-line 1378 666 \;;
#X scalar 1003-line 1482 666 \;;
#X scalar 1003-line 1586 666 \;;
#X scalar 1003-line 1690 900 \;;
#X scalar 1003-chord0 30 0 Imaj \;;
#X scalar 1003-chord1 446 0 VIImin7 \;;
#X scalar 1003-chord2 862 0 Imaj \;;
#X scalar 1003-chord3 1278 0 VIImin7 \;;
#X scalar 1003-chord4 3 0 symbol \;;
#X scalar 1003-chord5 3 0 symbol \;;
#X scalar 1003-chord6 3 0 symbol \;;
#X scalar 1003-chord7 3 0 symbol \;;
#X scalar 1003-mchord0 33.2 404.6 \;;
#X scalar 1003-mchord1 449.2 404.6 \;;
#X scalar 1003-mchord2 865.2 404.6 \;;
#X scalar 1003-mchord3 1281.2 404.6 \;;
#X scalar 1003-mchord4 -100 0 \;;
#X scalar 1003-mchord5 -100 0 \;;
#X scalar 1003-mchord6 -100 0 \;;
#X scalar 1003-mchord7 -100 0 \;;
#X scalar 1003-mchord8 -100 0 \;;
#X scalar 1003-mchord9 -100 0 \;;
#X scalar 1003-mchord10 -100 0 \;;
#X scalar 1003-mchord11 -100 0 \;;
#X scalar 1003-mchord12 -100 0 \;;
#X scalar 1003-mchord13 -100 0 \;;
#X scalar 1003-mchord14 -100 0 \;;
#X scalar 1003-mchord15 -100 0 \;;
#X scalar 1003-mchord16 -100 0 \;;
#X scalar 1003-mchord17 -100 0 \;;
#X scalar 1003-mchord18 -100 0 \;;
#X scalar 1003-mchord19 -100 0 \;;
#X scalar 1003-mchord20 -100 0 \;;
#X scalar 1003-mchord21 -100 0 \;;
#X scalar 1003-mchord22 -100 0 \;;
#X scalar 1003-mchord23 -100 0 \;;
#X scalar 1003-mchord24 -100 0 \;;
#X scalar 1003-mchord25 -100 0 \;;
#X scalar 1003-mchord26 -100 0 \;;
#X scalar 1003-mchord27 -100 0 \;;
#X scalar 1003-mchord28 -100 0 \;;
#X scalar 1003-mchord29 -100 0 \;;
#X scalar 1003-mchord30 -100 0 \;;
#X scalar 1003-mchord31 -100 0 \;;
#X scalar 1003-mchord32 -100 0 \;;
#X scalar 1003-mchord33 -100 0 \;;
#X scalar 1003-mchord34 -100 0 \;;
#X scalar 1003-mchord35 -100 0 \;;
#X scalar 1003-mchord36 -100 0 \;;
#X scalar 1003-mchord37 -100 0 \;;
#X scalar 1003-mchord38 -100 0 \;;
#X scalar 1003-mchord39 -100 0 \;;
#X scalar 1003-mchord40 -100 0 \;;
#X scalar 1003-mchord41 -100 0 \;;
#X scalar 1003-mchord42 -100 0 \;;
#X scalar 1003-mchord43 -100 0 \;;
#X scalar 1003-mchord44 -100 0 \;;
#X scalar 1003-mchord45 -100 0 \;;
#X scalar 1003-mchord46 -100 0 \;;
#X scalar 1003-mchord47 -100 0 \;;
#X scalar 1003-mchord48 -100 0 \;;
#X scalar 1003-mchord49 -100 0 \;;
#X scalar 1003-mchord50 -100 0 \;;
#X scalar 1003-mchord51 -100 0 \;;
#X scalar 1003-mchord52 -100 0 \;;
#X scalar 1003-mchord53 -100 0 \;;
#X scalar 1003-mchord54 -100 0 \;;
#X scalar 1003-mchord55 -100 0 \;;
#X scalar 1003-mchord56 -100 0 \;;
#X scalar 1003-mchord57 -100 0 \;;
#X scalar 1003-mchord58 -100 0 \;;
#X scalar 1003-mchord59 -100 0 \;;
#X scalar 1003-mchord60 -100 0 \;;
#X scalar 1003-mchord61 -100 0 \;;
#X scalar 1003-mchord62 -100 0 \;;
#X scalar 1003-mchord63 -100 0 \;;
#X scalar 1003-schord0 33.2 403 \;;
#X scalar 1003-schord1 449.2 403 \;;
#X scalar 1003-schord2 865.2 403 \;;
#X scalar 1003-schord3 1281.2 403 \;;
#X scalar 1003-schord4 100 0 \;;
#X scalar 1003-schord5 100 0 \;;
#X scalar 1003-schord6 100 0 \;;
#X scalar 1003-schord7 100 0 \;;
#X scalar 1003-schord8 100 0 \;;
#X scalar 1003-schord9 100 0 \;;
#X scalar 1003-schord10 100 0 \;;
#X scalar 1003-schord11 100 0 \;;
#X scalar 1003-schord12 100 0 \;;
#X scalar 1003-schord13 100 0 \;;
#X scalar 1003-schord14 100 0 \;;
#X scalar 1003-schord15 100 0 \;;
#X scalar 1003-schord16 100 0 \;;
#X scalar 1003-schord17 100 0 \;;
#X scalar 1003-schord18 100 0 \;;
#X scalar 1003-schord19 100 0 \;;
#X scalar 1003-schord20 100 0 \;;
#X scalar 1003-schord21 100 0 \;;
#X scalar 1003-schord22 100 0 \;;
#X scalar 1003-schord23 100 0 \;;
#X scalar 1003-schord24 100 0 \;;
#X scalar 1003-schord25 100 0 \;;
#X scalar 1003-schord26 100 0 \;;
#X scalar 1003-schord27 100 0 \;;
#X scalar 1003-schord28 100 0 \;;
#X scalar 1003-schord29 100 0 \;;
#X scalar 1003-schord30 100 0 \;;
#X scalar 1003-schord31 100 0 \;;
#X scalar 1003-schord32 100 0 \;;
#X scalar 1003-schord33 100 0 \;;
#X scalar 1003-schord34 100 0 \;;
#X scalar 1003-schord35 100 0 \;;
#X scalar 1003-schord36 100 0 \;;
#X scalar 1003-schord37 100 0 \;;
#X scalar 1003-schord38 100 0 \;;
#X scalar 1003-schord39 100 0 \;;
#X scalar 1003-schord40 100 0 \;;
#X scalar 1003-schord41 100 0 \;;
#X scalar 1003-schord42 100 0 \;;
#X scalar 1003-schord43 100 0 \;;
#X scalar 1003-schord44 100 0 \;;
#X scalar 1003-schord45 100 0 \;;
#X scalar 1003-schord46 100 0 \;;
#X scalar 1003-schord47 100 0 \;;
#X scalar 1003-schord48 100 0 \;;
#X scalar 1003-schord49 100 0 \;;
#X scalar 1003-schord50 100 0 \;;
#X scalar 1003-schord51 100 0 \;;
#X scalar 1003-schord52 100 0 \;;
#X scalar 1003-schord53 100 0 \;;
#X scalar 1003-schord54 100 0 \;;
#X scalar 1003-schord55 100 0 \;;
#X scalar 1003-schord56 100 0 \;;
#X scalar 1003-schord57 100 0 \;;
#X scalar 1003-schord58 100 0 \;;
#X scalar 1003-schord59 100 0 \;;
#X scalar 1003-schord60 100 0 \;;
#X scalar 1003-schord61 100 0 \;;
#X scalar 1003-schord62 100 0 \;;
#X scalar 1003-schord63 100 0 \;;
#X scalar 1003-beat 26 \;;
#X coords 0 0 1715 120 600 80 2 0 0;
#X restore 10 38 pd \$0-data;
#X obj 448 152 hsl 100 15 0 27 0 0 \$0-chord-pattern \$0-set-chord-pattern
pattern 106 11 1 11 -66577 -258113 -228856 733 0;
#X obj 435 152 bng 8 250 50 0 \$0-learn-rhythm --- empty 17 7 0 10
-258113 -1 -1;
#N canvas 0 92 450 297 \$0-plot 0;
#X scalar 1003-point 172.443 65.3846 900 5 \;;
#X scalar 1003-point 103.834 99.2308 222 5 \;;
#X scalar 1003-point 127.18 188.462 222 5 \;;
#X scalar 1003-point 159.623 185.385 222 5 \;;
#X scalar 1003-point 134.211 93.0769 222 5 \;;
#X scalar 1003-point 139.474 126.923 222 5 \;;
#X scalar 1003-point 90.1496 102.308 222 5 \;;
#X scalar 1003-point 119.474 120.769 222 5 \;;
#X scalar 1003-point 137.368 179.231 222 5 \;;
#X scalar 1003-point 33.1579 86.9231 222 5 \;;
#X scalar 1003-point 12.1053 160.769 222 5 \;;
#X scalar 1003-point 45.7895 160.769 222 5 \;;
#X scalar 1003-point 191.202 96.1538 222 5 \;;
#X scalar 1003-point 134.211 120.769 222 5 \;;
#X scalar 1003-point 64.0216 114.615 222 5 \;;
#X scalar 1003-point 49.0969 90 222 5 \;;
#X scalar 1003-point 79.4737 163.846 222 5 \;;
#X scalar 1003-point 67.8947 176.154 222 5 \;;
#X scalar 1003-point 76.3158 173.077 222 5 \;;
#X scalar 1003-point 77.3684 160.769 222 5 \;;
#X scalar 1003-point 31.2022 93.0769 222 5 \;;
#X scalar 1003-point 40.5263 130 222 5 \;;
#X scalar 1003-point 22.6316 130 222 5 \;;
#X scalar 1003-point 90 93.0769 222 5 \;;
#X scalar 1003-point 64.7368 34.6154 222 5 \;;
#X scalar 1003-point 88.0443 96.1538 222 5 \;;
#X scalar 1003-point 40.5263 123.846 222 5 \;;
#X scalar 1003-point 81.9163 65.3846 222 5 \;;
#X scalar 1003-point 62.6316 37.6923 222 5 \;;
#X scalar 1003-point 41.5789 154.615 222 5 \;;
#X scalar 1003-point 73.1579 157.692 222 5 \;;
#X scalar 1003-point 94.3601 90 222 5 \;;
#X scalar 1003-point 102.632 40.7692 222 5 \;;
#X scalar 1003-point 55.2632 28.4615 222 5 \;;
#X scalar 1003-point 42.6316 120.769 222 5 \;;
#X scalar 1003-point 55.2632 31.5385 222 5 \;;
#X scalar 1003-point 112.485 22.3077 222 5 \;;
#X scalar 1003-point 22.6316 130 222 5 \;;
#X scalar 1003-point 116.696 56.1538 222 5 \;;
#X scalar 1003-point 193.158 37.6923 222 5 \;;
#X scalar 1003-point 136.316 160.769 222 5 \;;
#X scalar 1003-point 147.18 68.4615 222 5 \;;
#X scalar 1003-point 164.205 90 222 5 \;;
#X scalar 1003-point 197.368 130 222 5 \;;
#X scalar 1003-point 173.158 126.923 222 5 \;;
#X scalar 1003-point 28.2321 59.2308 222 5 \;;
#X scalar 1003-point 163.684 37.6923 222 5 \;;
#X scalar 1003-point 143.684 34.6154 222 5 \;;
#X scalar 1003-ysis 110 10 200 0 \;;
#X scalar 1003-xsis 10 110 200 \;;
#X scalar 1003-area 10 10 200 \;;
#X coords 10 10 210 210 200 200 2 0 0;
#X restore 18 283 pd \$0-plot;
#X obj 259 124 cnv 15 100 5 empty empty CHORDS 5 12 0 16 -128992 -228856
0;
#X text 6 349 minor, f 1;
#X text 220 348 major, f 1;
#X text 94 482 diatonic;
#X text 87 268 chromatic;
#X obj 530 408 tgl 15 0 \$0-int-synth \$0-set-int-synth int-synth 18
11 1 11 -66577 -258113 -228856 0 1;
#X obj 520 408 bng 8 250 50 0 \$0-learn-synth --- empty 17 7 0 10 -258113
-1 -1;
#X obj 255 152 bng 8 250 50 0 \$0-learn-density --- empty 17 7 0 10
-258113 -1 -1;
#X obj 375 152 cnv 15 30 20 empty empty density 0 12 1 11 -128992 -228856
0;
#X obj 265 202 hradio 15 1 0 7 \$0-chords-octave \$0-set-chords-octave
octave 109 11 1 11 -66577 -258113 -228856 3;
#X obj 255 202 bng 8 250 50 0 \$0-learn-chords-octave --- empty 17
7 0 10 -258113 -1 -1;
#X obj 255 177 bng 8 250 50 0 \$0-learn-legato --- empty 17 7 0 10
-258113 -1 -1;
#X obj 265 277 tgl 15 0 \$0-mute-chords \$0-set-mute-chords mute 18
11 1 11 -66577 -258113 -228856 0 1;
#X obj 255 277 bng 8 250 50 0 \$0-learn-mute-chords --- empty 17 7
0 10 -258113 -1 -1;
#X obj 6 124 cnv 15 100 20 empty empty HARMONY 5 12 0 16 -128992 -228856
0;
#X obj 257 345 cnv 15 100 20 empty empty MEMORY 5 12 0 16 -128992 -228856
0;
#X obj 268 302 hsl 100 15 0 127 0 0 \$0-chords-volume \$0-set-chords-volume
volume 106 11 1 11 -66577 -258113 -228856 6236 0;
#X obj 255 302 bng 8 250 50 0 \$0-learn-chords-volume --- empty 17
7 0 10 -258113 -1 -1;
#X obj 436 380 cnv 15 100 20 empty empty TRANSPORT 5 12 0 16 -128992
-228856 0;
#X obj 265 152 vabs/hslm \$0-density 4 1 64;
#X obj 268 177 hsl 100 15 0 100 0 0 \$0-legato \$0-set-legato legato
106 11 1 11 -66577 -258113 -228856 9900 0;
#X obj 357 441 cnv 15 30 20 empty empty store/recall 0 12 1 11 -128992
-228856 0;
#X obj 357 465 cnv 15 30 20 empty empty clear 0 12 1 11 -128992 -228856
0;
#X obj 357 380 cnv 15 30 20 empty empty store/recall 0 12 1 11 -128992
-228856 0;
#X obj 357 404 cnv 15 30 20 empty empty clear 0 12 1 11 -128992 -228856
0;
#X obj 255 377 pd-abs/memslot 0 \$0;
#X obj 305 377 pd-abs/memslot 2 \$0;
#X obj 280 377 pd-abs/memslot 1 \$0;
#X obj 330 377 pd-abs/memslot 3 \$0;
#X obj 330 438 pd-abs/memslot 7 \$0;
#X obj 255 438 pd-abs/memslot 4 \$0;
#X obj 280 438 pd-abs/memslot 5 \$0;
#X obj 305 438 pd-abs/memslot 6 \$0;
#X obj 320 277 nbx 2 15 1 16 0 0 \$0-ch-chords \$0-set-ch-chords midi-channel
31 11 1 11 -66577 -258699 -233017 1 256;
