#N canvas 492 111 450 490 10;
#N canvas 570 356 619 333 midi-learn 0;
#X obj 52 24 ctlin;
#X obj 121 123 f;
#X obj 161 294 outlet;
#X obj 169 275 loadbang;
#X obj 178 101 inlet;
#X obj 65 212 ==;
#X obj 32 265 spigot;
#X obj 32 288 outlet;
#X text 166 21 midilearn;
#X text 165 35 learns midi incoming control number when receives a
bang;
#X obj 148 123 f;
#X obj 121 45 t b b;
#X obj 121 23 inlet;
#X obj 161 218 pack;
#X obj 178 123 unpack;
#X obj 95 212 ==;
#X obj 65 240 &&;
#X obj 161 237 list prepend set;
#X obj 161 256 list trim;
#X connect 0 0 6 0;
#X connect 0 1 1 1;
#X connect 0 1 5 0;
#X connect 0 2 10 1;
#X connect 0 2 15 0;
#X connect 1 0 13 0;
#X connect 1 0 5 1;
#X connect 3 0 2 0;
#X connect 4 0 14 0;
#X connect 5 0 16 0;
#X connect 6 0 7 0;
#X connect 10 0 13 1;
#X connect 10 0 15 1;
#X connect 11 0 1 0;
#X connect 11 1 10 0;
#X connect 12 0 11 0;
#X connect 13 0 17 0;
#X connect 14 0 5 1;
#X connect 14 1 15 1;
#X connect 15 0 16 1;
#X connect 16 0 6 1;
#X connect 17 0 18 0;
#X connect 18 0 2 0;
#X restore 63 203 pd midi-learn;
#X obj 36 164 r \$1;
#X obj 36 183 t b f;
#X obj 63 222 / 127;
#X obj 63 290 + \$2;
#X obj 63 256 *;
#X obj 188 184 loadbang;
#X obj 188 223 \$3;
#X obj 215 223 \$2;
#X obj 188 283 -;
#X obj 63 370 int;
#X obj 245 294 == 1;
#X obj 188 203 t b b b;
#X obj 245 224 \$4;
#X obj 112 350 spigot;
#X obj 63 351 spigot;
#X obj 112 452 s;
#X obj 112 387 t f b;
#X obj 139 406 symbol \$1;
#X obj 138 232 outlet;
#X obj 138 175 inlet;
#X text 39 15 Learn a MIDI control value and map it to the arguments
like this:;
#X obj 36 449 outlet;
#X text 70 44 \$1: the name of the bang that sets the listening on.
;
#X text 70 64 \$2: the lower boundary of the output;
#X text 70 84 \$3: the higher boundary of the output;
#X text 70 104 \$4: 0 for float output \, 1 for integrer output;
#X obj 36 143 inlet;
#X obj 275 293 == 0;
#X obj 307 294 == 2;
#X obj 230 451 s;
#X obj 230 386 t f b;
#X obj 257 405 symbol \$1;
#X obj 63 330 t f f b;
#X obj 230 367 spigot;
#X text 280 237 1= int \, 0 = float \, 2=bang;
#X msg 139 425 symbol \$1-set;
#X obj 157 295 abs;
#X msg 257 424 symbol \$1-set;
#X connect 0 0 3 0;
#X connect 0 1 19 0;
#X connect 1 0 2 0;
#X connect 2 0 22 0;
#X connect 2 1 0 0;
#X connect 3 0 5 0;
#X connect 4 0 33 0;
#X connect 5 0 4 0;
#X connect 6 0 12 0;
#X connect 7 0 9 0;
#X connect 8 0 9 1;
#X connect 9 0 37 0;
#X connect 10 0 17 0;
#X connect 11 0 15 1;
#X connect 12 0 7 0;
#X connect 12 1 8 0;
#X connect 12 2 13 0;
#X connect 13 0 11 0;
#X connect 13 0 28 0;
#X connect 13 0 29 0;
#X connect 14 0 17 0;
#X connect 15 0 10 0;
#X connect 17 0 16 0;
#X connect 17 1 18 0;
#X connect 18 0 36 0;
#X connect 20 0 0 1;
#X connect 28 0 14 1;
#X connect 29 0 34 1;
#X connect 31 0 30 0;
#X connect 31 1 32 0;
#X connect 32 0 38 0;
#X connect 33 0 15 0;
#X connect 33 1 14 0;
#X connect 33 2 34 0;
#X connect 34 0 31 0;
#X connect 36 0 16 1;
#X connect 37 0 5 1;
#X connect 38 0 30 1;
